G04 #@! TF.FileFunction,Copper,L3,Inr,Signal*
%FSLAX46Y46*%
G04 Gerber Fmt 4.6, Leading zero omitted, Abs format (unit mm)*
G04 Created by KiCad (PCBNEW 4.0.2-stable) date 12/11/2016 19:10:46*
%MOMM*%
G01*
G04 APERTURE LIST*
%ADD10C,0.100000*%
%ADD11C,0.300000*%
%ADD12R,2.235200X2.235200*%
%ADD13C,5.000000*%
%ADD14C,0.452400*%
%ADD15C,0.600000*%
%ADD16C,0.254000*%
G04 APERTURE END LIST*
D10*
D11*
X155700001Y-19442857D02*
X156442858Y-19442857D01*
X156042858Y-19900000D01*
X156214286Y-19900000D01*
X156328572Y-19957143D01*
X156385715Y-20014286D01*
X156442858Y-20128571D01*
X156442858Y-20414286D01*
X156385715Y-20528571D01*
X156328572Y-20585714D01*
X156214286Y-20642857D01*
X155871429Y-20642857D01*
X155757143Y-20585714D01*
X155700001Y-20528571D01*
D12*
X150622000Y-47244000D03*
D13*
X147000000Y-22000000D03*
X165000000Y-57000000D03*
D14*
X155296390Y-53848000D03*
D15*
X164084000Y-46621390D03*
X157800000Y-53952412D03*
D14*
X167000000Y-52500000D03*
D15*
X155489216Y-55852402D03*
X159100000Y-49327410D03*
X163300000Y-50800000D03*
X148214948Y-35985052D03*
X155200000Y-43100000D03*
D14*
X155300000Y-49700000D03*
D15*
X159300000Y-37700000D03*
X161000000Y-31800000D03*
X160200000Y-31800000D03*
X159800000Y-20400000D03*
X158400000Y-20400000D03*
X159100000Y-20400000D03*
X156600000Y-30922590D03*
D14*
X167100000Y-52000000D03*
D15*
X152200000Y-36600000D03*
X152300000Y-24700000D03*
D14*
X150200000Y-32000000D03*
D15*
X153700000Y-58500000D03*
D14*
X155597449Y-51402551D03*
D15*
X146600000Y-51100000D03*
X146600000Y-52100000D03*
X150100000Y-57197598D03*
X152700000Y-56300000D03*
X145000000Y-57000000D03*
X145100000Y-56300000D03*
X147300000Y-35802402D03*
X149200000Y-38500000D03*
X147352402Y-37100000D03*
X150200000Y-42400000D03*
X150300000Y-40600000D03*
X167000000Y-40700000D03*
X154940000Y-45974000D03*
X157100000Y-56300000D03*
X156800000Y-56900000D03*
X157500000Y-56900000D03*
X149900000Y-29000000D03*
X166300000Y-36800000D03*
X159100000Y-31600000D03*
X157700000Y-43100000D03*
X152200000Y-40200000D03*
X150600000Y-30000000D03*
X146812000Y-47498000D03*
D14*
X144700000Y-43200000D03*
X145700000Y-32100000D03*
D15*
X165700000Y-42600000D03*
X163300000Y-49700000D03*
X161200000Y-50500000D03*
D14*
X160400000Y-54300000D03*
X152700000Y-57100000D03*
D15*
X162500000Y-20400000D03*
X162500000Y-32400000D03*
X165800000Y-41600000D03*
D14*
X145450000Y-43400000D03*
X150368000Y-43688000D03*
X156464000Y-44908420D03*
X164033398Y-45466000D03*
X150800000Y-34800000D03*
X150800000Y-32800000D03*
X154300000Y-43000000D03*
X155702000Y-48768000D03*
D15*
X154300000Y-25300000D03*
X155800000Y-25300000D03*
X157300000Y-25300000D03*
X158800000Y-25300000D03*
X160200000Y-25400000D03*
X161100000Y-25400000D03*
X162400000Y-25800000D03*
X164700000Y-25200000D03*
X154300000Y-26500000D03*
X156000000Y-26100000D03*
X157300000Y-26500000D03*
X158700000Y-26500000D03*
X160200000Y-26500000D03*
X161700000Y-26300000D03*
X163200000Y-26500000D03*
X164700000Y-26500000D03*
X154300000Y-37200000D03*
X155800000Y-37200000D03*
X157300000Y-37200000D03*
X158500000Y-37200000D03*
X160200000Y-37200000D03*
X161400000Y-37200000D03*
X163200000Y-37577410D03*
X164700000Y-37000000D03*
X154300000Y-38400000D03*
X155800000Y-38400000D03*
X157300000Y-38400000D03*
X158700000Y-38400000D03*
X160200000Y-38400000D03*
X161700000Y-38400000D03*
X163200000Y-38400000D03*
X164700000Y-38400000D03*
X146700000Y-53100000D03*
X151200000Y-53300000D03*
X145500000Y-47900000D03*
X148000000Y-47322590D03*
D14*
X161345190Y-48700000D03*
X162300000Y-48700000D03*
X148900000Y-57100000D03*
X148200000Y-57100000D03*
X146300000Y-43180000D03*
X164592000Y-42926000D03*
X161033398Y-46736000D03*
X162533398Y-46736000D03*
X150200009Y-31395199D03*
X153100000Y-30900000D03*
X162000000Y-31700000D03*
D16*
G36*
X144943725Y-19764120D02*
X147000000Y-21820395D01*
X149056275Y-19764120D01*
X148850930Y-19456000D01*
X152973000Y-19456000D01*
X152973000Y-20900000D01*
X152983006Y-20949410D01*
X153011447Y-20991035D01*
X153053841Y-21018315D01*
X153100000Y-21027000D01*
X154997572Y-21027000D01*
X154997572Y-21471000D01*
X157202429Y-21471000D01*
X157202429Y-21027000D01*
X157900000Y-21027000D01*
X157949410Y-21016994D01*
X157991035Y-20988553D01*
X158018315Y-20946159D01*
X158027000Y-20900000D01*
X158027000Y-20534865D01*
X161818882Y-20534865D01*
X161922339Y-20785252D01*
X162113741Y-20976987D01*
X162363946Y-21080882D01*
X162634865Y-21081118D01*
X162885252Y-20977661D01*
X163076987Y-20786259D01*
X163180882Y-20536054D01*
X163181118Y-20265135D01*
X163077661Y-20014748D01*
X162886259Y-19823013D01*
X162636054Y-19719118D01*
X162365135Y-19718882D01*
X162114748Y-19822339D01*
X161923013Y-20013741D01*
X161819118Y-20263946D01*
X161818882Y-20534865D01*
X158027000Y-20534865D01*
X158027000Y-19456000D01*
X167544000Y-19456000D01*
X167544000Y-55149070D01*
X167235880Y-54943725D01*
X165179605Y-57000000D01*
X167235880Y-59056275D01*
X167544000Y-58850930D01*
X167544000Y-59544000D01*
X166850930Y-59544000D01*
X167056275Y-59235880D01*
X165000000Y-57179605D01*
X162943725Y-59235880D01*
X163149070Y-59544000D01*
X144456000Y-59544000D01*
X144456000Y-57220250D01*
X147592695Y-57220250D01*
X147684941Y-57443502D01*
X147855600Y-57614459D01*
X148078691Y-57707095D01*
X148320250Y-57707305D01*
X148543502Y-57615059D01*
X148549862Y-57608711D01*
X148555600Y-57614459D01*
X148778691Y-57707095D01*
X149020250Y-57707305D01*
X149243502Y-57615059D01*
X149414459Y-57444400D01*
X149507095Y-57221309D01*
X149507095Y-57220250D01*
X152092695Y-57220250D01*
X152184941Y-57443502D01*
X152355600Y-57614459D01*
X152578691Y-57707095D01*
X152820250Y-57707305D01*
X153043502Y-57615059D01*
X153214459Y-57444400D01*
X153307095Y-57221309D01*
X153307257Y-57034865D01*
X156118882Y-57034865D01*
X156222339Y-57285252D01*
X156413741Y-57476987D01*
X156663946Y-57580882D01*
X156934865Y-57581118D01*
X157150222Y-57492135D01*
X157363946Y-57580882D01*
X157634865Y-57581118D01*
X157885252Y-57477661D01*
X158076987Y-57286259D01*
X158180882Y-57036054D01*
X158181118Y-56765135D01*
X158077661Y-56514748D01*
X157941043Y-56377892D01*
X161864706Y-56377892D01*
X161865295Y-57625072D01*
X162341436Y-58774579D01*
X162764120Y-59056275D01*
X164820395Y-57000000D01*
X162764120Y-54943725D01*
X162341436Y-55225421D01*
X161864706Y-56377892D01*
X157941043Y-56377892D01*
X157886259Y-56323013D01*
X157781019Y-56279313D01*
X157781118Y-56165135D01*
X157677661Y-55914748D01*
X157486259Y-55723013D01*
X157236054Y-55619118D01*
X156965135Y-55618882D01*
X156714748Y-55722339D01*
X156523013Y-55913741D01*
X156419118Y-56163946D01*
X156418982Y-56320590D01*
X156414748Y-56322339D01*
X156223013Y-56513741D01*
X156119118Y-56763946D01*
X156118882Y-57034865D01*
X153307257Y-57034865D01*
X153307305Y-56979750D01*
X153215059Y-56756498D01*
X153044400Y-56585541D01*
X152821309Y-56492905D01*
X152579750Y-56492695D01*
X152356498Y-56584941D01*
X152185541Y-56755600D01*
X152092905Y-56978691D01*
X152092695Y-57220250D01*
X149507095Y-57220250D01*
X149507305Y-56979750D01*
X149415059Y-56756498D01*
X149244400Y-56585541D01*
X149021309Y-56492905D01*
X148779750Y-56492695D01*
X148556498Y-56584941D01*
X148550138Y-56591289D01*
X148544400Y-56585541D01*
X148321309Y-56492905D01*
X148079750Y-56492695D01*
X147856498Y-56584941D01*
X147685541Y-56755600D01*
X147592905Y-56978691D01*
X147592695Y-57220250D01*
X144456000Y-57220250D01*
X144456000Y-54420250D01*
X159792695Y-54420250D01*
X159884941Y-54643502D01*
X160055600Y-54814459D01*
X160278691Y-54907095D01*
X160520250Y-54907305D01*
X160743502Y-54815059D01*
X160794529Y-54764120D01*
X162943725Y-54764120D01*
X165000000Y-56820395D01*
X167056275Y-54764120D01*
X166774579Y-54341436D01*
X165622108Y-53864706D01*
X164374928Y-53865295D01*
X163225421Y-54341436D01*
X162943725Y-54764120D01*
X160794529Y-54764120D01*
X160914459Y-54644400D01*
X161007095Y-54421309D01*
X161007305Y-54179750D01*
X160915059Y-53956498D01*
X160744400Y-53785541D01*
X160521309Y-53692905D01*
X160279750Y-53692695D01*
X160056498Y-53784941D01*
X159885541Y-53955600D01*
X159792905Y-54178691D01*
X159792695Y-54420250D01*
X144456000Y-54420250D01*
X144456000Y-53234865D01*
X146018882Y-53234865D01*
X146122339Y-53485252D01*
X146313741Y-53676987D01*
X146563946Y-53780882D01*
X146834865Y-53781118D01*
X147085252Y-53677661D01*
X147276987Y-53486259D01*
X147298327Y-53434865D01*
X150518882Y-53434865D01*
X150622339Y-53685252D01*
X150813741Y-53876987D01*
X151063946Y-53980882D01*
X151334865Y-53981118D01*
X151585252Y-53877661D01*
X151776987Y-53686259D01*
X151880882Y-53436054D01*
X151881118Y-53165135D01*
X151777661Y-52914748D01*
X151586259Y-52723013D01*
X151336054Y-52619118D01*
X151065135Y-52618882D01*
X150814748Y-52722339D01*
X150623013Y-52913741D01*
X150519118Y-53163946D01*
X150518882Y-53434865D01*
X147298327Y-53434865D01*
X147380882Y-53236054D01*
X147381118Y-52965135D01*
X147277661Y-52714748D01*
X147086259Y-52523013D01*
X146836054Y-52419118D01*
X146565135Y-52418882D01*
X146314748Y-52522339D01*
X146123013Y-52713741D01*
X146019118Y-52963946D01*
X146018882Y-53234865D01*
X144456000Y-53234865D01*
X144456000Y-50634865D01*
X160518882Y-50634865D01*
X160622339Y-50885252D01*
X160813741Y-51076987D01*
X161063946Y-51180882D01*
X161334865Y-51181118D01*
X161585252Y-51077661D01*
X161776987Y-50886259D01*
X161880882Y-50636054D01*
X161881118Y-50365135D01*
X161777661Y-50114748D01*
X161586259Y-49923013D01*
X161373977Y-49834865D01*
X162618882Y-49834865D01*
X162722339Y-50085252D01*
X162913741Y-50276987D01*
X163163946Y-50380882D01*
X163434865Y-50381118D01*
X163685252Y-50277661D01*
X163876987Y-50086259D01*
X163980882Y-49836054D01*
X163981118Y-49565135D01*
X163877661Y-49314748D01*
X163686259Y-49123013D01*
X163436054Y-49019118D01*
X163165135Y-49018882D01*
X162914748Y-49122339D01*
X162723013Y-49313741D01*
X162619118Y-49563946D01*
X162618882Y-49834865D01*
X161373977Y-49834865D01*
X161336054Y-49819118D01*
X161065135Y-49818882D01*
X160814748Y-49922339D01*
X160623013Y-50113741D01*
X160519118Y-50363946D01*
X160518882Y-50634865D01*
X144456000Y-50634865D01*
X144456000Y-48888250D01*
X155094695Y-48888250D01*
X155186941Y-49111502D01*
X155357600Y-49282459D01*
X155580691Y-49375095D01*
X155822250Y-49375305D01*
X156045502Y-49283059D01*
X156216459Y-49112400D01*
X156309095Y-48889309D01*
X156309155Y-48820250D01*
X160737885Y-48820250D01*
X160830131Y-49043502D01*
X161000790Y-49214459D01*
X161223881Y-49307095D01*
X161465440Y-49307305D01*
X161688692Y-49215059D01*
X161822679Y-49081306D01*
X161955600Y-49214459D01*
X162178691Y-49307095D01*
X162420250Y-49307305D01*
X162643502Y-49215059D01*
X162814459Y-49044400D01*
X162907095Y-48821309D01*
X162907305Y-48579750D01*
X162815059Y-48356498D01*
X162644400Y-48185541D01*
X162421309Y-48092905D01*
X162179750Y-48092695D01*
X161956498Y-48184941D01*
X161822511Y-48318694D01*
X161689590Y-48185541D01*
X161466499Y-48092905D01*
X161224940Y-48092695D01*
X161001688Y-48184941D01*
X160830731Y-48355600D01*
X160738095Y-48578691D01*
X160737885Y-48820250D01*
X156309155Y-48820250D01*
X156309305Y-48647750D01*
X156217059Y-48424498D01*
X156046400Y-48253541D01*
X155823309Y-48160905D01*
X155581750Y-48160695D01*
X155358498Y-48252941D01*
X155187541Y-48423600D01*
X155094905Y-48646691D01*
X155094695Y-48888250D01*
X144456000Y-48888250D01*
X144456000Y-48034865D01*
X144818882Y-48034865D01*
X144922339Y-48285252D01*
X145113741Y-48476987D01*
X145363946Y-48580882D01*
X145634865Y-48581118D01*
X145885252Y-48477661D01*
X146076987Y-48286259D01*
X146180882Y-48036054D01*
X146181118Y-47765135D01*
X146126466Y-47632865D01*
X146130882Y-47632865D01*
X146234339Y-47883252D01*
X146425741Y-48074987D01*
X146675946Y-48178882D01*
X146946865Y-48179118D01*
X147197252Y-48075661D01*
X147388987Y-47884259D01*
X147450520Y-47736072D01*
X147613741Y-47899577D01*
X147863946Y-48003472D01*
X148134865Y-48003708D01*
X148385252Y-47900251D01*
X148576987Y-47708849D01*
X148680882Y-47458644D01*
X148681118Y-47187725D01*
X148577661Y-46937338D01*
X148386259Y-46745603D01*
X148136054Y-46641708D01*
X147865135Y-46641472D01*
X147614748Y-46744929D01*
X147423013Y-46936331D01*
X147361480Y-47084518D01*
X147198259Y-46921013D01*
X146948054Y-46817118D01*
X146677135Y-46816882D01*
X146426748Y-46920339D01*
X146235013Y-47111741D01*
X146131118Y-47361946D01*
X146130882Y-47632865D01*
X146126466Y-47632865D01*
X146077661Y-47514748D01*
X145886259Y-47323013D01*
X145636054Y-47219118D01*
X145365135Y-47218882D01*
X145114748Y-47322339D01*
X144923013Y-47513741D01*
X144819118Y-47763946D01*
X144818882Y-48034865D01*
X144456000Y-48034865D01*
X144456000Y-46126400D01*
X149115936Y-46126400D01*
X149115936Y-48361600D01*
X149142503Y-48502790D01*
X149225946Y-48632465D01*
X149353266Y-48719459D01*
X149504400Y-48750064D01*
X151739600Y-48750064D01*
X151880790Y-48723497D01*
X152010465Y-48640054D01*
X152097459Y-48512734D01*
X152128064Y-48361600D01*
X152128064Y-46856250D01*
X160426093Y-46856250D01*
X160518339Y-47079502D01*
X160688998Y-47250459D01*
X160912089Y-47343095D01*
X161153648Y-47343305D01*
X161376900Y-47251059D01*
X161547857Y-47080400D01*
X161640493Y-46857309D01*
X161640493Y-46856250D01*
X161926093Y-46856250D01*
X162018339Y-47079502D01*
X162188998Y-47250459D01*
X162412089Y-47343095D01*
X162653648Y-47343305D01*
X162876900Y-47251059D01*
X163047857Y-47080400D01*
X163140493Y-46857309D01*
X163140703Y-46615750D01*
X163048457Y-46392498D01*
X162877798Y-46221541D01*
X162654707Y-46128905D01*
X162413148Y-46128695D01*
X162189896Y-46220941D01*
X162018939Y-46391600D01*
X161926303Y-46614691D01*
X161926093Y-46856250D01*
X161640493Y-46856250D01*
X161640703Y-46615750D01*
X161548457Y-46392498D01*
X161377798Y-46221541D01*
X161154707Y-46128905D01*
X160913148Y-46128695D01*
X160689896Y-46220941D01*
X160518939Y-46391600D01*
X160426303Y-46614691D01*
X160426093Y-46856250D01*
X152128064Y-46856250D01*
X152128064Y-46126400D01*
X152124765Y-46108865D01*
X154258882Y-46108865D01*
X154362339Y-46359252D01*
X154553741Y-46550987D01*
X154803946Y-46654882D01*
X155074865Y-46655118D01*
X155325252Y-46551661D01*
X155516987Y-46360259D01*
X155620882Y-46110054D01*
X155621118Y-45839135D01*
X155517661Y-45588748D01*
X155515168Y-45586250D01*
X163426093Y-45586250D01*
X163518339Y-45809502D01*
X163688998Y-45980459D01*
X163912089Y-46073095D01*
X164153648Y-46073305D01*
X164376900Y-45981059D01*
X164547857Y-45810400D01*
X164640493Y-45587309D01*
X164640703Y-45345750D01*
X164548457Y-45122498D01*
X164377798Y-44951541D01*
X164154707Y-44858905D01*
X163913148Y-44858695D01*
X163689896Y-44950941D01*
X163518939Y-45121600D01*
X163426303Y-45344691D01*
X163426093Y-45586250D01*
X155515168Y-45586250D01*
X155326259Y-45397013D01*
X155076054Y-45293118D01*
X154805135Y-45292882D01*
X154554748Y-45396339D01*
X154363013Y-45587741D01*
X154259118Y-45837946D01*
X154258882Y-46108865D01*
X152124765Y-46108865D01*
X152101497Y-45985210D01*
X152018054Y-45855535D01*
X151890734Y-45768541D01*
X151739600Y-45737936D01*
X149504400Y-45737936D01*
X149363210Y-45764503D01*
X149233535Y-45847946D01*
X149146541Y-45975266D01*
X149115936Y-46126400D01*
X144456000Y-46126400D01*
X144456000Y-45028670D01*
X155856695Y-45028670D01*
X155948941Y-45251922D01*
X156119600Y-45422879D01*
X156342691Y-45515515D01*
X156584250Y-45515725D01*
X156807502Y-45423479D01*
X156978459Y-45252820D01*
X157071095Y-45029729D01*
X157071305Y-44788170D01*
X156979059Y-44564918D01*
X156808400Y-44393961D01*
X156585309Y-44301325D01*
X156343750Y-44301115D01*
X156120498Y-44393361D01*
X155949541Y-44564020D01*
X155856905Y-44787111D01*
X155856695Y-45028670D01*
X144456000Y-45028670D01*
X144456000Y-43756149D01*
X144578691Y-43807095D01*
X144820250Y-43807305D01*
X144946541Y-43755122D01*
X145105600Y-43914459D01*
X145328691Y-44007095D01*
X145570250Y-44007305D01*
X145793502Y-43915059D01*
X145900497Y-43808250D01*
X149760695Y-43808250D01*
X149852941Y-44031502D01*
X150023600Y-44202459D01*
X150246691Y-44295095D01*
X150488250Y-44295305D01*
X150711502Y-44203059D01*
X150882459Y-44032400D01*
X150975095Y-43809309D01*
X150975305Y-43567750D01*
X150883059Y-43344498D01*
X150712400Y-43173541D01*
X150584062Y-43120250D01*
X153692695Y-43120250D01*
X153784941Y-43343502D01*
X153955600Y-43514459D01*
X154178691Y-43607095D01*
X154420250Y-43607305D01*
X154643502Y-43515059D01*
X154814459Y-43344400D01*
X154859942Y-43234865D01*
X157018882Y-43234865D01*
X157122339Y-43485252D01*
X157313741Y-43676987D01*
X157563946Y-43780882D01*
X157834865Y-43781118D01*
X158085252Y-43677661D01*
X158276987Y-43486259D01*
X158380882Y-43236054D01*
X158381047Y-43046250D01*
X163984695Y-43046250D01*
X164076941Y-43269502D01*
X164247600Y-43440459D01*
X164470691Y-43533095D01*
X164712250Y-43533305D01*
X164935502Y-43441059D01*
X165106459Y-43270400D01*
X165194745Y-43057784D01*
X165313741Y-43176987D01*
X165563946Y-43280882D01*
X165834865Y-43281118D01*
X166085252Y-43177661D01*
X166276987Y-42986259D01*
X166380882Y-42736054D01*
X166381118Y-42465135D01*
X166277661Y-42214748D01*
X166212993Y-42149968D01*
X166376987Y-41986259D01*
X166480882Y-41736054D01*
X166481118Y-41465135D01*
X166377661Y-41214748D01*
X166186259Y-41023013D01*
X165936054Y-40919118D01*
X165665135Y-40918882D01*
X165414748Y-41022339D01*
X165223013Y-41213741D01*
X165119118Y-41463946D01*
X165118882Y-41734865D01*
X165222339Y-41985252D01*
X165287007Y-42050032D01*
X165123013Y-42213741D01*
X165019118Y-42463946D01*
X165019091Y-42494377D01*
X164936400Y-42411541D01*
X164713309Y-42318905D01*
X164471750Y-42318695D01*
X164248498Y-42410941D01*
X164077541Y-42581600D01*
X163984905Y-42804691D01*
X163984695Y-43046250D01*
X158381047Y-43046250D01*
X158381118Y-42965135D01*
X158277661Y-42714748D01*
X158086259Y-42523013D01*
X157836054Y-42419118D01*
X157565135Y-42418882D01*
X157314748Y-42522339D01*
X157123013Y-42713741D01*
X157019118Y-42963946D01*
X157018882Y-43234865D01*
X154859942Y-43234865D01*
X154907095Y-43121309D01*
X154907305Y-42879750D01*
X154815059Y-42656498D01*
X154644400Y-42485541D01*
X154421309Y-42392905D01*
X154179750Y-42392695D01*
X153956498Y-42484941D01*
X153785541Y-42655600D01*
X153692905Y-42878691D01*
X153692695Y-43120250D01*
X150584062Y-43120250D01*
X150489309Y-43080905D01*
X150247750Y-43080695D01*
X150024498Y-43172941D01*
X149853541Y-43343600D01*
X149760905Y-43566691D01*
X149760695Y-43808250D01*
X145900497Y-43808250D01*
X145964459Y-43744400D01*
X145980844Y-43704941D01*
X146178691Y-43787095D01*
X146420250Y-43787305D01*
X146643502Y-43695059D01*
X146814459Y-43524400D01*
X146907095Y-43301309D01*
X146907305Y-43059750D01*
X146815059Y-42836498D01*
X146644400Y-42665541D01*
X146421309Y-42572905D01*
X146179750Y-42572695D01*
X145956498Y-42664941D01*
X145785541Y-42835600D01*
X145769156Y-42875059D01*
X145571309Y-42792905D01*
X145329750Y-42792695D01*
X145203459Y-42844878D01*
X145044400Y-42685541D01*
X144821309Y-42592905D01*
X144579750Y-42592695D01*
X144456000Y-42643828D01*
X144456000Y-40334865D01*
X151518882Y-40334865D01*
X151622339Y-40585252D01*
X151813741Y-40776987D01*
X152063946Y-40880882D01*
X152334865Y-40881118D01*
X152585252Y-40777661D01*
X152776987Y-40586259D01*
X152880882Y-40336054D01*
X152881118Y-40065135D01*
X152777661Y-39814748D01*
X152586259Y-39623013D01*
X152336054Y-39519118D01*
X152065135Y-39518882D01*
X151814748Y-39622339D01*
X151623013Y-39813741D01*
X151519118Y-40063946D01*
X151518882Y-40334865D01*
X144456000Y-40334865D01*
X144456000Y-37334865D01*
X153618882Y-37334865D01*
X153722339Y-37585252D01*
X153913741Y-37776987D01*
X153968988Y-37799928D01*
X153914748Y-37822339D01*
X153723013Y-38013741D01*
X153619118Y-38263946D01*
X153618882Y-38534865D01*
X153722339Y-38785252D01*
X153913741Y-38976987D01*
X154163946Y-39080882D01*
X154434865Y-39081118D01*
X154685252Y-38977661D01*
X154876987Y-38786259D01*
X154980882Y-38536054D01*
X154981118Y-38265135D01*
X154877661Y-38014748D01*
X154686259Y-37823013D01*
X154631012Y-37800072D01*
X154685252Y-37777661D01*
X154876987Y-37586259D01*
X154980882Y-37336054D01*
X154980883Y-37334865D01*
X155118882Y-37334865D01*
X155222339Y-37585252D01*
X155413741Y-37776987D01*
X155468988Y-37799928D01*
X155414748Y-37822339D01*
X155223013Y-38013741D01*
X155119118Y-38263946D01*
X155118882Y-38534865D01*
X155222339Y-38785252D01*
X155413741Y-38976987D01*
X155663946Y-39080882D01*
X155934865Y-39081118D01*
X156185252Y-38977661D01*
X156376987Y-38786259D01*
X156480882Y-38536054D01*
X156481118Y-38265135D01*
X156377661Y-38014748D01*
X156186259Y-37823013D01*
X156131012Y-37800072D01*
X156185252Y-37777661D01*
X156376987Y-37586259D01*
X156480882Y-37336054D01*
X156480883Y-37334865D01*
X156618882Y-37334865D01*
X156722339Y-37585252D01*
X156913741Y-37776987D01*
X156968988Y-37799928D01*
X156914748Y-37822339D01*
X156723013Y-38013741D01*
X156619118Y-38263946D01*
X156618882Y-38534865D01*
X156722339Y-38785252D01*
X156913741Y-38976987D01*
X157163946Y-39080882D01*
X157434865Y-39081118D01*
X157685252Y-38977661D01*
X157876987Y-38786259D01*
X157980882Y-38536054D01*
X157981118Y-38265135D01*
X157877661Y-38014748D01*
X157686259Y-37823013D01*
X157631012Y-37800072D01*
X157685252Y-37777661D01*
X157876987Y-37586259D01*
X157899928Y-37531012D01*
X157922339Y-37585252D01*
X158113741Y-37776987D01*
X158287784Y-37849256D01*
X158123013Y-38013741D01*
X158019118Y-38263946D01*
X158018882Y-38534865D01*
X158122339Y-38785252D01*
X158313741Y-38976987D01*
X158563946Y-39080882D01*
X158834865Y-39081118D01*
X159085252Y-38977661D01*
X159276987Y-38786259D01*
X159380882Y-38536054D01*
X159381118Y-38265135D01*
X159277661Y-38014748D01*
X159086259Y-37823013D01*
X158912216Y-37750744D01*
X159076987Y-37586259D01*
X159180882Y-37336054D01*
X159180883Y-37334865D01*
X159518882Y-37334865D01*
X159622339Y-37585252D01*
X159813741Y-37776987D01*
X159868988Y-37799928D01*
X159814748Y-37822339D01*
X159623013Y-38013741D01*
X159519118Y-38263946D01*
X159518882Y-38534865D01*
X159622339Y-38785252D01*
X159813741Y-38976987D01*
X160063946Y-39080882D01*
X160334865Y-39081118D01*
X160585252Y-38977661D01*
X160776987Y-38786259D01*
X160880882Y-38536054D01*
X160881118Y-38265135D01*
X160777661Y-38014748D01*
X160586259Y-37823013D01*
X160531012Y-37800072D01*
X160585252Y-37777661D01*
X160776987Y-37586259D01*
X160799928Y-37531012D01*
X160822339Y-37585252D01*
X161013741Y-37776987D01*
X161258407Y-37878582D01*
X161123013Y-38013741D01*
X161019118Y-38263946D01*
X161018882Y-38534865D01*
X161122339Y-38785252D01*
X161313741Y-38976987D01*
X161563946Y-39080882D01*
X161834865Y-39081118D01*
X162085252Y-38977661D01*
X162276987Y-38786259D01*
X162380882Y-38536054D01*
X162381118Y-38265135D01*
X162277661Y-38014748D01*
X162086259Y-37823013D01*
X161841593Y-37721418D01*
X161850751Y-37712275D01*
X162518882Y-37712275D01*
X162622339Y-37962662D01*
X162648215Y-37988583D01*
X162623013Y-38013741D01*
X162519118Y-38263946D01*
X162518882Y-38534865D01*
X162622339Y-38785252D01*
X162813741Y-38976987D01*
X163063946Y-39080882D01*
X163334865Y-39081118D01*
X163585252Y-38977661D01*
X163776987Y-38786259D01*
X163880882Y-38536054D01*
X163880883Y-38534865D01*
X164018882Y-38534865D01*
X164122339Y-38785252D01*
X164313741Y-38976987D01*
X164563946Y-39080882D01*
X164834865Y-39081118D01*
X165085252Y-38977661D01*
X165276987Y-38786259D01*
X165380882Y-38536054D01*
X165381118Y-38265135D01*
X165277661Y-38014748D01*
X165086259Y-37823013D01*
X164836054Y-37719118D01*
X164565135Y-37718882D01*
X164314748Y-37822339D01*
X164123013Y-38013741D01*
X164019118Y-38263946D01*
X164018882Y-38534865D01*
X163880883Y-38534865D01*
X163881118Y-38265135D01*
X163777661Y-38014748D01*
X163751785Y-37988827D01*
X163776987Y-37963669D01*
X163880882Y-37713464D01*
X163881118Y-37442545D01*
X163777661Y-37192158D01*
X163720468Y-37134865D01*
X164018882Y-37134865D01*
X164122339Y-37385252D01*
X164313741Y-37576987D01*
X164563946Y-37680882D01*
X164834865Y-37681118D01*
X165085252Y-37577661D01*
X165276987Y-37386259D01*
X165380882Y-37136054D01*
X165381057Y-36934865D01*
X165618882Y-36934865D01*
X165722339Y-37185252D01*
X165913741Y-37376987D01*
X166163946Y-37480882D01*
X166434865Y-37481118D01*
X166685252Y-37377661D01*
X166876987Y-37186259D01*
X166980882Y-36936054D01*
X166981118Y-36665135D01*
X166877661Y-36414748D01*
X166686259Y-36223013D01*
X166436054Y-36119118D01*
X166165135Y-36118882D01*
X165914748Y-36222339D01*
X165723013Y-36413741D01*
X165619118Y-36663946D01*
X165618882Y-36934865D01*
X165381057Y-36934865D01*
X165381118Y-36865135D01*
X165277661Y-36614748D01*
X165086259Y-36423013D01*
X164836054Y-36319118D01*
X164565135Y-36318882D01*
X164314748Y-36422339D01*
X164123013Y-36613741D01*
X164019118Y-36863946D01*
X164018882Y-37134865D01*
X163720468Y-37134865D01*
X163586259Y-37000423D01*
X163336054Y-36896528D01*
X163065135Y-36896292D01*
X162814748Y-36999749D01*
X162623013Y-37191151D01*
X162519118Y-37441356D01*
X162518882Y-37712275D01*
X161850751Y-37712275D01*
X161976987Y-37586259D01*
X162080882Y-37336054D01*
X162081118Y-37065135D01*
X161977661Y-36814748D01*
X161786259Y-36623013D01*
X161536054Y-36519118D01*
X161265135Y-36518882D01*
X161014748Y-36622339D01*
X160823013Y-36813741D01*
X160800072Y-36868988D01*
X160777661Y-36814748D01*
X160586259Y-36623013D01*
X160336054Y-36519118D01*
X160065135Y-36518882D01*
X159814748Y-36622339D01*
X159623013Y-36813741D01*
X159519118Y-37063946D01*
X159518882Y-37334865D01*
X159180883Y-37334865D01*
X159181118Y-37065135D01*
X159077661Y-36814748D01*
X158886259Y-36623013D01*
X158636054Y-36519118D01*
X158365135Y-36518882D01*
X158114748Y-36622339D01*
X157923013Y-36813741D01*
X157900072Y-36868988D01*
X157877661Y-36814748D01*
X157686259Y-36623013D01*
X157436054Y-36519118D01*
X157165135Y-36518882D01*
X156914748Y-36622339D01*
X156723013Y-36813741D01*
X156619118Y-37063946D01*
X156618882Y-37334865D01*
X156480883Y-37334865D01*
X156481118Y-37065135D01*
X156377661Y-36814748D01*
X156186259Y-36623013D01*
X155936054Y-36519118D01*
X155665135Y-36518882D01*
X155414748Y-36622339D01*
X155223013Y-36813741D01*
X155119118Y-37063946D01*
X155118882Y-37334865D01*
X154980883Y-37334865D01*
X154981118Y-37065135D01*
X154877661Y-36814748D01*
X154686259Y-36623013D01*
X154436054Y-36519118D01*
X154165135Y-36518882D01*
X153914748Y-36622339D01*
X153723013Y-36813741D01*
X153619118Y-37063946D01*
X153618882Y-37334865D01*
X144456000Y-37334865D01*
X144456000Y-34920250D01*
X150192695Y-34920250D01*
X150284941Y-35143502D01*
X150455600Y-35314459D01*
X150678691Y-35407095D01*
X150920250Y-35407305D01*
X151143502Y-35315059D01*
X151314459Y-35144400D01*
X151407095Y-34921309D01*
X151407305Y-34679750D01*
X151315059Y-34456498D01*
X151144400Y-34285541D01*
X150921309Y-34192905D01*
X150679750Y-34192695D01*
X150456498Y-34284941D01*
X150285541Y-34455600D01*
X150192905Y-34678691D01*
X150192695Y-34920250D01*
X144456000Y-34920250D01*
X144456000Y-32920250D01*
X150192695Y-32920250D01*
X150284941Y-33143502D01*
X150455600Y-33314459D01*
X150678691Y-33407095D01*
X150920250Y-33407305D01*
X151143502Y-33315059D01*
X151314459Y-33144400D01*
X151407095Y-32921309D01*
X151407305Y-32679750D01*
X151315059Y-32456498D01*
X151144400Y-32285541D01*
X150921309Y-32192905D01*
X150679750Y-32192695D01*
X150456498Y-32284941D01*
X150285541Y-32455600D01*
X150192905Y-32678691D01*
X150192695Y-32920250D01*
X144456000Y-32920250D01*
X144456000Y-32220250D01*
X145092695Y-32220250D01*
X145184941Y-32443502D01*
X145355600Y-32614459D01*
X145578691Y-32707095D01*
X145820250Y-32707305D01*
X146043502Y-32615059D01*
X146214459Y-32444400D01*
X146307095Y-32221309D01*
X146307305Y-31979750D01*
X146215059Y-31756498D01*
X146044400Y-31585541D01*
X145875601Y-31515449D01*
X149592704Y-31515449D01*
X149684950Y-31738701D01*
X149855609Y-31909658D01*
X150078700Y-32002294D01*
X150320259Y-32002504D01*
X150543511Y-31910258D01*
X150714468Y-31739599D01*
X150716433Y-31734865D01*
X158418882Y-31734865D01*
X158522339Y-31985252D01*
X158713741Y-32176987D01*
X158963946Y-32280882D01*
X159234865Y-32281118D01*
X159485252Y-32177661D01*
X159676987Y-31986259D01*
X159745920Y-31820250D01*
X161392695Y-31820250D01*
X161484941Y-32043502D01*
X161655600Y-32214459D01*
X161819102Y-32282351D01*
X161818882Y-32534865D01*
X161922339Y-32785252D01*
X162113741Y-32976987D01*
X162363946Y-33080882D01*
X162634865Y-33081118D01*
X162885252Y-32977661D01*
X163076987Y-32786259D01*
X163180882Y-32536054D01*
X163181118Y-32265135D01*
X163077661Y-32014748D01*
X162886259Y-31823013D01*
X162636054Y-31719118D01*
X162607184Y-31719093D01*
X162607305Y-31579750D01*
X162515059Y-31356498D01*
X162344400Y-31185541D01*
X162121309Y-31092905D01*
X161879750Y-31092695D01*
X161656498Y-31184941D01*
X161485541Y-31355600D01*
X161392905Y-31578691D01*
X161392695Y-31820250D01*
X159745920Y-31820250D01*
X159780882Y-31736054D01*
X159781118Y-31465135D01*
X159677661Y-31214748D01*
X159486259Y-31023013D01*
X159236054Y-30919118D01*
X158965135Y-30918882D01*
X158714748Y-31022339D01*
X158523013Y-31213741D01*
X158419118Y-31463946D01*
X158418882Y-31734865D01*
X150716433Y-31734865D01*
X150807104Y-31516508D01*
X150807314Y-31274949D01*
X150715068Y-31051697D01*
X150683676Y-31020250D01*
X152492695Y-31020250D01*
X152584941Y-31243502D01*
X152755600Y-31414459D01*
X152978691Y-31507095D01*
X153220250Y-31507305D01*
X153443502Y-31415059D01*
X153614459Y-31244400D01*
X153707095Y-31021309D01*
X153707305Y-30779750D01*
X153615059Y-30556498D01*
X153444400Y-30385541D01*
X153221309Y-30292905D01*
X152979750Y-30292695D01*
X152756498Y-30384941D01*
X152585541Y-30555600D01*
X152492905Y-30778691D01*
X152492695Y-31020250D01*
X150683676Y-31020250D01*
X150544409Y-30880740D01*
X150321318Y-30788104D01*
X150079759Y-30787894D01*
X149856507Y-30880140D01*
X149685550Y-31050799D01*
X149592914Y-31273890D01*
X149592704Y-31515449D01*
X145875601Y-31515449D01*
X145821309Y-31492905D01*
X145579750Y-31492695D01*
X145356498Y-31584941D01*
X145185541Y-31755600D01*
X145092905Y-31978691D01*
X145092695Y-32220250D01*
X144456000Y-32220250D01*
X144456000Y-29134865D01*
X149218882Y-29134865D01*
X149322339Y-29385252D01*
X149513741Y-29576987D01*
X149763946Y-29680882D01*
X149995050Y-29681083D01*
X149919118Y-29863946D01*
X149918882Y-30134865D01*
X150022339Y-30385252D01*
X150213741Y-30576987D01*
X150463946Y-30680882D01*
X150734865Y-30681118D01*
X150985252Y-30577661D01*
X151176987Y-30386259D01*
X151280882Y-30136054D01*
X151281118Y-29865135D01*
X151177661Y-29614748D01*
X150986259Y-29423013D01*
X150736054Y-29319118D01*
X150504950Y-29318917D01*
X150580882Y-29136054D01*
X150581118Y-28865135D01*
X150477661Y-28614748D01*
X150286259Y-28423013D01*
X150036054Y-28319118D01*
X149765135Y-28318882D01*
X149514748Y-28422339D01*
X149323013Y-28613741D01*
X149219118Y-28863946D01*
X149218882Y-29134865D01*
X144456000Y-29134865D01*
X144456000Y-25434865D01*
X153618882Y-25434865D01*
X153722339Y-25685252D01*
X153913741Y-25876987D01*
X153968988Y-25899928D01*
X153914748Y-25922339D01*
X153723013Y-26113741D01*
X153619118Y-26363946D01*
X153618882Y-26634865D01*
X153722339Y-26885252D01*
X153913741Y-27076987D01*
X154163946Y-27180882D01*
X154434865Y-27181118D01*
X154685252Y-27077661D01*
X154876987Y-26886259D01*
X154980882Y-26636054D01*
X154981118Y-26365135D01*
X154877661Y-26114748D01*
X154686259Y-25923013D01*
X154631012Y-25900072D01*
X154685252Y-25877661D01*
X154876987Y-25686259D01*
X154980882Y-25436054D01*
X154980883Y-25434865D01*
X155118882Y-25434865D01*
X155222339Y-25685252D01*
X155372416Y-25835590D01*
X155319118Y-25963946D01*
X155318882Y-26234865D01*
X155422339Y-26485252D01*
X155613741Y-26676987D01*
X155863946Y-26780882D01*
X156134865Y-26781118D01*
X156385252Y-26677661D01*
X156576987Y-26486259D01*
X156619100Y-26384841D01*
X156618882Y-26634865D01*
X156722339Y-26885252D01*
X156913741Y-27076987D01*
X157163946Y-27180882D01*
X157434865Y-27181118D01*
X157685252Y-27077661D01*
X157876987Y-26886259D01*
X157980882Y-26636054D01*
X157980883Y-26634865D01*
X158018882Y-26634865D01*
X158122339Y-26885252D01*
X158313741Y-27076987D01*
X158563946Y-27180882D01*
X158834865Y-27181118D01*
X159085252Y-27077661D01*
X159276987Y-26886259D01*
X159380882Y-26636054D01*
X159381118Y-26365135D01*
X159277661Y-26114748D01*
X159086259Y-25923013D01*
X159080888Y-25920783D01*
X159185252Y-25877661D01*
X159376987Y-25686259D01*
X159439851Y-25534865D01*
X159518882Y-25534865D01*
X159622339Y-25785252D01*
X159786920Y-25950119D01*
X159623013Y-26113741D01*
X159519118Y-26363946D01*
X159518882Y-26634865D01*
X159622339Y-26885252D01*
X159813741Y-27076987D01*
X160063946Y-27180882D01*
X160334865Y-27181118D01*
X160585252Y-27077661D01*
X160776987Y-26886259D01*
X160880882Y-26636054D01*
X160881118Y-26365135D01*
X160777661Y-26114748D01*
X160613080Y-25949881D01*
X160649945Y-25913080D01*
X160713741Y-25976987D01*
X160963946Y-26080882D01*
X161053577Y-26080960D01*
X161019118Y-26163946D01*
X161018882Y-26434865D01*
X161122339Y-26685252D01*
X161313741Y-26876987D01*
X161563946Y-26980882D01*
X161834865Y-26981118D01*
X162085252Y-26877661D01*
X162276987Y-26686259D01*
X162362232Y-26480968D01*
X162519016Y-26481104D01*
X162518882Y-26634865D01*
X162622339Y-26885252D01*
X162813741Y-27076987D01*
X163063946Y-27180882D01*
X163334865Y-27181118D01*
X163585252Y-27077661D01*
X163776987Y-26886259D01*
X163880882Y-26636054D01*
X163881118Y-26365135D01*
X163777661Y-26114748D01*
X163586259Y-25923013D01*
X163336054Y-25819118D01*
X163080984Y-25818896D01*
X163081118Y-25665135D01*
X162977661Y-25414748D01*
X162897917Y-25334865D01*
X164018882Y-25334865D01*
X164122339Y-25585252D01*
X164313741Y-25776987D01*
X164489698Y-25850051D01*
X164314748Y-25922339D01*
X164123013Y-26113741D01*
X164019118Y-26363946D01*
X164018882Y-26634865D01*
X164122339Y-26885252D01*
X164313741Y-27076987D01*
X164563946Y-27180882D01*
X164834865Y-27181118D01*
X165085252Y-27077661D01*
X165276987Y-26886259D01*
X165380882Y-26636054D01*
X165381118Y-26365135D01*
X165277661Y-26114748D01*
X165086259Y-25923013D01*
X164910302Y-25849949D01*
X165085252Y-25777661D01*
X165276987Y-25586259D01*
X165380882Y-25336054D01*
X165381118Y-25065135D01*
X165277661Y-24814748D01*
X165086259Y-24623013D01*
X164836054Y-24519118D01*
X164565135Y-24518882D01*
X164314748Y-24622339D01*
X164123013Y-24813741D01*
X164019118Y-25063946D01*
X164018882Y-25334865D01*
X162897917Y-25334865D01*
X162786259Y-25223013D01*
X162536054Y-25119118D01*
X162265135Y-25118882D01*
X162014748Y-25222339D01*
X161823013Y-25413741D01*
X161780900Y-25515159D01*
X161781118Y-25265135D01*
X161677661Y-25014748D01*
X161486259Y-24823013D01*
X161236054Y-24719118D01*
X160965135Y-24718882D01*
X160714748Y-24822339D01*
X160650055Y-24886920D01*
X160586259Y-24823013D01*
X160336054Y-24719118D01*
X160065135Y-24718882D01*
X159814748Y-24822339D01*
X159623013Y-25013741D01*
X159519118Y-25263946D01*
X159518882Y-25534865D01*
X159439851Y-25534865D01*
X159480882Y-25436054D01*
X159481118Y-25165135D01*
X159377661Y-24914748D01*
X159186259Y-24723013D01*
X158936054Y-24619118D01*
X158665135Y-24618882D01*
X158414748Y-24722339D01*
X158223013Y-24913741D01*
X158119118Y-25163946D01*
X158118882Y-25434865D01*
X158222339Y-25685252D01*
X158413741Y-25876987D01*
X158419112Y-25879217D01*
X158314748Y-25922339D01*
X158123013Y-26113741D01*
X158019118Y-26363946D01*
X158018882Y-26634865D01*
X157980883Y-26634865D01*
X157981118Y-26365135D01*
X157877661Y-26114748D01*
X157686259Y-25923013D01*
X157631012Y-25900072D01*
X157685252Y-25877661D01*
X157876987Y-25686259D01*
X157980882Y-25436054D01*
X157981118Y-25165135D01*
X157877661Y-24914748D01*
X157686259Y-24723013D01*
X157436054Y-24619118D01*
X157165135Y-24618882D01*
X156914748Y-24722339D01*
X156723013Y-24913741D01*
X156619118Y-25163946D01*
X156618882Y-25434865D01*
X156722339Y-25685252D01*
X156913741Y-25876987D01*
X156968988Y-25899928D01*
X156914748Y-25922339D01*
X156723013Y-26113741D01*
X156680900Y-26215159D01*
X156681118Y-25965135D01*
X156577661Y-25714748D01*
X156427584Y-25564410D01*
X156480882Y-25436054D01*
X156481118Y-25165135D01*
X156377661Y-24914748D01*
X156186259Y-24723013D01*
X155936054Y-24619118D01*
X155665135Y-24618882D01*
X155414748Y-24722339D01*
X155223013Y-24913741D01*
X155119118Y-25163946D01*
X155118882Y-25434865D01*
X154980883Y-25434865D01*
X154981118Y-25165135D01*
X154877661Y-24914748D01*
X154686259Y-24723013D01*
X154436054Y-24619118D01*
X154165135Y-24618882D01*
X153914748Y-24722339D01*
X153723013Y-24913741D01*
X153619118Y-25163946D01*
X153618882Y-25434865D01*
X144456000Y-25434865D01*
X144456000Y-24235880D01*
X144943725Y-24235880D01*
X145225421Y-24658564D01*
X146377892Y-25135294D01*
X147625072Y-25134705D01*
X148774579Y-24658564D01*
X149056275Y-24235880D01*
X147000000Y-22179605D01*
X144943725Y-24235880D01*
X144456000Y-24235880D01*
X144456000Y-23850930D01*
X144764120Y-24056275D01*
X146820395Y-22000000D01*
X147179605Y-22000000D01*
X149235880Y-24056275D01*
X149658564Y-23774579D01*
X150135294Y-22622108D01*
X150134705Y-21374928D01*
X149658564Y-20225421D01*
X149235880Y-19943725D01*
X147179605Y-22000000D01*
X146820395Y-22000000D01*
X144764120Y-19943725D01*
X144456000Y-20149070D01*
X144456000Y-19456000D01*
X145149070Y-19456000D01*
X144943725Y-19764120D01*
X144943725Y-19764120D01*
G37*
X144943725Y-19764120D02*
X147000000Y-21820395D01*
X149056275Y-19764120D01*
X148850930Y-19456000D01*
X152973000Y-19456000D01*
X152973000Y-20900000D01*
X152983006Y-20949410D01*
X153011447Y-20991035D01*
X153053841Y-21018315D01*
X153100000Y-21027000D01*
X154997572Y-21027000D01*
X154997572Y-21471000D01*
X157202429Y-21471000D01*
X157202429Y-21027000D01*
X157900000Y-21027000D01*
X157949410Y-21016994D01*
X157991035Y-20988553D01*
X158018315Y-20946159D01*
X158027000Y-20900000D01*
X158027000Y-20534865D01*
X161818882Y-20534865D01*
X161922339Y-20785252D01*
X162113741Y-20976987D01*
X162363946Y-21080882D01*
X162634865Y-21081118D01*
X162885252Y-20977661D01*
X163076987Y-20786259D01*
X163180882Y-20536054D01*
X163181118Y-20265135D01*
X163077661Y-20014748D01*
X162886259Y-19823013D01*
X162636054Y-19719118D01*
X162365135Y-19718882D01*
X162114748Y-19822339D01*
X161923013Y-20013741D01*
X161819118Y-20263946D01*
X161818882Y-20534865D01*
X158027000Y-20534865D01*
X158027000Y-19456000D01*
X167544000Y-19456000D01*
X167544000Y-55149070D01*
X167235880Y-54943725D01*
X165179605Y-57000000D01*
X167235880Y-59056275D01*
X167544000Y-58850930D01*
X167544000Y-59544000D01*
X166850930Y-59544000D01*
X167056275Y-59235880D01*
X165000000Y-57179605D01*
X162943725Y-59235880D01*
X163149070Y-59544000D01*
X144456000Y-59544000D01*
X144456000Y-57220250D01*
X147592695Y-57220250D01*
X147684941Y-57443502D01*
X147855600Y-57614459D01*
X148078691Y-57707095D01*
X148320250Y-57707305D01*
X148543502Y-57615059D01*
X148549862Y-57608711D01*
X148555600Y-57614459D01*
X148778691Y-57707095D01*
X149020250Y-57707305D01*
X149243502Y-57615059D01*
X149414459Y-57444400D01*
X149507095Y-57221309D01*
X149507095Y-57220250D01*
X152092695Y-57220250D01*
X152184941Y-57443502D01*
X152355600Y-57614459D01*
X152578691Y-57707095D01*
X152820250Y-57707305D01*
X153043502Y-57615059D01*
X153214459Y-57444400D01*
X153307095Y-57221309D01*
X153307257Y-57034865D01*
X156118882Y-57034865D01*
X156222339Y-57285252D01*
X156413741Y-57476987D01*
X156663946Y-57580882D01*
X156934865Y-57581118D01*
X157150222Y-57492135D01*
X157363946Y-57580882D01*
X157634865Y-57581118D01*
X157885252Y-57477661D01*
X158076987Y-57286259D01*
X158180882Y-57036054D01*
X158181118Y-56765135D01*
X158077661Y-56514748D01*
X157941043Y-56377892D01*
X161864706Y-56377892D01*
X161865295Y-57625072D01*
X162341436Y-58774579D01*
X162764120Y-59056275D01*
X164820395Y-57000000D01*
X162764120Y-54943725D01*
X162341436Y-55225421D01*
X161864706Y-56377892D01*
X157941043Y-56377892D01*
X157886259Y-56323013D01*
X157781019Y-56279313D01*
X157781118Y-56165135D01*
X157677661Y-55914748D01*
X157486259Y-55723013D01*
X157236054Y-55619118D01*
X156965135Y-55618882D01*
X156714748Y-55722339D01*
X156523013Y-55913741D01*
X156419118Y-56163946D01*
X156418982Y-56320590D01*
X156414748Y-56322339D01*
X156223013Y-56513741D01*
X156119118Y-56763946D01*
X156118882Y-57034865D01*
X153307257Y-57034865D01*
X153307305Y-56979750D01*
X153215059Y-56756498D01*
X153044400Y-56585541D01*
X152821309Y-56492905D01*
X152579750Y-56492695D01*
X152356498Y-56584941D01*
X152185541Y-56755600D01*
X152092905Y-56978691D01*
X152092695Y-57220250D01*
X149507095Y-57220250D01*
X149507305Y-56979750D01*
X149415059Y-56756498D01*
X149244400Y-56585541D01*
X149021309Y-56492905D01*
X148779750Y-56492695D01*
X148556498Y-56584941D01*
X148550138Y-56591289D01*
X148544400Y-56585541D01*
X148321309Y-56492905D01*
X148079750Y-56492695D01*
X147856498Y-56584941D01*
X147685541Y-56755600D01*
X147592905Y-56978691D01*
X147592695Y-57220250D01*
X144456000Y-57220250D01*
X144456000Y-54420250D01*
X159792695Y-54420250D01*
X159884941Y-54643502D01*
X160055600Y-54814459D01*
X160278691Y-54907095D01*
X160520250Y-54907305D01*
X160743502Y-54815059D01*
X160794529Y-54764120D01*
X162943725Y-54764120D01*
X165000000Y-56820395D01*
X167056275Y-54764120D01*
X166774579Y-54341436D01*
X165622108Y-53864706D01*
X164374928Y-53865295D01*
X163225421Y-54341436D01*
X162943725Y-54764120D01*
X160794529Y-54764120D01*
X160914459Y-54644400D01*
X161007095Y-54421309D01*
X161007305Y-54179750D01*
X160915059Y-53956498D01*
X160744400Y-53785541D01*
X160521309Y-53692905D01*
X160279750Y-53692695D01*
X160056498Y-53784941D01*
X159885541Y-53955600D01*
X159792905Y-54178691D01*
X159792695Y-54420250D01*
X144456000Y-54420250D01*
X144456000Y-53234865D01*
X146018882Y-53234865D01*
X146122339Y-53485252D01*
X146313741Y-53676987D01*
X146563946Y-53780882D01*
X146834865Y-53781118D01*
X147085252Y-53677661D01*
X147276987Y-53486259D01*
X147298327Y-53434865D01*
X150518882Y-53434865D01*
X150622339Y-53685252D01*
X150813741Y-53876987D01*
X151063946Y-53980882D01*
X151334865Y-53981118D01*
X151585252Y-53877661D01*
X151776987Y-53686259D01*
X151880882Y-53436054D01*
X151881118Y-53165135D01*
X151777661Y-52914748D01*
X151586259Y-52723013D01*
X151336054Y-52619118D01*
X151065135Y-52618882D01*
X150814748Y-52722339D01*
X150623013Y-52913741D01*
X150519118Y-53163946D01*
X150518882Y-53434865D01*
X147298327Y-53434865D01*
X147380882Y-53236054D01*
X147381118Y-52965135D01*
X147277661Y-52714748D01*
X147086259Y-52523013D01*
X146836054Y-52419118D01*
X146565135Y-52418882D01*
X146314748Y-52522339D01*
X146123013Y-52713741D01*
X146019118Y-52963946D01*
X146018882Y-53234865D01*
X144456000Y-53234865D01*
X144456000Y-50634865D01*
X160518882Y-50634865D01*
X160622339Y-50885252D01*
X160813741Y-51076987D01*
X161063946Y-51180882D01*
X161334865Y-51181118D01*
X161585252Y-51077661D01*
X161776987Y-50886259D01*
X161880882Y-50636054D01*
X161881118Y-50365135D01*
X161777661Y-50114748D01*
X161586259Y-49923013D01*
X161373977Y-49834865D01*
X162618882Y-49834865D01*
X162722339Y-50085252D01*
X162913741Y-50276987D01*
X163163946Y-50380882D01*
X163434865Y-50381118D01*
X163685252Y-50277661D01*
X163876987Y-50086259D01*
X163980882Y-49836054D01*
X163981118Y-49565135D01*
X163877661Y-49314748D01*
X163686259Y-49123013D01*
X163436054Y-49019118D01*
X163165135Y-49018882D01*
X162914748Y-49122339D01*
X162723013Y-49313741D01*
X162619118Y-49563946D01*
X162618882Y-49834865D01*
X161373977Y-49834865D01*
X161336054Y-49819118D01*
X161065135Y-49818882D01*
X160814748Y-49922339D01*
X160623013Y-50113741D01*
X160519118Y-50363946D01*
X160518882Y-50634865D01*
X144456000Y-50634865D01*
X144456000Y-48888250D01*
X155094695Y-48888250D01*
X155186941Y-49111502D01*
X155357600Y-49282459D01*
X155580691Y-49375095D01*
X155822250Y-49375305D01*
X156045502Y-49283059D01*
X156216459Y-49112400D01*
X156309095Y-48889309D01*
X156309155Y-48820250D01*
X160737885Y-48820250D01*
X160830131Y-49043502D01*
X161000790Y-49214459D01*
X161223881Y-49307095D01*
X161465440Y-49307305D01*
X161688692Y-49215059D01*
X161822679Y-49081306D01*
X161955600Y-49214459D01*
X162178691Y-49307095D01*
X162420250Y-49307305D01*
X162643502Y-49215059D01*
X162814459Y-49044400D01*
X162907095Y-48821309D01*
X162907305Y-48579750D01*
X162815059Y-48356498D01*
X162644400Y-48185541D01*
X162421309Y-48092905D01*
X162179750Y-48092695D01*
X161956498Y-48184941D01*
X161822511Y-48318694D01*
X161689590Y-48185541D01*
X161466499Y-48092905D01*
X161224940Y-48092695D01*
X161001688Y-48184941D01*
X160830731Y-48355600D01*
X160738095Y-48578691D01*
X160737885Y-48820250D01*
X156309155Y-48820250D01*
X156309305Y-48647750D01*
X156217059Y-48424498D01*
X156046400Y-48253541D01*
X155823309Y-48160905D01*
X155581750Y-48160695D01*
X155358498Y-48252941D01*
X155187541Y-48423600D01*
X155094905Y-48646691D01*
X155094695Y-48888250D01*
X144456000Y-48888250D01*
X144456000Y-48034865D01*
X144818882Y-48034865D01*
X144922339Y-48285252D01*
X145113741Y-48476987D01*
X145363946Y-48580882D01*
X145634865Y-48581118D01*
X145885252Y-48477661D01*
X146076987Y-48286259D01*
X146180882Y-48036054D01*
X146181118Y-47765135D01*
X146126466Y-47632865D01*
X146130882Y-47632865D01*
X146234339Y-47883252D01*
X146425741Y-48074987D01*
X146675946Y-48178882D01*
X146946865Y-48179118D01*
X147197252Y-48075661D01*
X147388987Y-47884259D01*
X147450520Y-47736072D01*
X147613741Y-47899577D01*
X147863946Y-48003472D01*
X148134865Y-48003708D01*
X148385252Y-47900251D01*
X148576987Y-47708849D01*
X148680882Y-47458644D01*
X148681118Y-47187725D01*
X148577661Y-46937338D01*
X148386259Y-46745603D01*
X148136054Y-46641708D01*
X147865135Y-46641472D01*
X147614748Y-46744929D01*
X147423013Y-46936331D01*
X147361480Y-47084518D01*
X147198259Y-46921013D01*
X146948054Y-46817118D01*
X146677135Y-46816882D01*
X146426748Y-46920339D01*
X146235013Y-47111741D01*
X146131118Y-47361946D01*
X146130882Y-47632865D01*
X146126466Y-47632865D01*
X146077661Y-47514748D01*
X145886259Y-47323013D01*
X145636054Y-47219118D01*
X145365135Y-47218882D01*
X145114748Y-47322339D01*
X144923013Y-47513741D01*
X144819118Y-47763946D01*
X144818882Y-48034865D01*
X144456000Y-48034865D01*
X144456000Y-46126400D01*
X149115936Y-46126400D01*
X149115936Y-48361600D01*
X149142503Y-48502790D01*
X149225946Y-48632465D01*
X149353266Y-48719459D01*
X149504400Y-48750064D01*
X151739600Y-48750064D01*
X151880790Y-48723497D01*
X152010465Y-48640054D01*
X152097459Y-48512734D01*
X152128064Y-48361600D01*
X152128064Y-46856250D01*
X160426093Y-46856250D01*
X160518339Y-47079502D01*
X160688998Y-47250459D01*
X160912089Y-47343095D01*
X161153648Y-47343305D01*
X161376900Y-47251059D01*
X161547857Y-47080400D01*
X161640493Y-46857309D01*
X161640493Y-46856250D01*
X161926093Y-46856250D01*
X162018339Y-47079502D01*
X162188998Y-47250459D01*
X162412089Y-47343095D01*
X162653648Y-47343305D01*
X162876900Y-47251059D01*
X163047857Y-47080400D01*
X163140493Y-46857309D01*
X163140703Y-46615750D01*
X163048457Y-46392498D01*
X162877798Y-46221541D01*
X162654707Y-46128905D01*
X162413148Y-46128695D01*
X162189896Y-46220941D01*
X162018939Y-46391600D01*
X161926303Y-46614691D01*
X161926093Y-46856250D01*
X161640493Y-46856250D01*
X161640703Y-46615750D01*
X161548457Y-46392498D01*
X161377798Y-46221541D01*
X161154707Y-46128905D01*
X160913148Y-46128695D01*
X160689896Y-46220941D01*
X160518939Y-46391600D01*
X160426303Y-46614691D01*
X160426093Y-46856250D01*
X152128064Y-46856250D01*
X152128064Y-46126400D01*
X152124765Y-46108865D01*
X154258882Y-46108865D01*
X154362339Y-46359252D01*
X154553741Y-46550987D01*
X154803946Y-46654882D01*
X155074865Y-46655118D01*
X155325252Y-46551661D01*
X155516987Y-46360259D01*
X155620882Y-46110054D01*
X155621118Y-45839135D01*
X155517661Y-45588748D01*
X155515168Y-45586250D01*
X163426093Y-45586250D01*
X163518339Y-45809502D01*
X163688998Y-45980459D01*
X163912089Y-46073095D01*
X164153648Y-46073305D01*
X164376900Y-45981059D01*
X164547857Y-45810400D01*
X164640493Y-45587309D01*
X164640703Y-45345750D01*
X164548457Y-45122498D01*
X164377798Y-44951541D01*
X164154707Y-44858905D01*
X163913148Y-44858695D01*
X163689896Y-44950941D01*
X163518939Y-45121600D01*
X163426303Y-45344691D01*
X163426093Y-45586250D01*
X155515168Y-45586250D01*
X155326259Y-45397013D01*
X155076054Y-45293118D01*
X154805135Y-45292882D01*
X154554748Y-45396339D01*
X154363013Y-45587741D01*
X154259118Y-45837946D01*
X154258882Y-46108865D01*
X152124765Y-46108865D01*
X152101497Y-45985210D01*
X152018054Y-45855535D01*
X151890734Y-45768541D01*
X151739600Y-45737936D01*
X149504400Y-45737936D01*
X149363210Y-45764503D01*
X149233535Y-45847946D01*
X149146541Y-45975266D01*
X149115936Y-46126400D01*
X144456000Y-46126400D01*
X144456000Y-45028670D01*
X155856695Y-45028670D01*
X155948941Y-45251922D01*
X156119600Y-45422879D01*
X156342691Y-45515515D01*
X156584250Y-45515725D01*
X156807502Y-45423479D01*
X156978459Y-45252820D01*
X157071095Y-45029729D01*
X157071305Y-44788170D01*
X156979059Y-44564918D01*
X156808400Y-44393961D01*
X156585309Y-44301325D01*
X156343750Y-44301115D01*
X156120498Y-44393361D01*
X155949541Y-44564020D01*
X155856905Y-44787111D01*
X155856695Y-45028670D01*
X144456000Y-45028670D01*
X144456000Y-43756149D01*
X144578691Y-43807095D01*
X144820250Y-43807305D01*
X144946541Y-43755122D01*
X145105600Y-43914459D01*
X145328691Y-44007095D01*
X145570250Y-44007305D01*
X145793502Y-43915059D01*
X145900497Y-43808250D01*
X149760695Y-43808250D01*
X149852941Y-44031502D01*
X150023600Y-44202459D01*
X150246691Y-44295095D01*
X150488250Y-44295305D01*
X150711502Y-44203059D01*
X150882459Y-44032400D01*
X150975095Y-43809309D01*
X150975305Y-43567750D01*
X150883059Y-43344498D01*
X150712400Y-43173541D01*
X150584062Y-43120250D01*
X153692695Y-43120250D01*
X153784941Y-43343502D01*
X153955600Y-43514459D01*
X154178691Y-43607095D01*
X154420250Y-43607305D01*
X154643502Y-43515059D01*
X154814459Y-43344400D01*
X154859942Y-43234865D01*
X157018882Y-43234865D01*
X157122339Y-43485252D01*
X157313741Y-43676987D01*
X157563946Y-43780882D01*
X157834865Y-43781118D01*
X158085252Y-43677661D01*
X158276987Y-43486259D01*
X158380882Y-43236054D01*
X158381047Y-43046250D01*
X163984695Y-43046250D01*
X164076941Y-43269502D01*
X164247600Y-43440459D01*
X164470691Y-43533095D01*
X164712250Y-43533305D01*
X164935502Y-43441059D01*
X165106459Y-43270400D01*
X165194745Y-43057784D01*
X165313741Y-43176987D01*
X165563946Y-43280882D01*
X165834865Y-43281118D01*
X166085252Y-43177661D01*
X166276987Y-42986259D01*
X166380882Y-42736054D01*
X166381118Y-42465135D01*
X166277661Y-42214748D01*
X166212993Y-42149968D01*
X166376987Y-41986259D01*
X166480882Y-41736054D01*
X166481118Y-41465135D01*
X166377661Y-41214748D01*
X166186259Y-41023013D01*
X165936054Y-40919118D01*
X165665135Y-40918882D01*
X165414748Y-41022339D01*
X165223013Y-41213741D01*
X165119118Y-41463946D01*
X165118882Y-41734865D01*
X165222339Y-41985252D01*
X165287007Y-42050032D01*
X165123013Y-42213741D01*
X165019118Y-42463946D01*
X165019091Y-42494377D01*
X164936400Y-42411541D01*
X164713309Y-42318905D01*
X164471750Y-42318695D01*
X164248498Y-42410941D01*
X164077541Y-42581600D01*
X163984905Y-42804691D01*
X163984695Y-43046250D01*
X158381047Y-43046250D01*
X158381118Y-42965135D01*
X158277661Y-42714748D01*
X158086259Y-42523013D01*
X157836054Y-42419118D01*
X157565135Y-42418882D01*
X157314748Y-42522339D01*
X157123013Y-42713741D01*
X157019118Y-42963946D01*
X157018882Y-43234865D01*
X154859942Y-43234865D01*
X154907095Y-43121309D01*
X154907305Y-42879750D01*
X154815059Y-42656498D01*
X154644400Y-42485541D01*
X154421309Y-42392905D01*
X154179750Y-42392695D01*
X153956498Y-42484941D01*
X153785541Y-42655600D01*
X153692905Y-42878691D01*
X153692695Y-43120250D01*
X150584062Y-43120250D01*
X150489309Y-43080905D01*
X150247750Y-43080695D01*
X150024498Y-43172941D01*
X149853541Y-43343600D01*
X149760905Y-43566691D01*
X149760695Y-43808250D01*
X145900497Y-43808250D01*
X145964459Y-43744400D01*
X145980844Y-43704941D01*
X146178691Y-43787095D01*
X146420250Y-43787305D01*
X146643502Y-43695059D01*
X146814459Y-43524400D01*
X146907095Y-43301309D01*
X146907305Y-43059750D01*
X146815059Y-42836498D01*
X146644400Y-42665541D01*
X146421309Y-42572905D01*
X146179750Y-42572695D01*
X145956498Y-42664941D01*
X145785541Y-42835600D01*
X145769156Y-42875059D01*
X145571309Y-42792905D01*
X145329750Y-42792695D01*
X145203459Y-42844878D01*
X145044400Y-42685541D01*
X144821309Y-42592905D01*
X144579750Y-42592695D01*
X144456000Y-42643828D01*
X144456000Y-40334865D01*
X151518882Y-40334865D01*
X151622339Y-40585252D01*
X151813741Y-40776987D01*
X152063946Y-40880882D01*
X152334865Y-40881118D01*
X152585252Y-40777661D01*
X152776987Y-40586259D01*
X152880882Y-40336054D01*
X152881118Y-40065135D01*
X152777661Y-39814748D01*
X152586259Y-39623013D01*
X152336054Y-39519118D01*
X152065135Y-39518882D01*
X151814748Y-39622339D01*
X151623013Y-39813741D01*
X151519118Y-40063946D01*
X151518882Y-40334865D01*
X144456000Y-40334865D01*
X144456000Y-37334865D01*
X153618882Y-37334865D01*
X153722339Y-37585252D01*
X153913741Y-37776987D01*
X153968988Y-37799928D01*
X153914748Y-37822339D01*
X153723013Y-38013741D01*
X153619118Y-38263946D01*
X153618882Y-38534865D01*
X153722339Y-38785252D01*
X153913741Y-38976987D01*
X154163946Y-39080882D01*
X154434865Y-39081118D01*
X154685252Y-38977661D01*
X154876987Y-38786259D01*
X154980882Y-38536054D01*
X154981118Y-38265135D01*
X154877661Y-38014748D01*
X154686259Y-37823013D01*
X154631012Y-37800072D01*
X154685252Y-37777661D01*
X154876987Y-37586259D01*
X154980882Y-37336054D01*
X154980883Y-37334865D01*
X155118882Y-37334865D01*
X155222339Y-37585252D01*
X155413741Y-37776987D01*
X155468988Y-37799928D01*
X155414748Y-37822339D01*
X155223013Y-38013741D01*
X155119118Y-38263946D01*
X155118882Y-38534865D01*
X155222339Y-38785252D01*
X155413741Y-38976987D01*
X155663946Y-39080882D01*
X155934865Y-39081118D01*
X156185252Y-38977661D01*
X156376987Y-38786259D01*
X156480882Y-38536054D01*
X156481118Y-38265135D01*
X156377661Y-38014748D01*
X156186259Y-37823013D01*
X156131012Y-37800072D01*
X156185252Y-37777661D01*
X156376987Y-37586259D01*
X156480882Y-37336054D01*
X156480883Y-37334865D01*
X156618882Y-37334865D01*
X156722339Y-37585252D01*
X156913741Y-37776987D01*
X156968988Y-37799928D01*
X156914748Y-37822339D01*
X156723013Y-38013741D01*
X156619118Y-38263946D01*
X156618882Y-38534865D01*
X156722339Y-38785252D01*
X156913741Y-38976987D01*
X157163946Y-39080882D01*
X157434865Y-39081118D01*
X157685252Y-38977661D01*
X157876987Y-38786259D01*
X157980882Y-38536054D01*
X157981118Y-38265135D01*
X157877661Y-38014748D01*
X157686259Y-37823013D01*
X157631012Y-37800072D01*
X157685252Y-37777661D01*
X157876987Y-37586259D01*
X157899928Y-37531012D01*
X157922339Y-37585252D01*
X158113741Y-37776987D01*
X158287784Y-37849256D01*
X158123013Y-38013741D01*
X158019118Y-38263946D01*
X158018882Y-38534865D01*
X158122339Y-38785252D01*
X158313741Y-38976987D01*
X158563946Y-39080882D01*
X158834865Y-39081118D01*
X159085252Y-38977661D01*
X159276987Y-38786259D01*
X159380882Y-38536054D01*
X159381118Y-38265135D01*
X159277661Y-38014748D01*
X159086259Y-37823013D01*
X158912216Y-37750744D01*
X159076987Y-37586259D01*
X159180882Y-37336054D01*
X159180883Y-37334865D01*
X159518882Y-37334865D01*
X159622339Y-37585252D01*
X159813741Y-37776987D01*
X159868988Y-37799928D01*
X159814748Y-37822339D01*
X159623013Y-38013741D01*
X159519118Y-38263946D01*
X159518882Y-38534865D01*
X159622339Y-38785252D01*
X159813741Y-38976987D01*
X160063946Y-39080882D01*
X160334865Y-39081118D01*
X160585252Y-38977661D01*
X160776987Y-38786259D01*
X160880882Y-38536054D01*
X160881118Y-38265135D01*
X160777661Y-38014748D01*
X160586259Y-37823013D01*
X160531012Y-37800072D01*
X160585252Y-37777661D01*
X160776987Y-37586259D01*
X160799928Y-37531012D01*
X160822339Y-37585252D01*
X161013741Y-37776987D01*
X161258407Y-37878582D01*
X161123013Y-38013741D01*
X161019118Y-38263946D01*
X161018882Y-38534865D01*
X161122339Y-38785252D01*
X161313741Y-38976987D01*
X161563946Y-39080882D01*
X161834865Y-39081118D01*
X162085252Y-38977661D01*
X162276987Y-38786259D01*
X162380882Y-38536054D01*
X162381118Y-38265135D01*
X162277661Y-38014748D01*
X162086259Y-37823013D01*
X161841593Y-37721418D01*
X161850751Y-37712275D01*
X162518882Y-37712275D01*
X162622339Y-37962662D01*
X162648215Y-37988583D01*
X162623013Y-38013741D01*
X162519118Y-38263946D01*
X162518882Y-38534865D01*
X162622339Y-38785252D01*
X162813741Y-38976987D01*
X163063946Y-39080882D01*
X163334865Y-39081118D01*
X163585252Y-38977661D01*
X163776987Y-38786259D01*
X163880882Y-38536054D01*
X163880883Y-38534865D01*
X164018882Y-38534865D01*
X164122339Y-38785252D01*
X164313741Y-38976987D01*
X164563946Y-39080882D01*
X164834865Y-39081118D01*
X165085252Y-38977661D01*
X165276987Y-38786259D01*
X165380882Y-38536054D01*
X165381118Y-38265135D01*
X165277661Y-38014748D01*
X165086259Y-37823013D01*
X164836054Y-37719118D01*
X164565135Y-37718882D01*
X164314748Y-37822339D01*
X164123013Y-38013741D01*
X164019118Y-38263946D01*
X164018882Y-38534865D01*
X163880883Y-38534865D01*
X163881118Y-38265135D01*
X163777661Y-38014748D01*
X163751785Y-37988827D01*
X163776987Y-37963669D01*
X163880882Y-37713464D01*
X163881118Y-37442545D01*
X163777661Y-37192158D01*
X163720468Y-37134865D01*
X164018882Y-37134865D01*
X164122339Y-37385252D01*
X164313741Y-37576987D01*
X164563946Y-37680882D01*
X164834865Y-37681118D01*
X165085252Y-37577661D01*
X165276987Y-37386259D01*
X165380882Y-37136054D01*
X165381057Y-36934865D01*
X165618882Y-36934865D01*
X165722339Y-37185252D01*
X165913741Y-37376987D01*
X166163946Y-37480882D01*
X166434865Y-37481118D01*
X166685252Y-37377661D01*
X166876987Y-37186259D01*
X166980882Y-36936054D01*
X166981118Y-36665135D01*
X166877661Y-36414748D01*
X166686259Y-36223013D01*
X166436054Y-36119118D01*
X166165135Y-36118882D01*
X165914748Y-36222339D01*
X165723013Y-36413741D01*
X165619118Y-36663946D01*
X165618882Y-36934865D01*
X165381057Y-36934865D01*
X165381118Y-36865135D01*
X165277661Y-36614748D01*
X165086259Y-36423013D01*
X164836054Y-36319118D01*
X164565135Y-36318882D01*
X164314748Y-36422339D01*
X164123013Y-36613741D01*
X164019118Y-36863946D01*
X164018882Y-37134865D01*
X163720468Y-37134865D01*
X163586259Y-37000423D01*
X163336054Y-36896528D01*
X163065135Y-36896292D01*
X162814748Y-36999749D01*
X162623013Y-37191151D01*
X162519118Y-37441356D01*
X162518882Y-37712275D01*
X161850751Y-37712275D01*
X161976987Y-37586259D01*
X162080882Y-37336054D01*
X162081118Y-37065135D01*
X161977661Y-36814748D01*
X161786259Y-36623013D01*
X161536054Y-36519118D01*
X161265135Y-36518882D01*
X161014748Y-36622339D01*
X160823013Y-36813741D01*
X160800072Y-36868988D01*
X160777661Y-36814748D01*
X160586259Y-36623013D01*
X160336054Y-36519118D01*
X160065135Y-36518882D01*
X159814748Y-36622339D01*
X159623013Y-36813741D01*
X159519118Y-37063946D01*
X159518882Y-37334865D01*
X159180883Y-37334865D01*
X159181118Y-37065135D01*
X159077661Y-36814748D01*
X158886259Y-36623013D01*
X158636054Y-36519118D01*
X158365135Y-36518882D01*
X158114748Y-36622339D01*
X157923013Y-36813741D01*
X157900072Y-36868988D01*
X157877661Y-36814748D01*
X157686259Y-36623013D01*
X157436054Y-36519118D01*
X157165135Y-36518882D01*
X156914748Y-36622339D01*
X156723013Y-36813741D01*
X156619118Y-37063946D01*
X156618882Y-37334865D01*
X156480883Y-37334865D01*
X156481118Y-37065135D01*
X156377661Y-36814748D01*
X156186259Y-36623013D01*
X155936054Y-36519118D01*
X155665135Y-36518882D01*
X155414748Y-36622339D01*
X155223013Y-36813741D01*
X155119118Y-37063946D01*
X155118882Y-37334865D01*
X154980883Y-37334865D01*
X154981118Y-37065135D01*
X154877661Y-36814748D01*
X154686259Y-36623013D01*
X154436054Y-36519118D01*
X154165135Y-36518882D01*
X153914748Y-36622339D01*
X153723013Y-36813741D01*
X153619118Y-37063946D01*
X153618882Y-37334865D01*
X144456000Y-37334865D01*
X144456000Y-34920250D01*
X150192695Y-34920250D01*
X150284941Y-35143502D01*
X150455600Y-35314459D01*
X150678691Y-35407095D01*
X150920250Y-35407305D01*
X151143502Y-35315059D01*
X151314459Y-35144400D01*
X151407095Y-34921309D01*
X151407305Y-34679750D01*
X151315059Y-34456498D01*
X151144400Y-34285541D01*
X150921309Y-34192905D01*
X150679750Y-34192695D01*
X150456498Y-34284941D01*
X150285541Y-34455600D01*
X150192905Y-34678691D01*
X150192695Y-34920250D01*
X144456000Y-34920250D01*
X144456000Y-32920250D01*
X150192695Y-32920250D01*
X150284941Y-33143502D01*
X150455600Y-33314459D01*
X150678691Y-33407095D01*
X150920250Y-33407305D01*
X151143502Y-33315059D01*
X151314459Y-33144400D01*
X151407095Y-32921309D01*
X151407305Y-32679750D01*
X151315059Y-32456498D01*
X151144400Y-32285541D01*
X150921309Y-32192905D01*
X150679750Y-32192695D01*
X150456498Y-32284941D01*
X150285541Y-32455600D01*
X150192905Y-32678691D01*
X150192695Y-32920250D01*
X144456000Y-32920250D01*
X144456000Y-32220250D01*
X145092695Y-32220250D01*
X145184941Y-32443502D01*
X145355600Y-32614459D01*
X145578691Y-32707095D01*
X145820250Y-32707305D01*
X146043502Y-32615059D01*
X146214459Y-32444400D01*
X146307095Y-32221309D01*
X146307305Y-31979750D01*
X146215059Y-31756498D01*
X146044400Y-31585541D01*
X145875601Y-31515449D01*
X149592704Y-31515449D01*
X149684950Y-31738701D01*
X149855609Y-31909658D01*
X150078700Y-32002294D01*
X150320259Y-32002504D01*
X150543511Y-31910258D01*
X150714468Y-31739599D01*
X150716433Y-31734865D01*
X158418882Y-31734865D01*
X158522339Y-31985252D01*
X158713741Y-32176987D01*
X158963946Y-32280882D01*
X159234865Y-32281118D01*
X159485252Y-32177661D01*
X159676987Y-31986259D01*
X159745920Y-31820250D01*
X161392695Y-31820250D01*
X161484941Y-32043502D01*
X161655600Y-32214459D01*
X161819102Y-32282351D01*
X161818882Y-32534865D01*
X161922339Y-32785252D01*
X162113741Y-32976987D01*
X162363946Y-33080882D01*
X162634865Y-33081118D01*
X162885252Y-32977661D01*
X163076987Y-32786259D01*
X163180882Y-32536054D01*
X163181118Y-32265135D01*
X163077661Y-32014748D01*
X162886259Y-31823013D01*
X162636054Y-31719118D01*
X162607184Y-31719093D01*
X162607305Y-31579750D01*
X162515059Y-31356498D01*
X162344400Y-31185541D01*
X162121309Y-31092905D01*
X161879750Y-31092695D01*
X161656498Y-31184941D01*
X161485541Y-31355600D01*
X161392905Y-31578691D01*
X161392695Y-31820250D01*
X159745920Y-31820250D01*
X159780882Y-31736054D01*
X159781118Y-31465135D01*
X159677661Y-31214748D01*
X159486259Y-31023013D01*
X159236054Y-30919118D01*
X158965135Y-30918882D01*
X158714748Y-31022339D01*
X158523013Y-31213741D01*
X158419118Y-31463946D01*
X158418882Y-31734865D01*
X150716433Y-31734865D01*
X150807104Y-31516508D01*
X150807314Y-31274949D01*
X150715068Y-31051697D01*
X150683676Y-31020250D01*
X152492695Y-31020250D01*
X152584941Y-31243502D01*
X152755600Y-31414459D01*
X152978691Y-31507095D01*
X153220250Y-31507305D01*
X153443502Y-31415059D01*
X153614459Y-31244400D01*
X153707095Y-31021309D01*
X153707305Y-30779750D01*
X153615059Y-30556498D01*
X153444400Y-30385541D01*
X153221309Y-30292905D01*
X152979750Y-30292695D01*
X152756498Y-30384941D01*
X152585541Y-30555600D01*
X152492905Y-30778691D01*
X152492695Y-31020250D01*
X150683676Y-31020250D01*
X150544409Y-30880740D01*
X150321318Y-30788104D01*
X150079759Y-30787894D01*
X149856507Y-30880140D01*
X149685550Y-31050799D01*
X149592914Y-31273890D01*
X149592704Y-31515449D01*
X145875601Y-31515449D01*
X145821309Y-31492905D01*
X145579750Y-31492695D01*
X145356498Y-31584941D01*
X145185541Y-31755600D01*
X145092905Y-31978691D01*
X145092695Y-32220250D01*
X144456000Y-32220250D01*
X144456000Y-29134865D01*
X149218882Y-29134865D01*
X149322339Y-29385252D01*
X149513741Y-29576987D01*
X149763946Y-29680882D01*
X149995050Y-29681083D01*
X149919118Y-29863946D01*
X149918882Y-30134865D01*
X150022339Y-30385252D01*
X150213741Y-30576987D01*
X150463946Y-30680882D01*
X150734865Y-30681118D01*
X150985252Y-30577661D01*
X151176987Y-30386259D01*
X151280882Y-30136054D01*
X151281118Y-29865135D01*
X151177661Y-29614748D01*
X150986259Y-29423013D01*
X150736054Y-29319118D01*
X150504950Y-29318917D01*
X150580882Y-29136054D01*
X150581118Y-28865135D01*
X150477661Y-28614748D01*
X150286259Y-28423013D01*
X150036054Y-28319118D01*
X149765135Y-28318882D01*
X149514748Y-28422339D01*
X149323013Y-28613741D01*
X149219118Y-28863946D01*
X149218882Y-29134865D01*
X144456000Y-29134865D01*
X144456000Y-25434865D01*
X153618882Y-25434865D01*
X153722339Y-25685252D01*
X153913741Y-25876987D01*
X153968988Y-25899928D01*
X153914748Y-25922339D01*
X153723013Y-26113741D01*
X153619118Y-26363946D01*
X153618882Y-26634865D01*
X153722339Y-26885252D01*
X153913741Y-27076987D01*
X154163946Y-27180882D01*
X154434865Y-27181118D01*
X154685252Y-27077661D01*
X154876987Y-26886259D01*
X154980882Y-26636054D01*
X154981118Y-26365135D01*
X154877661Y-26114748D01*
X154686259Y-25923013D01*
X154631012Y-25900072D01*
X154685252Y-25877661D01*
X154876987Y-25686259D01*
X154980882Y-25436054D01*
X154980883Y-25434865D01*
X155118882Y-25434865D01*
X155222339Y-25685252D01*
X155372416Y-25835590D01*
X155319118Y-25963946D01*
X155318882Y-26234865D01*
X155422339Y-26485252D01*
X155613741Y-26676987D01*
X155863946Y-26780882D01*
X156134865Y-26781118D01*
X156385252Y-26677661D01*
X156576987Y-26486259D01*
X156619100Y-26384841D01*
X156618882Y-26634865D01*
X156722339Y-26885252D01*
X156913741Y-27076987D01*
X157163946Y-27180882D01*
X157434865Y-27181118D01*
X157685252Y-27077661D01*
X157876987Y-26886259D01*
X157980882Y-26636054D01*
X157980883Y-26634865D01*
X158018882Y-26634865D01*
X158122339Y-26885252D01*
X158313741Y-27076987D01*
X158563946Y-27180882D01*
X158834865Y-27181118D01*
X159085252Y-27077661D01*
X159276987Y-26886259D01*
X159380882Y-26636054D01*
X159381118Y-26365135D01*
X159277661Y-26114748D01*
X159086259Y-25923013D01*
X159080888Y-25920783D01*
X159185252Y-25877661D01*
X159376987Y-25686259D01*
X159439851Y-25534865D01*
X159518882Y-25534865D01*
X159622339Y-25785252D01*
X159786920Y-25950119D01*
X159623013Y-26113741D01*
X159519118Y-26363946D01*
X159518882Y-26634865D01*
X159622339Y-26885252D01*
X159813741Y-27076987D01*
X160063946Y-27180882D01*
X160334865Y-27181118D01*
X160585252Y-27077661D01*
X160776987Y-26886259D01*
X160880882Y-26636054D01*
X160881118Y-26365135D01*
X160777661Y-26114748D01*
X160613080Y-25949881D01*
X160649945Y-25913080D01*
X160713741Y-25976987D01*
X160963946Y-26080882D01*
X161053577Y-26080960D01*
X161019118Y-26163946D01*
X161018882Y-26434865D01*
X161122339Y-26685252D01*
X161313741Y-26876987D01*
X161563946Y-26980882D01*
X161834865Y-26981118D01*
X162085252Y-26877661D01*
X162276987Y-26686259D01*
X162362232Y-26480968D01*
X162519016Y-26481104D01*
X162518882Y-26634865D01*
X162622339Y-26885252D01*
X162813741Y-27076987D01*
X163063946Y-27180882D01*
X163334865Y-27181118D01*
X163585252Y-27077661D01*
X163776987Y-26886259D01*
X163880882Y-26636054D01*
X163881118Y-26365135D01*
X163777661Y-26114748D01*
X163586259Y-25923013D01*
X163336054Y-25819118D01*
X163080984Y-25818896D01*
X163081118Y-25665135D01*
X162977661Y-25414748D01*
X162897917Y-25334865D01*
X164018882Y-25334865D01*
X164122339Y-25585252D01*
X164313741Y-25776987D01*
X164489698Y-25850051D01*
X164314748Y-25922339D01*
X164123013Y-26113741D01*
X164019118Y-26363946D01*
X164018882Y-26634865D01*
X164122339Y-26885252D01*
X164313741Y-27076987D01*
X164563946Y-27180882D01*
X164834865Y-27181118D01*
X165085252Y-27077661D01*
X165276987Y-26886259D01*
X165380882Y-26636054D01*
X165381118Y-26365135D01*
X165277661Y-26114748D01*
X165086259Y-25923013D01*
X164910302Y-25849949D01*
X165085252Y-25777661D01*
X165276987Y-25586259D01*
X165380882Y-25336054D01*
X165381118Y-25065135D01*
X165277661Y-24814748D01*
X165086259Y-24623013D01*
X164836054Y-24519118D01*
X164565135Y-24518882D01*
X164314748Y-24622339D01*
X164123013Y-24813741D01*
X164019118Y-25063946D01*
X164018882Y-25334865D01*
X162897917Y-25334865D01*
X162786259Y-25223013D01*
X162536054Y-25119118D01*
X162265135Y-25118882D01*
X162014748Y-25222339D01*
X161823013Y-25413741D01*
X161780900Y-25515159D01*
X161781118Y-25265135D01*
X161677661Y-25014748D01*
X161486259Y-24823013D01*
X161236054Y-24719118D01*
X160965135Y-24718882D01*
X160714748Y-24822339D01*
X160650055Y-24886920D01*
X160586259Y-24823013D01*
X160336054Y-24719118D01*
X160065135Y-24718882D01*
X159814748Y-24822339D01*
X159623013Y-25013741D01*
X159519118Y-25263946D01*
X159518882Y-25534865D01*
X159439851Y-25534865D01*
X159480882Y-25436054D01*
X159481118Y-25165135D01*
X159377661Y-24914748D01*
X159186259Y-24723013D01*
X158936054Y-24619118D01*
X158665135Y-24618882D01*
X158414748Y-24722339D01*
X158223013Y-24913741D01*
X158119118Y-25163946D01*
X158118882Y-25434865D01*
X158222339Y-25685252D01*
X158413741Y-25876987D01*
X158419112Y-25879217D01*
X158314748Y-25922339D01*
X158123013Y-26113741D01*
X158019118Y-26363946D01*
X158018882Y-26634865D01*
X157980883Y-26634865D01*
X157981118Y-26365135D01*
X157877661Y-26114748D01*
X157686259Y-25923013D01*
X157631012Y-25900072D01*
X157685252Y-25877661D01*
X157876987Y-25686259D01*
X157980882Y-25436054D01*
X157981118Y-25165135D01*
X157877661Y-24914748D01*
X157686259Y-24723013D01*
X157436054Y-24619118D01*
X157165135Y-24618882D01*
X156914748Y-24722339D01*
X156723013Y-24913741D01*
X156619118Y-25163946D01*
X156618882Y-25434865D01*
X156722339Y-25685252D01*
X156913741Y-25876987D01*
X156968988Y-25899928D01*
X156914748Y-25922339D01*
X156723013Y-26113741D01*
X156680900Y-26215159D01*
X156681118Y-25965135D01*
X156577661Y-25714748D01*
X156427584Y-25564410D01*
X156480882Y-25436054D01*
X156481118Y-25165135D01*
X156377661Y-24914748D01*
X156186259Y-24723013D01*
X155936054Y-24619118D01*
X155665135Y-24618882D01*
X155414748Y-24722339D01*
X155223013Y-24913741D01*
X155119118Y-25163946D01*
X155118882Y-25434865D01*
X154980883Y-25434865D01*
X154981118Y-25165135D01*
X154877661Y-24914748D01*
X154686259Y-24723013D01*
X154436054Y-24619118D01*
X154165135Y-24618882D01*
X153914748Y-24722339D01*
X153723013Y-24913741D01*
X153619118Y-25163946D01*
X153618882Y-25434865D01*
X144456000Y-25434865D01*
X144456000Y-24235880D01*
X144943725Y-24235880D01*
X145225421Y-24658564D01*
X146377892Y-25135294D01*
X147625072Y-25134705D01*
X148774579Y-24658564D01*
X149056275Y-24235880D01*
X147000000Y-22179605D01*
X144943725Y-24235880D01*
X144456000Y-24235880D01*
X144456000Y-23850930D01*
X144764120Y-24056275D01*
X146820395Y-22000000D01*
X147179605Y-22000000D01*
X149235880Y-24056275D01*
X149658564Y-23774579D01*
X150135294Y-22622108D01*
X150134705Y-21374928D01*
X149658564Y-20225421D01*
X149235880Y-19943725D01*
X147179605Y-22000000D01*
X146820395Y-22000000D01*
X144764120Y-19943725D01*
X144456000Y-20149070D01*
X144456000Y-19456000D01*
X145149070Y-19456000D01*
X144943725Y-19764120D01*
M02*
