G04 #@! TF.FileFunction,Other,ECO2*
%FSLAX46Y46*%
G04 Gerber Fmt 4.6, Leading zero omitted, Abs format (unit mm)*
G04 Created by KiCad (PCBNEW 4.0.2-stable) date 12/11/2016 19:10:46*
%MOMM*%
G01*
G04 APERTURE LIST*
%ADD10C,0.100000*%
%ADD11C,0.200000*%
%ADD12C,0.150000*%
G04 APERTURE END LIST*
D10*
D11*
X145552381Y-25728572D02*
X145076190Y-25395238D01*
X145552381Y-25157143D02*
X144552381Y-25157143D01*
X144552381Y-25538096D01*
X144600000Y-25633334D01*
X144647619Y-25680953D01*
X144742857Y-25728572D01*
X144885714Y-25728572D01*
X144980952Y-25680953D01*
X145028571Y-25633334D01*
X145076190Y-25538096D01*
X145076190Y-25157143D01*
X145504762Y-26538096D02*
X145552381Y-26442858D01*
X145552381Y-26252381D01*
X145504762Y-26157143D01*
X145409524Y-26109524D01*
X145028571Y-26109524D01*
X144933333Y-26157143D01*
X144885714Y-26252381D01*
X144885714Y-26442858D01*
X144933333Y-26538096D01*
X145028571Y-26585715D01*
X145123810Y-26585715D01*
X145219048Y-26109524D01*
X144885714Y-26919048D02*
X145552381Y-27157143D01*
X144885714Y-27395239D01*
X145552381Y-29061906D02*
X145552381Y-28490477D01*
X145552381Y-28776191D02*
X144552381Y-28776191D01*
X144695238Y-28680953D01*
X144790476Y-28585715D01*
X144838095Y-28490477D01*
X145457143Y-29490477D02*
X145504762Y-29538096D01*
X145552381Y-29490477D01*
X145504762Y-29442858D01*
X145457143Y-29490477D01*
X145552381Y-29490477D01*
X144552381Y-30157143D02*
X144552381Y-30252382D01*
X144600000Y-30347620D01*
X144647619Y-30395239D01*
X144742857Y-30442858D01*
X144933333Y-30490477D01*
X145171429Y-30490477D01*
X145361905Y-30442858D01*
X145457143Y-30395239D01*
X145504762Y-30347620D01*
X145552381Y-30252382D01*
X145552381Y-30157143D01*
X145504762Y-30061905D01*
X145457143Y-30014286D01*
X145361905Y-29966667D01*
X145171429Y-29919048D01*
X144933333Y-29919048D01*
X144742857Y-29966667D01*
X144647619Y-30014286D01*
X144600000Y-30061905D01*
X144552381Y-30157143D01*
D12*
X150700000Y-49700000D02*
G75*
G03X150700000Y-49700000I-400000J0D01*
G01*
X150900000Y-52300000D02*
X150900000Y-49300000D01*
X154900000Y-52300000D02*
X150900000Y-52300000D01*
X154900000Y-49300000D02*
X154900000Y-52300000D01*
X150900000Y-49300000D02*
X154900000Y-49300000D01*
D10*
X166752381Y-20138094D02*
X166714286Y-20061904D01*
X166714286Y-19909523D01*
X166752381Y-19833332D01*
X166828571Y-19757142D01*
X166904762Y-19719047D01*
X167057143Y-19719047D01*
X167133333Y-19757142D01*
X167209524Y-19833332D01*
X167247619Y-19909523D01*
X167247619Y-20061904D01*
X167209524Y-20138094D01*
X166447619Y-19985713D02*
X166485714Y-19795237D01*
X166600000Y-19604761D01*
X166790476Y-19490475D01*
X166980952Y-19452380D01*
X167171429Y-19490475D01*
X167361905Y-19604761D01*
X167476190Y-19795237D01*
X167514286Y-19985713D01*
X167476190Y-20176189D01*
X167361905Y-20366666D01*
X167171429Y-20480951D01*
X166980952Y-20519047D01*
X166790476Y-20480951D01*
X166600000Y-20366666D01*
X166485714Y-20176189D01*
X166447619Y-19985713D01*
X166638095Y-20823809D02*
X166600000Y-20861904D01*
X166561905Y-20938095D01*
X166561905Y-21128571D01*
X166600000Y-21204761D01*
X166638095Y-21242857D01*
X166714286Y-21280952D01*
X166790476Y-21280952D01*
X166904762Y-21242857D01*
X167361905Y-20785714D01*
X167361905Y-21280952D01*
X166561905Y-21776190D02*
X166561905Y-21852381D01*
X166600000Y-21928571D01*
X166638095Y-21966666D01*
X166714286Y-22004762D01*
X166866667Y-22042857D01*
X167057143Y-22042857D01*
X167209524Y-22004762D01*
X167285714Y-21966666D01*
X167323810Y-21928571D01*
X167361905Y-21852381D01*
X167361905Y-21776190D01*
X167323810Y-21700000D01*
X167285714Y-21661904D01*
X167209524Y-21623809D01*
X167057143Y-21585714D01*
X166866667Y-21585714D01*
X166714286Y-21623809D01*
X166638095Y-21661904D01*
X166600000Y-21700000D01*
X166561905Y-21776190D01*
X167361905Y-22804762D02*
X167361905Y-22347619D01*
X167361905Y-22576190D02*
X166561905Y-22576190D01*
X166676190Y-22500000D01*
X166752381Y-22423809D01*
X166790476Y-22347619D01*
X166561905Y-23490476D02*
X166561905Y-23338095D01*
X166600000Y-23261905D01*
X166638095Y-23223810D01*
X166752381Y-23147619D01*
X166904762Y-23109524D01*
X167209524Y-23109524D01*
X167285714Y-23147619D01*
X167323810Y-23185714D01*
X167361905Y-23261905D01*
X167361905Y-23414286D01*
X167323810Y-23490476D01*
X167285714Y-23528572D01*
X167209524Y-23566667D01*
X167019048Y-23566667D01*
X166942857Y-23528572D01*
X166904762Y-23490476D01*
X166866667Y-23414286D01*
X166866667Y-23261905D01*
X166904762Y-23185714D01*
X166942857Y-23147619D01*
X167019048Y-23109524D01*
X167361905Y-24519048D02*
X166561905Y-24519048D01*
X166561905Y-24823810D01*
X166600000Y-24900001D01*
X166638095Y-24938096D01*
X166714286Y-24976191D01*
X166828571Y-24976191D01*
X166904762Y-24938096D01*
X166942857Y-24900001D01*
X166980952Y-24823810D01*
X166980952Y-24519048D01*
X167361905Y-25661905D02*
X166942857Y-25661905D01*
X166866667Y-25623810D01*
X166828571Y-25547620D01*
X166828571Y-25395239D01*
X166866667Y-25319048D01*
X167323810Y-25661905D02*
X167361905Y-25585715D01*
X167361905Y-25395239D01*
X167323810Y-25319048D01*
X167247619Y-25280953D01*
X167171429Y-25280953D01*
X167095238Y-25319048D01*
X167057143Y-25395239D01*
X167057143Y-25585715D01*
X167019048Y-25661905D01*
X166828571Y-26385715D02*
X167361905Y-26385715D01*
X166828571Y-26042858D02*
X167247619Y-26042858D01*
X167323810Y-26080953D01*
X167361905Y-26157144D01*
X167361905Y-26271430D01*
X167323810Y-26347620D01*
X167285714Y-26385715D01*
X167361905Y-26880954D02*
X167323810Y-26804763D01*
X167247619Y-26766668D01*
X166561905Y-26766668D01*
X167438095Y-28328574D02*
X167400000Y-28252383D01*
X167323810Y-28176193D01*
X167209524Y-28061907D01*
X167171429Y-27985716D01*
X167171429Y-27909526D01*
X167361905Y-27947621D02*
X167323810Y-27871431D01*
X167247619Y-27795240D01*
X167095238Y-27757145D01*
X166828571Y-27757145D01*
X166676190Y-27795240D01*
X166600000Y-27871431D01*
X166561905Y-27947621D01*
X166561905Y-28100002D01*
X166600000Y-28176193D01*
X166676190Y-28252383D01*
X166828571Y-28290478D01*
X167095238Y-28290478D01*
X167247619Y-28252383D01*
X167323810Y-28176193D01*
X167361905Y-28100002D01*
X167361905Y-27947621D01*
X166828571Y-28976192D02*
X167361905Y-28976192D01*
X166828571Y-28633335D02*
X167247619Y-28633335D01*
X167323810Y-28671430D01*
X167361905Y-28747621D01*
X167361905Y-28861907D01*
X167323810Y-28938097D01*
X167285714Y-28976192D01*
X167361905Y-29357145D02*
X166828571Y-29357145D01*
X166980952Y-29357145D02*
X166904762Y-29395240D01*
X166866667Y-29433336D01*
X166828571Y-29509526D01*
X166828571Y-29585717D01*
X167323810Y-30157145D02*
X167361905Y-30080955D01*
X167361905Y-29928574D01*
X167323810Y-29852383D01*
X167247619Y-29814288D01*
X166942857Y-29814288D01*
X166866667Y-29852383D01*
X166828571Y-29928574D01*
X166828571Y-30080955D01*
X166866667Y-30157145D01*
X166942857Y-30195240D01*
X167019048Y-30195240D01*
X167095238Y-29814288D01*
X167323810Y-30500002D02*
X167361905Y-30576192D01*
X167361905Y-30728573D01*
X167323810Y-30804764D01*
X167247619Y-30842859D01*
X167209524Y-30842859D01*
X167133333Y-30804764D01*
X167095238Y-30728573D01*
X167095238Y-30614288D01*
X167057143Y-30538097D01*
X166980952Y-30500002D01*
X166942857Y-30500002D01*
X166866667Y-30538097D01*
X166828571Y-30614288D01*
X166828571Y-30728573D01*
X166866667Y-30804764D01*
X167361905Y-31185716D02*
X166561905Y-31185716D01*
X167361905Y-31528573D02*
X166942857Y-31528573D01*
X166866667Y-31490478D01*
X166828571Y-31414288D01*
X166828571Y-31300002D01*
X166866667Y-31223811D01*
X166904762Y-31185716D01*
X167361905Y-31909526D02*
X166828571Y-31909526D01*
X166561905Y-31909526D02*
X166600000Y-31871431D01*
X166638095Y-31909526D01*
X166600000Y-31947621D01*
X166561905Y-31909526D01*
X166638095Y-31909526D01*
D12*
X157000000Y-42900000D02*
X156200000Y-42900000D01*
X156200000Y-41700000D02*
X157000000Y-41700000D01*
X151700000Y-43400000D02*
X152700000Y-43400000D01*
X152200000Y-42900000D02*
X152200000Y-43900000D01*
X153400000Y-42700000D02*
X153400000Y-42500000D01*
X153300000Y-42700000D02*
X153400000Y-42700000D01*
X151000000Y-42700000D02*
X153300000Y-42700000D01*
X151000000Y-42500000D02*
X151000000Y-42700000D01*
X151000000Y-39200000D02*
X151000000Y-40600000D01*
X153400000Y-39200000D02*
X153400000Y-40600000D01*
X149624264Y-38475736D02*
G75*
G03X149624264Y-38475736I-424264J0D01*
G01*
X149000000Y-38000000D02*
X148700000Y-38000000D01*
X149000000Y-34600000D02*
X149000000Y-38000000D01*
X148700000Y-34600000D02*
X149000000Y-34600000D01*
X145600000Y-38000000D02*
X145900000Y-38000000D01*
X145600000Y-34600000D02*
X145600000Y-38000000D01*
X145900000Y-34600000D02*
X145600000Y-34600000D01*
X148000000Y-32600000D02*
X147200000Y-32600000D01*
X147200000Y-31400000D02*
X148000000Y-31400000D01*
X148900000Y-41200000D02*
X148100000Y-41200000D01*
X148100000Y-40000000D02*
X148900000Y-40000000D01*
X146700000Y-43600000D02*
X145700000Y-43600000D01*
X145700000Y-45000000D02*
X146700000Y-45000000D01*
X146700000Y-47000000D02*
X145700000Y-47000000D01*
X145700000Y-45600000D02*
X146700000Y-45600000D01*
X167600000Y-43100000D02*
X167600000Y-42300000D01*
X166400000Y-42300000D02*
X166400000Y-43100000D01*
X165600000Y-38100000D02*
X165600000Y-39100000D01*
X167000000Y-38100000D02*
X167000000Y-39100000D01*
X163300000Y-29700000D02*
X162300000Y-29700000D01*
X162300000Y-31100000D02*
X163300000Y-31100000D01*
X158800000Y-31000000D02*
X158000000Y-31000000D01*
X158000000Y-29800000D02*
X158800000Y-29800000D01*
X155124264Y-34900000D02*
G75*
G03X155124264Y-34900000I-424264J0D01*
G01*
X164000000Y-35600000D02*
X163500000Y-35600000D01*
X164000000Y-39800000D02*
X164000000Y-35600000D01*
X163500000Y-39800000D02*
X164000000Y-39800000D01*
X155000000Y-39800000D02*
X155500000Y-39800000D01*
X155000000Y-35600000D02*
X155000000Y-39800000D01*
X155500000Y-35600000D02*
X155000000Y-35600000D01*
X164900000Y-45200000D02*
X158700000Y-45200000D01*
X164900000Y-51500000D02*
X164900000Y-45200000D01*
X159300000Y-51500000D02*
X164900000Y-51500000D01*
X158700000Y-50900000D02*
X159300000Y-51500000D01*
X158700000Y-45200000D02*
X158700000Y-50900000D01*
X157400000Y-52300000D02*
G75*
G03X157400000Y-52300000I-400000J0D01*
G01*
X159000000Y-55300000D02*
X158200000Y-55300000D01*
X158200000Y-54100000D02*
X159000000Y-54100000D01*
X154200000Y-57300000D02*
X155000000Y-57300000D01*
X155000000Y-56100000D02*
X154200000Y-56100000D01*
X151800000Y-52900000D02*
G75*
G03X151800000Y-52900000I-400000J0D01*
G01*
X152000000Y-55600000D02*
X152000000Y-52400000D01*
X156000000Y-55600000D02*
X152000000Y-55600000D01*
X156000000Y-52400000D02*
X156000000Y-55600000D01*
X152000000Y-52400000D02*
X156000000Y-52400000D01*
D11*
X150752381Y-53938095D02*
X151561905Y-53938095D01*
X151657143Y-53985714D01*
X151704762Y-54033333D01*
X151752381Y-54128571D01*
X151752381Y-54319048D01*
X151704762Y-54414286D01*
X151657143Y-54461905D01*
X151561905Y-54509524D01*
X150752381Y-54509524D01*
X150752381Y-54890476D02*
X150752381Y-55557143D01*
X151752381Y-55128571D01*
X156142857Y-58657143D02*
X156190476Y-58704762D01*
X156333333Y-58752381D01*
X156428571Y-58752381D01*
X156571429Y-58704762D01*
X156666667Y-58609524D01*
X156714286Y-58514286D01*
X156761905Y-58323810D01*
X156761905Y-58180952D01*
X156714286Y-57990476D01*
X156666667Y-57895238D01*
X156571429Y-57800000D01*
X156428571Y-57752381D01*
X156333333Y-57752381D01*
X156190476Y-57800000D01*
X156142857Y-57847619D01*
X155190476Y-58752381D02*
X155761905Y-58752381D01*
X155476191Y-58752381D02*
X155476191Y-57752381D01*
X155571429Y-57895238D01*
X155666667Y-57990476D01*
X155761905Y-58038095D01*
X154333333Y-58085714D02*
X154333333Y-58752381D01*
X154571429Y-57704762D02*
X154809524Y-58419048D01*
X154190476Y-58419048D01*
X158766666Y-56557143D02*
X158814285Y-56604762D01*
X158957142Y-56652381D01*
X159052380Y-56652381D01*
X159195238Y-56604762D01*
X159290476Y-56509524D01*
X159338095Y-56414286D01*
X159385714Y-56223810D01*
X159385714Y-56080952D01*
X159338095Y-55890476D01*
X159290476Y-55795238D01*
X159195238Y-55700000D01*
X159052380Y-55652381D01*
X158957142Y-55652381D01*
X158814285Y-55700000D01*
X158766666Y-55747619D01*
X158290476Y-56652381D02*
X158100000Y-56652381D01*
X158004761Y-56604762D01*
X157957142Y-56557143D01*
X157861904Y-56414286D01*
X157814285Y-56223810D01*
X157814285Y-55842857D01*
X157861904Y-55747619D01*
X157909523Y-55700000D01*
X158004761Y-55652381D01*
X158195238Y-55652381D01*
X158290476Y-55700000D01*
X158338095Y-55747619D01*
X158385714Y-55842857D01*
X158385714Y-56080952D01*
X158338095Y-56176190D01*
X158290476Y-56223810D01*
X158195238Y-56271429D01*
X158004761Y-56271429D01*
X157909523Y-56223810D01*
X157861904Y-56176190D01*
X157814285Y-56080952D01*
X162561905Y-47152381D02*
X162561905Y-47961905D01*
X162514286Y-48057143D01*
X162466667Y-48104762D01*
X162371429Y-48152381D01*
X162180952Y-48152381D01*
X162085714Y-48104762D01*
X162038095Y-48057143D01*
X161990476Y-47961905D01*
X161990476Y-47152381D01*
X161085714Y-47485714D02*
X161085714Y-48152381D01*
X161323810Y-47104762D02*
X161561905Y-47819048D01*
X160942857Y-47819048D01*
X160242857Y-42557143D02*
X160290476Y-42604762D01*
X160433333Y-42652381D01*
X160528571Y-42652381D01*
X160671429Y-42604762D01*
X160766667Y-42509524D01*
X160814286Y-42414286D01*
X160861905Y-42223810D01*
X160861905Y-42080952D01*
X160814286Y-41890476D01*
X160766667Y-41795238D01*
X160671429Y-41700000D01*
X160528571Y-41652381D01*
X160433333Y-41652381D01*
X160290476Y-41700000D01*
X160242857Y-41747619D01*
X159290476Y-42652381D02*
X159861905Y-42652381D01*
X159576191Y-42652381D02*
X159576191Y-41652381D01*
X159671429Y-41795238D01*
X159766667Y-41890476D01*
X159861905Y-41938095D01*
X158957143Y-41652381D02*
X158338095Y-41652381D01*
X158671429Y-42033333D01*
X158528571Y-42033333D01*
X158433333Y-42080952D01*
X158385714Y-42128571D01*
X158338095Y-42223810D01*
X158338095Y-42461905D01*
X158385714Y-42557143D01*
X158433333Y-42604762D01*
X158528571Y-42652381D01*
X158814286Y-42652381D01*
X158909524Y-42604762D01*
X158957143Y-42557143D01*
X164666666Y-42557143D02*
X164714285Y-42604762D01*
X164857142Y-42652381D01*
X164952380Y-42652381D01*
X165095238Y-42604762D01*
X165190476Y-42509524D01*
X165238095Y-42414286D01*
X165285714Y-42223810D01*
X165285714Y-42080952D01*
X165238095Y-41890476D01*
X165190476Y-41795238D01*
X165095238Y-41700000D01*
X164952380Y-41652381D01*
X164857142Y-41652381D01*
X164714285Y-41700000D01*
X164666666Y-41747619D01*
X164095238Y-42080952D02*
X164190476Y-42033333D01*
X164238095Y-41985714D01*
X164285714Y-41890476D01*
X164285714Y-41842857D01*
X164238095Y-41747619D01*
X164190476Y-41700000D01*
X164095238Y-41652381D01*
X163904761Y-41652381D01*
X163809523Y-41700000D01*
X163761904Y-41747619D01*
X163714285Y-41842857D01*
X163714285Y-41890476D01*
X163761904Y-41985714D01*
X163809523Y-42033333D01*
X163904761Y-42080952D01*
X164095238Y-42080952D01*
X164190476Y-42128571D01*
X164238095Y-42176190D01*
X164285714Y-42271429D01*
X164285714Y-42461905D01*
X164238095Y-42557143D01*
X164190476Y-42604762D01*
X164095238Y-42652381D01*
X163904761Y-42652381D01*
X163809523Y-42604762D01*
X163761904Y-42557143D01*
X163714285Y-42461905D01*
X163714285Y-42271429D01*
X163761904Y-42176190D01*
X163809523Y-42128571D01*
X163904761Y-42080952D01*
X165466666Y-41152381D02*
X165800000Y-40676190D01*
X166038095Y-41152381D02*
X166038095Y-40152381D01*
X165657142Y-40152381D01*
X165561904Y-40200000D01*
X165514285Y-40247619D01*
X165466666Y-40342857D01*
X165466666Y-40485714D01*
X165514285Y-40580952D01*
X165561904Y-40628571D01*
X165657142Y-40676190D01*
X166038095Y-40676190D01*
X165133333Y-40152381D02*
X164466666Y-40152381D01*
X164895238Y-41152381D01*
X157942857Y-32357143D02*
X157990476Y-32404762D01*
X158133333Y-32452381D01*
X158228571Y-32452381D01*
X158371429Y-32404762D01*
X158466667Y-32309524D01*
X158514286Y-32214286D01*
X158561905Y-32023810D01*
X158561905Y-31880952D01*
X158514286Y-31690476D01*
X158466667Y-31595238D01*
X158371429Y-31500000D01*
X158228571Y-31452381D01*
X158133333Y-31452381D01*
X157990476Y-31500000D01*
X157942857Y-31547619D01*
X156990476Y-32452381D02*
X157561905Y-32452381D01*
X157276191Y-32452381D02*
X157276191Y-31452381D01*
X157371429Y-31595238D01*
X157466667Y-31690476D01*
X157561905Y-31738095D01*
X156609524Y-31547619D02*
X156561905Y-31500000D01*
X156466667Y-31452381D01*
X156228571Y-31452381D01*
X156133333Y-31500000D01*
X156085714Y-31547619D01*
X156038095Y-31642857D01*
X156038095Y-31738095D01*
X156085714Y-31880952D01*
X156657143Y-32452381D01*
X156038095Y-32452381D01*
X163866666Y-32452381D02*
X164200000Y-31976190D01*
X164438095Y-32452381D02*
X164438095Y-31452381D01*
X164057142Y-31452381D01*
X163961904Y-31500000D01*
X163914285Y-31547619D01*
X163866666Y-31642857D01*
X163866666Y-31785714D01*
X163914285Y-31880952D01*
X163961904Y-31928571D01*
X164057142Y-31976190D01*
X164438095Y-31976190D01*
X163009523Y-31452381D02*
X163200000Y-31452381D01*
X163295238Y-31500000D01*
X163342857Y-31547619D01*
X163438095Y-31690476D01*
X163485714Y-31880952D01*
X163485714Y-32261905D01*
X163438095Y-32357143D01*
X163390476Y-32404762D01*
X163295238Y-32452381D01*
X163104761Y-32452381D01*
X163009523Y-32404762D01*
X162961904Y-32357143D01*
X162914285Y-32261905D01*
X162914285Y-32023810D01*
X162961904Y-31928571D01*
X163009523Y-31880952D01*
X163104761Y-31833333D01*
X163295238Y-31833333D01*
X163390476Y-31880952D01*
X163438095Y-31928571D01*
X163485714Y-32023810D01*
X148766666Y-46852381D02*
X149100000Y-46376190D01*
X149338095Y-46852381D02*
X149338095Y-45852381D01*
X148957142Y-45852381D01*
X148861904Y-45900000D01*
X148814285Y-45947619D01*
X148766666Y-46042857D01*
X148766666Y-46185714D01*
X148814285Y-46280952D01*
X148861904Y-46328571D01*
X148957142Y-46376190D01*
X149338095Y-46376190D01*
X147909523Y-46185714D02*
X147909523Y-46852381D01*
X148147619Y-45804762D02*
X148385714Y-46519048D01*
X147766666Y-46519048D01*
X148766666Y-44852381D02*
X149100000Y-44376190D01*
X149338095Y-44852381D02*
X149338095Y-43852381D01*
X148957142Y-43852381D01*
X148861904Y-43900000D01*
X148814285Y-43947619D01*
X148766666Y-44042857D01*
X148766666Y-44185714D01*
X148814285Y-44280952D01*
X148861904Y-44328571D01*
X148957142Y-44376190D01*
X149338095Y-44376190D01*
X147861904Y-43852381D02*
X148338095Y-43852381D01*
X148385714Y-44328571D01*
X148338095Y-44280952D01*
X148242857Y-44233333D01*
X148004761Y-44233333D01*
X147909523Y-44280952D01*
X147861904Y-44328571D01*
X147814285Y-44423810D01*
X147814285Y-44661905D01*
X147861904Y-44757143D01*
X147909523Y-44804762D01*
X148004761Y-44852381D01*
X148242857Y-44852381D01*
X148338095Y-44804762D01*
X148385714Y-44757143D01*
X146166666Y-42952381D02*
X146642857Y-42952381D01*
X146642857Y-41952381D01*
X145880952Y-42047619D02*
X145833333Y-42000000D01*
X145738095Y-41952381D01*
X145499999Y-41952381D01*
X145404761Y-42000000D01*
X145357142Y-42047619D01*
X145309523Y-42142857D01*
X145309523Y-42238095D01*
X145357142Y-42380952D01*
X145928571Y-42952381D01*
X145309523Y-42952381D01*
X146066666Y-41057143D02*
X146114285Y-41104762D01*
X146257142Y-41152381D01*
X146352380Y-41152381D01*
X146495238Y-41104762D01*
X146590476Y-41009524D01*
X146638095Y-40914286D01*
X146685714Y-40723810D01*
X146685714Y-40580952D01*
X146638095Y-40390476D01*
X146590476Y-40295238D01*
X146495238Y-40200000D01*
X146352380Y-40152381D01*
X146257142Y-40152381D01*
X146114285Y-40200000D01*
X146066666Y-40247619D01*
X145161904Y-40152381D02*
X145638095Y-40152381D01*
X145685714Y-40628571D01*
X145638095Y-40580952D01*
X145542857Y-40533333D01*
X145304761Y-40533333D01*
X145209523Y-40580952D01*
X145161904Y-40628571D01*
X145114285Y-40723810D01*
X145114285Y-40961905D01*
X145161904Y-41057143D01*
X145209523Y-41104762D01*
X145304761Y-41152381D01*
X145542857Y-41152381D01*
X145638095Y-41104762D01*
X145685714Y-41057143D01*
X147866666Y-30857143D02*
X147914285Y-30904762D01*
X148057142Y-30952381D01*
X148152380Y-30952381D01*
X148295238Y-30904762D01*
X148390476Y-30809524D01*
X148438095Y-30714286D01*
X148485714Y-30523810D01*
X148485714Y-30380952D01*
X148438095Y-30190476D01*
X148390476Y-30095238D01*
X148295238Y-30000000D01*
X148152380Y-29952381D01*
X148057142Y-29952381D01*
X147914285Y-30000000D01*
X147866666Y-30047619D01*
X147009523Y-29952381D02*
X147200000Y-29952381D01*
X147295238Y-30000000D01*
X147342857Y-30047619D01*
X147438095Y-30190476D01*
X147485714Y-30380952D01*
X147485714Y-30761905D01*
X147438095Y-30857143D01*
X147390476Y-30904762D01*
X147295238Y-30952381D01*
X147104761Y-30952381D01*
X147009523Y-30904762D01*
X146961904Y-30857143D01*
X146914285Y-30761905D01*
X146914285Y-30523810D01*
X146961904Y-30428571D01*
X147009523Y-30380952D01*
X147104761Y-30333333D01*
X147295238Y-30333333D01*
X147390476Y-30380952D01*
X147438095Y-30428571D01*
X147485714Y-30523810D01*
X149352381Y-34638095D02*
X150161905Y-34638095D01*
X150257143Y-34685714D01*
X150304762Y-34733333D01*
X150352381Y-34828571D01*
X150352381Y-35019048D01*
X150304762Y-35114286D01*
X150257143Y-35161905D01*
X150161905Y-35209524D01*
X149352381Y-35209524D01*
X149447619Y-35638095D02*
X149400000Y-35685714D01*
X149352381Y-35780952D01*
X149352381Y-36019048D01*
X149400000Y-36114286D01*
X149447619Y-36161905D01*
X149542857Y-36209524D01*
X149638095Y-36209524D01*
X149780952Y-36161905D01*
X150352381Y-35590476D01*
X150352381Y-36209524D01*
X150657143Y-37757143D02*
X150704762Y-37709524D01*
X150752381Y-37566667D01*
X150752381Y-37471429D01*
X150704762Y-37328571D01*
X150609524Y-37233333D01*
X150514286Y-37185714D01*
X150323810Y-37138095D01*
X150180952Y-37138095D01*
X149990476Y-37185714D01*
X149895238Y-37233333D01*
X149800000Y-37328571D01*
X149752381Y-37471429D01*
X149752381Y-37566667D01*
X149800000Y-37709524D01*
X149847619Y-37757143D01*
X150752381Y-38709524D02*
X150752381Y-38138095D01*
X150752381Y-38423809D02*
X149752381Y-38423809D01*
X149895238Y-38328571D01*
X149990476Y-38233333D01*
X150038095Y-38138095D01*
X149752381Y-39328571D02*
X149752381Y-39423810D01*
X149800000Y-39519048D01*
X149847619Y-39566667D01*
X149942857Y-39614286D01*
X150133333Y-39661905D01*
X150371429Y-39661905D01*
X150561905Y-39614286D01*
X150657143Y-39566667D01*
X150704762Y-39519048D01*
X150752381Y-39423810D01*
X150752381Y-39328571D01*
X150704762Y-39233333D01*
X150657143Y-39185714D01*
X150561905Y-39138095D01*
X150371429Y-39090476D01*
X150133333Y-39090476D01*
X149942857Y-39138095D01*
X149847619Y-39185714D01*
X149800000Y-39233333D01*
X149752381Y-39328571D01*
D12*
X152300000Y-31800000D02*
X152300000Y-31900000D01*
X151900000Y-31400000D02*
X151800000Y-31400000D01*
X151900000Y-31400000D02*
X152800000Y-31400000D01*
X152300000Y-30900000D02*
X152300000Y-31800000D01*
X153500000Y-30700000D02*
X153500000Y-30600000D01*
X151100000Y-30700000D02*
X153500000Y-30700000D01*
X151100000Y-30600000D02*
X151100000Y-30700000D01*
X153600000Y-27300000D02*
X153600000Y-28500000D01*
X151000000Y-27300000D02*
X151000000Y-28500000D01*
D11*
X150557143Y-26857143D02*
X150604762Y-26809524D01*
X150652381Y-26666667D01*
X150652381Y-26571429D01*
X150604762Y-26428571D01*
X150509524Y-26333333D01*
X150414286Y-26285714D01*
X150223810Y-26238095D01*
X150080952Y-26238095D01*
X149890476Y-26285714D01*
X149795238Y-26333333D01*
X149700000Y-26428571D01*
X149652381Y-26571429D01*
X149652381Y-26666667D01*
X149700000Y-26809524D01*
X149747619Y-26857143D01*
X150652381Y-27809524D02*
X150652381Y-27238095D01*
X150652381Y-27523809D02*
X149652381Y-27523809D01*
X149795238Y-27428571D01*
X149890476Y-27333333D01*
X149938095Y-27238095D01*
X150652381Y-28761905D02*
X150652381Y-28190476D01*
X150652381Y-28476190D02*
X149652381Y-28476190D01*
X149795238Y-28380952D01*
X149890476Y-28285714D01*
X149938095Y-28190476D01*
X165961905Y-34452381D02*
X165961905Y-35261905D01*
X165914286Y-35357143D01*
X165866667Y-35404762D01*
X165771429Y-35452381D01*
X165580952Y-35452381D01*
X165485714Y-35404762D01*
X165438095Y-35357143D01*
X165390476Y-35261905D01*
X165390476Y-34452381D01*
X164485714Y-34452381D02*
X164676191Y-34452381D01*
X164771429Y-34500000D01*
X164819048Y-34547619D01*
X164914286Y-34690476D01*
X164961905Y-34880952D01*
X164961905Y-35261905D01*
X164914286Y-35357143D01*
X164866667Y-35404762D01*
X164771429Y-35452381D01*
X164580952Y-35452381D01*
X164485714Y-35404762D01*
X164438095Y-35357143D01*
X164390476Y-35261905D01*
X164390476Y-35023810D01*
X164438095Y-34928571D01*
X164485714Y-34880952D01*
X164580952Y-34833333D01*
X164771429Y-34833333D01*
X164866667Y-34880952D01*
X164914286Y-34928571D01*
X164961905Y-35023810D01*
X165961905Y-22752381D02*
X165961905Y-23561905D01*
X165914286Y-23657143D01*
X165866667Y-23704762D01*
X165771429Y-23752381D01*
X165580952Y-23752381D01*
X165485714Y-23704762D01*
X165438095Y-23657143D01*
X165390476Y-23561905D01*
X165390476Y-22752381D01*
X164438095Y-22752381D02*
X164914286Y-22752381D01*
X164961905Y-23228571D01*
X164914286Y-23180952D01*
X164819048Y-23133333D01*
X164580952Y-23133333D01*
X164485714Y-23180952D01*
X164438095Y-23228571D01*
X164390476Y-23323810D01*
X164390476Y-23561905D01*
X164438095Y-23657143D01*
X164485714Y-23704762D01*
X164580952Y-23752381D01*
X164819048Y-23752381D01*
X164914286Y-23704762D01*
X164961905Y-23657143D01*
D12*
X155124264Y-23000000D02*
G75*
G03X155124264Y-23000000I-424264J0D01*
G01*
X164000000Y-28000000D02*
X163500000Y-28000000D01*
X164000000Y-23800000D02*
X164000000Y-28000000D01*
X163500000Y-23800000D02*
X164000000Y-23800000D01*
X155000000Y-28000000D02*
X155500000Y-28000000D01*
X155000000Y-23800000D02*
X155000000Y-28000000D01*
X155500000Y-23800000D02*
X155000000Y-23800000D01*
M02*
