M48
INCH,TZ
T1C0.012
T2C0.016
T3C0.040
T4C0.098
%
G90
G05
T1
X5.6969Y-1.7008
X5.7264Y-1.7087
X5.7362Y-1.2638
X5.7598Y-1.7
X5.8346Y-2.248
X5.8622Y-2.248
X5.9134Y-1.2598
X5.9134Y-1.236
X5.92Y-1.72
X5.937Y-1.2913
X5.937Y-1.3701
X6.0118Y-2.248
X6.0276Y-1.2165
X6.0748Y-1.6929
X6.114Y-2.12
X6.1142Y-1.9567
X6.1259Y-2.0237
X6.13Y-1.92
X6.16Y-1.768
X6.315Y-2.1378
X6.3399Y-1.84
X6.3522Y-1.9173
X6.378Y-1.248
X6.3898Y-1.9173
X6.399Y-1.84
X6.458Y-1.79
X6.48Y-1.69
X6.5748Y-2.0669
X6.5787Y-2.0472
T2
X5.7087Y-2.2441
X5.7126Y-2.2165
X5.7283Y-1.8858
X5.7717Y-2.0118
X5.7717Y-2.0512
X5.7756Y-2.0906
X5.78Y-1.87
X5.7992Y-1.4095
X5.8013Y-1.4606
X5.8268Y-1.8631
X5.8352Y-1.4167
X5.874Y-1.5157
X5.9016Y-1.1417
X5.9094Y-2.2519
X5.9134Y-1.6693
X5.9173Y-1.5984
X5.9291Y-1.1811
X5.9528Y-2.0984
X5.9921Y-1.4409
X5.9921Y-1.5827
X5.9961Y-0.9724
X6.0118Y-2.2165
X6.0512Y-2.3031
X6.0748Y-0.9961
X6.0748Y-1.0433
X6.0748Y-1.4646
X6.0748Y-1.5118
X6.1Y-1.81
X6.1102Y-1.6969
X6.1216Y-2.1989
X6.1339Y-0.9961
X6.1339Y-1.4646
X6.1339Y-1.5118
X6.1417Y-1.0276
X6.1654Y-1.2174
X6.1732Y-2.2402
X6.185Y-2.2165
X6.1929Y-0.9961
X6.1929Y-1.0433
X6.1929Y-1.4646
X6.1929Y-1.5118
X6.2008Y-2.2402
X6.2087Y-1.6969
X6.2126Y-2.1241
X6.2362Y-0.8031
X6.2402Y-1.4646
X6.248Y-1.0433
X6.248Y-1.5118
X6.252Y-0.9961
X6.2638Y-0.8031
X6.2638Y-1.2441
X6.2638Y-1.942
X6.2717Y-1.4843
X6.2913Y-0.8031
X6.3071Y-1.
X6.3071Y-1.0433
X6.3071Y-1.252
X6.3071Y-1.4646
X6.3071Y-1.5118
X6.3386Y-1.252
X6.3425Y-1.
X6.3465Y-1.9882
X6.3543Y-1.4646
X6.3661Y-1.0354
X6.3661Y-1.5118
X6.3937Y-1.0157
X6.3976Y-0.8031
X6.3976Y-1.2756
X6.4252Y-1.0433
X6.4252Y-1.4794
X6.4252Y-1.5118
X6.4291Y-1.9567
X6.4291Y-2.
X6.46Y-1.8355
X6.4843Y-0.9921
X6.4843Y-1.0433
X6.4843Y-1.4567
X6.4843Y-1.5118
X6.5236Y-1.6772
X6.5276Y-1.6378
X6.5472Y-1.4488
X6.5748Y-1.6024
T3
X5.93Y-1.86
T4
X5.7874Y-0.8661
X6.4961Y-2.2441
T0
M30
