G04 #@! TF.FileFunction,Other,ECO1*
%FSLAX46Y46*%
G04 Gerber Fmt 4.6, Leading zero omitted, Abs format (unit mm)*
G04 Created by KiCad (PCBNEW 4.0.2-stable) date 12/11/2016 19:10:46*
%MOMM*%
G01*
G04 APERTURE LIST*
%ADD10C,0.100000*%
%ADD11C,0.150000*%
%ADD12C,0.200000*%
%ADD13C,0.300000*%
G04 APERTURE END LIST*
D10*
D11*
X152300000Y-46800000D02*
X152300000Y-46000000D01*
X152300000Y-46800000D02*
X153800000Y-46800000D01*
X153500000Y-47498000D02*
G75*
G03X153500000Y-47498000I-500000J0D01*
G01*
X161723607Y-52300000D02*
G75*
G03X161723607Y-52300000I-223607J0D01*
G01*
X147623607Y-50300000D02*
G75*
G03X147623607Y-50300000I-223607J0D01*
G01*
X165000000Y-52600000D02*
X165000000Y-49000000D01*
X161600000Y-49000000D02*
X161600000Y-52600000D01*
X147100000Y-53900000D02*
X150700000Y-53900000D01*
X147100000Y-50500000D02*
X150700000Y-50500000D01*
D12*
X161938095Y-53052381D02*
X161938095Y-53861905D01*
X161985714Y-53957143D01*
X162033333Y-54004762D01*
X162128571Y-54052381D01*
X162319048Y-54052381D01*
X162414286Y-54004762D01*
X162461905Y-53957143D01*
X162509524Y-53861905D01*
X162509524Y-53052381D01*
X162890476Y-53052381D02*
X163509524Y-53052381D01*
X163176190Y-53433333D01*
X163319048Y-53433333D01*
X163414286Y-53480952D01*
X163461905Y-53528571D01*
X163509524Y-53623810D01*
X163509524Y-53861905D01*
X163461905Y-53957143D01*
X163414286Y-54004762D01*
X163319048Y-54052381D01*
X163033333Y-54052381D01*
X162938095Y-54004762D01*
X162890476Y-53957143D01*
X156833334Y-50657143D02*
X156785715Y-50704762D01*
X156642858Y-50752381D01*
X156547620Y-50752381D01*
X156404762Y-50704762D01*
X156309524Y-50609524D01*
X156261905Y-50514286D01*
X156214286Y-50323810D01*
X156214286Y-50180952D01*
X156261905Y-49990476D01*
X156309524Y-49895238D01*
X156404762Y-49800000D01*
X156547620Y-49752381D01*
X156642858Y-49752381D01*
X156785715Y-49800000D01*
X156833334Y-49847619D01*
X157166667Y-49752381D02*
X157833334Y-49752381D01*
X157404762Y-50752381D01*
X157533334Y-55952381D02*
X157200000Y-55476190D01*
X156961905Y-55952381D02*
X156961905Y-54952381D01*
X157342858Y-54952381D01*
X157438096Y-55000000D01*
X157485715Y-55047619D01*
X157533334Y-55142857D01*
X157533334Y-55285714D01*
X157485715Y-55380952D01*
X157438096Y-55428571D01*
X157342858Y-55476190D01*
X156961905Y-55476190D01*
X158485715Y-55952381D02*
X157914286Y-55952381D01*
X158200000Y-55952381D02*
X158200000Y-54952381D01*
X158104762Y-55095238D01*
X158009524Y-55190476D01*
X157914286Y-55238095D01*
X160033334Y-56952381D02*
X159557143Y-56952381D01*
X159557143Y-55952381D01*
X160890477Y-56952381D02*
X160319048Y-56952381D01*
X160604762Y-56952381D02*
X160604762Y-55952381D01*
X160509524Y-56095238D01*
X160414286Y-56190476D01*
X160319048Y-56238095D01*
D13*
X165966667Y-47188095D02*
X165966667Y-48116667D01*
X165904763Y-48302381D01*
X165780953Y-48426190D01*
X165595239Y-48488095D01*
X165471429Y-48488095D01*
X166461905Y-47188095D02*
X167266667Y-47188095D01*
X166833334Y-47683333D01*
X167019048Y-47683333D01*
X167142858Y-47745238D01*
X167204762Y-47807143D01*
X167266667Y-47930952D01*
X167266667Y-48240476D01*
X167204762Y-48364286D01*
X167142858Y-48426190D01*
X167019048Y-48488095D01*
X166647620Y-48488095D01*
X166523810Y-48426190D01*
X166461905Y-48364286D01*
D12*
X152366667Y-42152381D02*
X152366667Y-42866667D01*
X152319047Y-43009524D01*
X152223809Y-43104762D01*
X152080952Y-43152381D01*
X151985714Y-43152381D01*
X153366667Y-43152381D02*
X152795238Y-43152381D01*
X153080952Y-43152381D02*
X153080952Y-42152381D01*
X152985714Y-42295238D01*
X152890476Y-42390476D01*
X152795238Y-42438095D01*
X155217905Y-49728381D02*
X155217905Y-48728381D01*
X155456000Y-48728381D01*
X155598858Y-48776000D01*
X155694096Y-48871238D01*
X155741715Y-48966476D01*
X155789334Y-49156952D01*
X155789334Y-49299810D01*
X155741715Y-49490286D01*
X155694096Y-49585524D01*
X155598858Y-49680762D01*
X155456000Y-49728381D01*
X155217905Y-49728381D01*
X156741715Y-49728381D02*
X156170286Y-49728381D01*
X156456000Y-49728381D02*
X156456000Y-48728381D01*
X156360762Y-48871238D01*
X156265524Y-48966476D01*
X156170286Y-49014095D01*
X146633334Y-49057143D02*
X146585715Y-49104762D01*
X146442858Y-49152381D01*
X146347620Y-49152381D01*
X146204762Y-49104762D01*
X146109524Y-49009524D01*
X146061905Y-48914286D01*
X146014286Y-48723810D01*
X146014286Y-48580952D01*
X146061905Y-48390476D01*
X146109524Y-48295238D01*
X146204762Y-48200000D01*
X146347620Y-48152381D01*
X146442858Y-48152381D01*
X146585715Y-48200000D01*
X146633334Y-48247619D01*
X147014286Y-48247619D02*
X147061905Y-48200000D01*
X147157143Y-48152381D01*
X147395239Y-48152381D01*
X147490477Y-48200000D01*
X147538096Y-48247619D01*
X147585715Y-48342857D01*
X147585715Y-48438095D01*
X147538096Y-48580952D01*
X146966667Y-49152381D01*
X147585715Y-49152381D01*
X144933334Y-49957143D02*
X144885715Y-50004762D01*
X144742858Y-50052381D01*
X144647620Y-50052381D01*
X144504762Y-50004762D01*
X144409524Y-49909524D01*
X144361905Y-49814286D01*
X144314286Y-49623810D01*
X144314286Y-49480952D01*
X144361905Y-49290476D01*
X144409524Y-49195238D01*
X144504762Y-49100000D01*
X144647620Y-49052381D01*
X144742858Y-49052381D01*
X144885715Y-49100000D01*
X144933334Y-49147619D01*
X145885715Y-50052381D02*
X145314286Y-50052381D01*
X145600000Y-50052381D02*
X145600000Y-49052381D01*
X145504762Y-49195238D01*
X145409524Y-49290476D01*
X145314286Y-49338095D01*
D11*
X149300000Y-49800000D02*
X148600000Y-49800000D01*
X148600000Y-48600000D02*
X149300000Y-48600000D01*
X152100000Y-48200000D02*
G75*
G03X152100000Y-48200000I-100000J0D01*
G01*
X152600000Y-49200000D02*
X152400000Y-49200000D01*
X153100000Y-49200000D02*
X153300000Y-49200000D01*
X153100000Y-49600000D02*
X152600000Y-49200000D01*
X153100000Y-48800000D02*
X153100000Y-49600000D01*
X152600000Y-49200000D02*
X153100000Y-48800000D01*
X152600000Y-48800000D02*
X152600000Y-49600000D01*
X153700000Y-49900000D02*
X152100000Y-49900000D01*
X152100000Y-48500000D02*
X153700000Y-48500000D01*
X149800000Y-22000000D02*
G75*
G03X149800000Y-22000000I-2800000J0D01*
G01*
X167800000Y-57000000D02*
G75*
G03X167800000Y-57000000I-2800000J0D01*
G01*
X152300000Y-46000000D02*
X152300000Y-47600000D01*
X149100000Y-46000000D02*
X152300000Y-46000000D01*
X149100000Y-47600000D02*
X149100000Y-46000000D01*
X159100000Y-50900000D02*
X159700000Y-50900000D01*
X159700000Y-49700000D02*
X159100000Y-49700000D01*
X161900000Y-51000000D02*
X161900000Y-50600000D01*
X164700000Y-51000000D02*
X161900000Y-51000000D01*
X164700000Y-50600000D02*
X164700000Y-51000000D01*
X161900000Y-50600000D02*
X164700000Y-50600000D01*
X166800000Y-50500000D02*
X165900000Y-50500000D01*
X165900000Y-49100000D02*
X166800000Y-49100000D01*
X166600000Y-52500000D02*
X166600000Y-51900000D01*
X165400000Y-51900000D02*
X165400000Y-52500000D01*
X161300000Y-53800000D02*
X161300000Y-57200000D01*
X156300000Y-54100000D02*
X156300000Y-53800000D01*
X156300000Y-56300000D02*
X156300000Y-57200000D01*
X156300000Y-54100000D02*
X156300000Y-54700000D01*
X153500000Y-54800000D02*
X153500000Y-60000000D01*
X144300000Y-54800000D02*
X153500000Y-54800000D01*
X144300000Y-54800000D02*
X144300000Y-60000000D01*
X155600000Y-57800000D02*
X155600000Y-58600000D01*
X154400000Y-57800000D02*
X154400000Y-58600000D01*
X155000000Y-56200000D02*
X156000000Y-56200000D01*
X155000000Y-54800000D02*
X156000000Y-54800000D01*
X155300000Y-52000000D02*
X155300000Y-53000000D01*
X153900000Y-52000000D02*
X153900000Y-53000000D01*
X144600000Y-51600000D02*
X144600000Y-52600000D01*
X146200000Y-51600000D02*
X146200000Y-52600000D01*
X153000000Y-52000000D02*
X153000000Y-53000000D01*
X151600000Y-52000000D02*
X151600000Y-53000000D01*
X148700000Y-53600000D02*
X148700000Y-50800000D01*
X149100000Y-53600000D02*
X148700000Y-53600000D01*
X149100000Y-50800000D02*
X149100000Y-53600000D01*
X148700000Y-50800000D02*
X149100000Y-50800000D01*
D13*
X147466667Y-38088095D02*
X147466667Y-39016667D01*
X147404763Y-39202381D01*
X147280953Y-39326190D01*
X147095239Y-39388095D01*
X146971429Y-39388095D01*
X148271429Y-38645238D02*
X148147620Y-38583333D01*
X148085715Y-38521429D01*
X148023810Y-38397619D01*
X148023810Y-38335714D01*
X148085715Y-38211905D01*
X148147620Y-38150000D01*
X148271429Y-38088095D01*
X148519048Y-38088095D01*
X148642858Y-38150000D01*
X148704762Y-38211905D01*
X148766667Y-38335714D01*
X148766667Y-38397619D01*
X148704762Y-38521429D01*
X148642858Y-38583333D01*
X148519048Y-38645238D01*
X148271429Y-38645238D01*
X148147620Y-38707143D01*
X148085715Y-38769048D01*
X148023810Y-38892857D01*
X148023810Y-39140476D01*
X148085715Y-39264286D01*
X148147620Y-39326190D01*
X148271429Y-39388095D01*
X148519048Y-39388095D01*
X148642858Y-39326190D01*
X148704762Y-39264286D01*
X148766667Y-39140476D01*
X148766667Y-38892857D01*
X148704762Y-38769048D01*
X148642858Y-38707143D01*
X148519048Y-38645238D01*
X148388095Y-27533333D02*
X149316667Y-27533333D01*
X149502381Y-27595237D01*
X149626190Y-27719047D01*
X149688095Y-27904761D01*
X149688095Y-28028571D01*
X148511905Y-26976190D02*
X148450000Y-26914285D01*
X148388095Y-26790476D01*
X148388095Y-26480952D01*
X148450000Y-26357142D01*
X148511905Y-26295238D01*
X148635714Y-26233333D01*
X148759524Y-26233333D01*
X148945238Y-26295238D01*
X149688095Y-27038095D01*
X149688095Y-26233333D01*
D11*
X145400000Y-48000000D02*
G75*
G03X145400000Y-48000000I-500000J0D01*
G01*
X144500000Y-47300000D02*
X144500000Y-39700000D01*
X148900000Y-47300000D02*
X144500000Y-47300000D01*
X148900000Y-39700000D02*
X148900000Y-47300000D01*
X144500000Y-39700000D02*
X148900000Y-39700000D01*
D13*
X171278571Y-35966668D02*
X170411905Y-35966668D01*
X171773810Y-35657144D02*
X170845238Y-35347620D01*
X170845238Y-36152382D01*
X170411905Y-37328572D02*
X170411905Y-36585715D01*
X170411905Y-36957144D02*
X171711905Y-36957144D01*
X171526190Y-36833334D01*
X171402381Y-36709525D01*
X171340476Y-36585715D01*
X170535714Y-37885715D02*
X170473810Y-37947620D01*
X170411905Y-37885715D01*
X170473810Y-37823810D01*
X170535714Y-37885715D01*
X170411905Y-37885715D01*
X171711905Y-38752382D02*
X171711905Y-38876191D01*
X171650000Y-39000001D01*
X171588095Y-39061906D01*
X171464286Y-39123810D01*
X171216667Y-39185715D01*
X170907143Y-39185715D01*
X170659524Y-39123810D01*
X170535714Y-39061906D01*
X170473810Y-39000001D01*
X170411905Y-38876191D01*
X170411905Y-38752382D01*
X170473810Y-38628572D01*
X170535714Y-38566668D01*
X170659524Y-38504763D01*
X170907143Y-38442858D01*
X171216667Y-38442858D01*
X171464286Y-38504763D01*
X171588095Y-38566668D01*
X171650000Y-38628572D01*
X171711905Y-38752382D01*
X170411905Y-39742858D02*
X171278571Y-39742858D01*
X171154762Y-39742858D02*
X171216667Y-39804763D01*
X171278571Y-39928572D01*
X171278571Y-40114286D01*
X171216667Y-40238096D01*
X171092857Y-40300001D01*
X170411905Y-40300001D01*
X171092857Y-40300001D02*
X171216667Y-40361905D01*
X171278571Y-40485715D01*
X171278571Y-40671429D01*
X171216667Y-40795239D01*
X171092857Y-40857144D01*
X170411905Y-40857144D01*
X170411905Y-41476191D02*
X171278571Y-41476191D01*
X171154762Y-41476191D02*
X171216667Y-41538096D01*
X171278571Y-41661905D01*
X171278571Y-41847619D01*
X171216667Y-41971429D01*
X171092857Y-42033334D01*
X170411905Y-42033334D01*
X171092857Y-42033334D02*
X171216667Y-42095238D01*
X171278571Y-42219048D01*
X171278571Y-42404762D01*
X171216667Y-42528572D01*
X171092857Y-42590477D01*
X170411905Y-42590477D01*
D11*
X169000000Y-60000000D02*
X171000000Y-60000000D01*
X170000000Y-19000000D02*
X170000000Y-60000000D01*
X169000000Y-19000000D02*
X171000000Y-19000000D01*
X144000000Y-18000000D02*
X144000000Y-16000000D01*
X168000000Y-16000000D02*
X168000000Y-18000000D01*
D13*
X152347620Y-15411905D02*
X152409525Y-15350000D01*
X152533334Y-15288095D01*
X152842858Y-15288095D01*
X152966668Y-15350000D01*
X153028572Y-15411905D01*
X153090477Y-15535714D01*
X153090477Y-15659524D01*
X153028572Y-15845238D01*
X152285715Y-16588095D01*
X153090477Y-16588095D01*
X154204763Y-15721429D02*
X154204763Y-16588095D01*
X153895239Y-15226190D02*
X153585715Y-16154762D01*
X154390477Y-16154762D01*
X154885715Y-16464286D02*
X154947620Y-16526190D01*
X154885715Y-16588095D01*
X154823810Y-16526190D01*
X154885715Y-16464286D01*
X154885715Y-16588095D01*
X155752382Y-15288095D02*
X155876191Y-15288095D01*
X156000001Y-15350000D01*
X156061906Y-15411905D01*
X156123810Y-15535714D01*
X156185715Y-15783333D01*
X156185715Y-16092857D01*
X156123810Y-16340476D01*
X156061906Y-16464286D01*
X156000001Y-16526190D01*
X155876191Y-16588095D01*
X155752382Y-16588095D01*
X155628572Y-16526190D01*
X155566668Y-16464286D01*
X155504763Y-16340476D01*
X155442858Y-16092857D01*
X155442858Y-15783333D01*
X155504763Y-15535714D01*
X155566668Y-15411905D01*
X155628572Y-15350000D01*
X155752382Y-15288095D01*
X156742858Y-16588095D02*
X156742858Y-15721429D01*
X156742858Y-15845238D02*
X156804763Y-15783333D01*
X156928572Y-15721429D01*
X157114286Y-15721429D01*
X157238096Y-15783333D01*
X157300001Y-15907143D01*
X157300001Y-16588095D01*
X157300001Y-15907143D02*
X157361905Y-15783333D01*
X157485715Y-15721429D01*
X157671429Y-15721429D01*
X157795239Y-15783333D01*
X157857144Y-15907143D01*
X157857144Y-16588095D01*
X158476191Y-16588095D02*
X158476191Y-15721429D01*
X158476191Y-15845238D02*
X158538096Y-15783333D01*
X158661905Y-15721429D01*
X158847619Y-15721429D01*
X158971429Y-15783333D01*
X159033334Y-15907143D01*
X159033334Y-16588095D01*
X159033334Y-15907143D02*
X159095238Y-15783333D01*
X159219048Y-15721429D01*
X159404762Y-15721429D01*
X159528572Y-15783333D01*
X159590477Y-15907143D01*
X159590477Y-16588095D01*
D11*
X144000000Y-17000000D02*
X168000000Y-17000000D01*
D13*
X150566667Y-40788095D02*
X150566667Y-41716667D01*
X150504763Y-41902381D01*
X150380953Y-42026190D01*
X150195239Y-42088095D01*
X150071429Y-42088095D01*
X151061905Y-40788095D02*
X151928572Y-40788095D01*
X151371429Y-42088095D01*
X150566667Y-34888095D02*
X150566667Y-35816667D01*
X150504763Y-36002381D01*
X150380953Y-36126190D01*
X150195239Y-36188095D01*
X150071429Y-36188095D01*
X151742858Y-34888095D02*
X151495239Y-34888095D01*
X151371429Y-34950000D01*
X151309524Y-35011905D01*
X151185715Y-35197619D01*
X151123810Y-35445238D01*
X151123810Y-35940476D01*
X151185715Y-36064286D01*
X151247620Y-36126190D01*
X151371429Y-36188095D01*
X151619048Y-36188095D01*
X151742858Y-36126190D01*
X151804762Y-36064286D01*
X151866667Y-35940476D01*
X151866667Y-35630952D01*
X151804762Y-35507143D01*
X151742858Y-35445238D01*
X151619048Y-35383333D01*
X151371429Y-35383333D01*
X151247620Y-35445238D01*
X151185715Y-35507143D01*
X151123810Y-35630952D01*
X150566667Y-28988095D02*
X150566667Y-29916667D01*
X150504763Y-30102381D01*
X150380953Y-30226190D01*
X150195239Y-30288095D01*
X150071429Y-30288095D01*
X151804762Y-28988095D02*
X151185715Y-28988095D01*
X151123810Y-29607143D01*
X151185715Y-29545238D01*
X151309524Y-29483333D01*
X151619048Y-29483333D01*
X151742858Y-29545238D01*
X151804762Y-29607143D01*
X151866667Y-29730952D01*
X151866667Y-30040476D01*
X151804762Y-30164286D01*
X151742858Y-30226190D01*
X151619048Y-30288095D01*
X151309524Y-30288095D01*
X151185715Y-30226190D01*
X151123810Y-30164286D01*
X150566667Y-22988095D02*
X150566667Y-23916667D01*
X150504763Y-24102381D01*
X150380953Y-24226190D01*
X150195239Y-24288095D01*
X150071429Y-24288095D01*
X151742858Y-23421429D02*
X151742858Y-24288095D01*
X151433334Y-22926190D02*
X151123810Y-23854762D01*
X151928572Y-23854762D01*
D11*
X148000000Y-36000000D02*
X148000000Y-35700000D01*
X149200000Y-36200000D02*
G75*
G03X149200000Y-36200000I-500000J0D01*
G01*
X148000000Y-26800000D02*
X147200000Y-26800000D01*
X148000000Y-28300000D02*
X148000000Y-26800000D01*
X148000000Y-37200000D02*
X147200000Y-37200000D01*
X148000000Y-36000000D02*
X148000000Y-37200000D01*
X144300000Y-26800000D02*
X144300000Y-37200000D01*
X153500000Y-41500000D02*
G75*
G03X153500000Y-41500000I-500000J0D01*
G01*
X153500000Y-35600000D02*
G75*
G03X153500000Y-35600000I-500000J0D01*
G01*
X166700000Y-46800000D02*
X166700000Y-46000000D01*
X165200000Y-46800000D02*
X166700000Y-46800000D01*
X156300000Y-43100000D02*
X166700000Y-43100000D01*
X167100000Y-40800000D02*
X167100000Y-40000000D01*
X165500000Y-40800000D02*
X167100000Y-40800000D01*
X152000000Y-40800000D02*
X152000000Y-40000000D01*
X153500000Y-40800000D02*
X152000000Y-40800000D01*
X167000000Y-37100000D02*
X152000000Y-37100000D01*
X152000000Y-31200000D02*
X167000000Y-31200000D01*
X167000000Y-34900000D02*
X167000000Y-34100000D01*
X165500000Y-34900000D02*
X167000000Y-34900000D01*
X152000000Y-34900000D02*
X152000000Y-34100000D01*
X153500000Y-34900000D02*
X152000000Y-34900000D01*
X153500000Y-29700000D02*
G75*
G03X153500000Y-29700000I-500000J0D01*
G01*
X167000000Y-25300000D02*
X152000000Y-25300000D01*
X167000000Y-29000000D02*
X167000000Y-28200000D01*
X165500000Y-29000000D02*
X167000000Y-29000000D01*
X152000000Y-29000000D02*
X152000000Y-28200000D01*
X153500000Y-29000000D02*
X152000000Y-29000000D01*
X153500000Y-23700000D02*
G75*
G03X153500000Y-23700000I-500000J0D01*
G01*
X152000000Y-23000000D02*
X152000000Y-22200000D01*
X153500000Y-23000000D02*
X152000000Y-23000000D01*
X167000000Y-23000000D02*
X167000000Y-22200000D01*
X165500000Y-23000000D02*
X167000000Y-23000000D01*
X157900000Y-19300000D02*
X167000000Y-19300000D01*
X152000000Y-19300000D02*
X153100000Y-19300000D01*
M02*
