G04 #@! TF.FileFunction,Copper,L1,Top,Signal*
%FSLAX46Y46*%
G04 Gerber Fmt 4.6, Leading zero omitted, Abs format (unit mm)*
G04 Created by KiCad (PCBNEW 4.0.2-stable) date 12/11/2016 19:10:46*
%MOMM*%
G01*
G04 APERTURE LIST*
%ADD10C,0.100000*%
%ADD11C,0.300000*%
%ADD12R,0.700000X3.200000*%
%ADD13R,1.500000X2.300000*%
%ADD14R,0.650000X1.060000*%
%ADD15R,3.200000X0.700000*%
%ADD16R,2.300000X1.500000*%
%ADD17R,1.060000X0.650000*%
%ADD18R,0.900000X0.500000*%
%ADD19R,0.500000X0.900000*%
%ADD20R,4.500880X1.998980*%
%ADD21R,2.235200X2.235200*%
%ADD22R,0.800000X0.750000*%
%ADD23R,0.750000X0.800000*%
%ADD24R,1.250000X1.000000*%
%ADD25C,5.000000*%
%ADD26R,1.000000X1.000000*%
%ADD27R,0.450000X1.380000*%
%ADD28R,1.475000X2.100000*%
%ADD29R,2.375000X1.900000*%
%ADD30R,1.175000X1.900000*%
%ADD31R,0.760000X2.400000*%
%ADD32C,0.452400*%
%ADD33C,0.600000*%
%ADD34C,0.450000*%
%ADD35C,0.250000*%
%ADD36C,0.152400*%
G04 APERTURE END LIST*
D10*
D11*
X154042858Y-20642857D02*
X153357143Y-20642857D01*
X153700001Y-20642857D02*
X153700001Y-19442857D01*
X153585715Y-19614286D01*
X153471429Y-19728571D01*
X153357143Y-19785714D01*
D12*
X154250000Y-40700000D03*
X155750000Y-40700000D03*
X157250000Y-40700000D03*
X158750000Y-40700000D03*
X160250000Y-40700000D03*
D13*
X166800000Y-38550000D03*
X152200000Y-38550000D03*
D12*
X161750000Y-40700000D03*
X163250000Y-40700000D03*
X164750000Y-40700000D03*
D14*
X162350000Y-51900000D03*
X163300000Y-51900000D03*
X164250000Y-51900000D03*
X164250000Y-49700000D03*
X162350000Y-49700000D03*
D12*
X154250000Y-34800000D03*
X155750000Y-34800000D03*
X157250000Y-34800000D03*
X158750000Y-34800000D03*
X160250000Y-34800000D03*
D13*
X166800000Y-32650000D03*
X152200000Y-32650000D03*
D12*
X161750000Y-34800000D03*
X163250000Y-34800000D03*
X164750000Y-34800000D03*
X154250000Y-28900000D03*
X155750000Y-28900000D03*
X157250000Y-28900000D03*
X158750000Y-28900000D03*
X160250000Y-28900000D03*
D13*
X166800000Y-26750000D03*
X152200000Y-26750000D03*
D12*
X161750000Y-28900000D03*
X163250000Y-28900000D03*
X164750000Y-28900000D03*
X154250000Y-22900000D03*
X155750000Y-22900000D03*
X157250000Y-22900000D03*
X158750000Y-22900000D03*
X160250000Y-22900000D03*
D13*
X166800000Y-20750000D03*
X152200000Y-20750000D03*
D12*
X161750000Y-22900000D03*
X163250000Y-22900000D03*
X164750000Y-22900000D03*
D15*
X147900000Y-29000000D03*
X147900000Y-30500000D03*
X147900000Y-32000000D03*
X147900000Y-33500000D03*
X147900000Y-35000000D03*
D16*
X145750000Y-26950000D03*
X145750000Y-37050000D03*
D17*
X147800000Y-51250000D03*
X147800000Y-52200000D03*
X147800000Y-53150000D03*
X150000000Y-53150000D03*
X150000000Y-51250000D03*
X150000000Y-52200000D03*
D18*
X154600000Y-53250000D03*
X154600000Y-51750000D03*
X152300000Y-51750000D03*
X152300000Y-53250000D03*
D19*
X154750000Y-55500000D03*
X156250000Y-55500000D03*
D20*
X158800000Y-52500520D03*
X158800000Y-58500000D03*
D19*
X165600000Y-49800000D03*
X167100000Y-49800000D03*
D21*
X150622000Y-47244000D03*
D22*
X160150000Y-50300000D03*
X158650000Y-50300000D03*
D23*
X155000000Y-57450000D03*
X155000000Y-58950000D03*
D22*
X148200000Y-49200000D03*
X149700000Y-49200000D03*
D24*
X145400000Y-53100000D03*
X145400000Y-51100000D03*
D25*
X147000000Y-22000000D03*
X165000000Y-57000000D03*
D26*
X151650000Y-49200000D03*
X154150000Y-49200000D03*
D27*
X147600000Y-55940000D03*
X148250000Y-55940000D03*
X148900000Y-55940000D03*
X149550000Y-55940000D03*
X150200000Y-55940000D03*
D28*
X146437500Y-56300000D03*
X151362500Y-56300000D03*
D29*
X151812500Y-58600000D03*
D30*
X149737500Y-58600000D03*
X148062500Y-58600000D03*
D29*
X145987500Y-58600000D03*
D31*
X145430000Y-45450000D03*
X145430000Y-41550000D03*
X146700000Y-45450000D03*
X146700000Y-41550000D03*
X147970000Y-45450000D03*
X147970000Y-41550000D03*
D23*
X166000000Y-52950000D03*
X166000000Y-51450000D03*
D12*
X154262000Y-46700000D03*
X155762000Y-46700000D03*
X157262000Y-46700000D03*
X158762000Y-46700000D03*
X160262000Y-46700000D03*
D13*
X166812000Y-44550000D03*
X152212000Y-44550000D03*
D12*
X161762000Y-46700000D03*
X163262000Y-46700000D03*
X164762000Y-46700000D03*
D32*
X155296390Y-53848000D03*
D33*
X164084000Y-46621390D03*
X157800000Y-53952412D03*
D32*
X167000000Y-52500000D03*
D33*
X155489216Y-55852402D03*
X159100000Y-49327410D03*
X163300000Y-50800000D03*
X148214948Y-35985052D03*
X155200000Y-43100000D03*
D32*
X155300000Y-49700000D03*
D33*
X159300000Y-37700000D03*
X161000000Y-31800000D03*
X160200000Y-31800000D03*
X159800000Y-20400000D03*
X158400000Y-20400000D03*
X159100000Y-20400000D03*
X156600000Y-30922590D03*
D32*
X167100000Y-52000000D03*
D33*
X152200000Y-36600000D03*
X152300000Y-24700000D03*
D32*
X150200000Y-32000000D03*
D33*
X153700000Y-58500000D03*
D32*
X155597449Y-51402551D03*
D33*
X146600000Y-51100000D03*
X146600000Y-52100000D03*
X150100000Y-57197598D03*
X152700000Y-56300000D03*
X145000000Y-57000000D03*
X145100000Y-56300000D03*
X147300000Y-35802402D03*
X149200000Y-38500000D03*
X147352402Y-37100000D03*
X150200000Y-42400000D03*
X150300000Y-40600000D03*
X167000000Y-40700000D03*
X154940000Y-45974000D03*
X157100000Y-56300000D03*
X156800000Y-56900000D03*
X157500000Y-56900000D03*
X149900000Y-29000000D03*
X166300000Y-36800000D03*
X159100000Y-31600000D03*
X157700000Y-43100000D03*
X152200000Y-40200000D03*
X150600000Y-30000000D03*
X146812000Y-47498000D03*
D32*
X144700000Y-43200000D03*
X145700000Y-32100000D03*
D33*
X165700000Y-42600000D03*
X163300000Y-49700000D03*
X161200000Y-50500000D03*
D32*
X160400000Y-54300000D03*
X152700000Y-57100000D03*
D33*
X162500000Y-20400000D03*
X162500000Y-32400000D03*
X165800000Y-41600000D03*
D32*
X145450000Y-43400000D03*
X150368000Y-43688000D03*
X156464000Y-44908420D03*
X164033398Y-45466000D03*
X150800000Y-34800000D03*
X150800000Y-32800000D03*
X154300000Y-43000000D03*
X155702000Y-48768000D03*
D33*
X154300000Y-25300000D03*
X155800000Y-25300000D03*
X157300000Y-25300000D03*
X158800000Y-25300000D03*
X160200000Y-25400000D03*
X161100000Y-25400000D03*
X162400000Y-25800000D03*
X164700000Y-25200000D03*
X154300000Y-26500000D03*
X156000000Y-26100000D03*
X157300000Y-26500000D03*
X158700000Y-26500000D03*
X160200000Y-26500000D03*
X161700000Y-26300000D03*
X163200000Y-26500000D03*
X164700000Y-26500000D03*
X154300000Y-37200000D03*
X155800000Y-37200000D03*
X157300000Y-37200000D03*
X158500000Y-37200000D03*
X160200000Y-37200000D03*
X161400000Y-37200000D03*
X163200000Y-37577410D03*
X164700000Y-37000000D03*
X154300000Y-38400000D03*
X155800000Y-38400000D03*
X157300000Y-38400000D03*
X158700000Y-38400000D03*
X160200000Y-38400000D03*
X161700000Y-38400000D03*
X163200000Y-38400000D03*
X164700000Y-38400000D03*
X146700000Y-53100000D03*
X151200000Y-53300000D03*
X145500000Y-47900000D03*
X148000000Y-47322590D03*
D32*
X161345190Y-48700000D03*
X162300000Y-48700000D03*
X148900000Y-57100000D03*
X148200000Y-57100000D03*
X146300000Y-43180000D03*
X164592000Y-42926000D03*
X161033398Y-46736000D03*
X162533398Y-46736000D03*
X150200009Y-31395199D03*
X153100000Y-30900000D03*
X162000000Y-31700000D03*
D34*
X150000000Y-52200000D02*
X150000000Y-53150000D01*
X152850000Y-54300000D02*
X150375000Y-54300000D01*
X150375000Y-54300000D02*
X150000000Y-53925000D01*
X154750000Y-55500000D02*
X154050000Y-55500000D01*
X154050000Y-55500000D02*
X152850000Y-54300000D01*
X150000000Y-53150000D02*
X150000000Y-53925000D01*
X150000000Y-53925000D02*
X149625000Y-54300000D01*
X149625000Y-54300000D02*
X147100000Y-54300000D01*
X146725000Y-54300000D02*
X145525000Y-53100000D01*
X145525000Y-53100000D02*
X145400000Y-53100000D01*
X147100000Y-54300000D02*
X146725000Y-54300000D01*
X147600000Y-55940000D02*
X147600000Y-54800000D01*
X147600000Y-54800000D02*
X147100000Y-54300000D01*
D35*
X154600000Y-51750000D02*
X155250000Y-51750000D01*
X155250000Y-51750000D02*
X155597449Y-51402551D01*
D34*
X164084000Y-46621390D02*
X164683390Y-46621390D01*
X164683390Y-46621390D02*
X164762000Y-46700000D01*
D35*
X166000000Y-51450000D02*
X166000000Y-51500000D01*
X166000000Y-51500000D02*
X167000000Y-52500000D01*
D34*
X158650000Y-50300000D02*
X158650000Y-49777410D01*
X158650000Y-49777410D02*
X159100000Y-49327410D01*
X163300000Y-51900000D02*
X163300000Y-50800000D01*
X147900000Y-35000000D02*
X147900000Y-35670104D01*
X147900000Y-35670104D02*
X148214948Y-35985052D01*
D35*
X154150000Y-49200000D02*
X154800000Y-49200000D01*
X154800000Y-49200000D02*
X155300000Y-49700000D01*
X147970000Y-41550000D02*
X147970000Y-40730000D01*
X147970000Y-40730000D02*
X148100000Y-40600000D01*
X148100000Y-40600000D02*
X149875736Y-40600000D01*
X149875736Y-40600000D02*
X150300000Y-40600000D01*
X167100000Y-49800000D02*
X167100000Y-52000000D01*
D34*
X155000000Y-58950000D02*
X154150000Y-58950000D01*
X154150000Y-58950000D02*
X153700000Y-58500000D01*
X151812500Y-58600000D02*
X153600000Y-58600000D01*
X153600000Y-58600000D02*
X153700000Y-58500000D01*
X150200000Y-55940000D02*
X150200000Y-57097598D01*
X145400000Y-51100000D02*
X146600000Y-51100000D01*
X147800000Y-52200000D02*
X146700000Y-52200000D01*
X146700000Y-52200000D02*
X146600000Y-52100000D01*
X150200000Y-57097598D02*
X150100000Y-57197598D01*
X151362500Y-56300000D02*
X152700000Y-56300000D01*
X145987500Y-58587500D02*
X145000000Y-57600000D01*
X145000000Y-57600000D02*
X145000000Y-57000000D01*
X145987500Y-58600000D02*
X145987500Y-58587500D01*
X146437500Y-56300000D02*
X145100000Y-56300000D01*
X147800000Y-51250000D02*
X147800000Y-49600000D01*
X147800000Y-49600000D02*
X148200000Y-49200000D01*
X150450000Y-50400000D02*
X151650000Y-49200000D01*
X150000000Y-50850000D02*
X150450000Y-50400000D01*
X150450000Y-50400000D02*
X155448530Y-50400000D01*
X155448530Y-50400000D02*
X157549050Y-52500520D01*
X157549050Y-52500520D02*
X158800000Y-52500520D01*
X150000000Y-51250000D02*
X150000000Y-50850000D01*
X150000000Y-51250000D02*
X150000000Y-49500000D01*
X150000000Y-49500000D02*
X149700000Y-49200000D01*
X154262000Y-46700000D02*
X154262000Y-46652000D01*
X154262000Y-46652000D02*
X154940000Y-45974000D01*
X156800000Y-56900000D02*
X156800000Y-57324264D01*
X156800000Y-57324264D02*
X156975736Y-57500000D01*
X157200000Y-57300000D02*
X157400000Y-57500000D01*
X156800000Y-56900000D02*
X157200000Y-57300000D01*
X157100000Y-56300000D02*
X157100000Y-56600000D01*
X157100000Y-56600000D02*
X156800000Y-56900000D01*
X156800000Y-56900000D02*
X156800000Y-57400000D01*
X157500000Y-57200000D02*
X158800000Y-58500000D01*
X157500000Y-56900000D02*
X157500000Y-57200000D01*
X157500000Y-56900000D02*
X156800000Y-56900000D01*
X157500000Y-56700000D02*
X157100000Y-56300000D01*
X157500000Y-56900000D02*
X157500000Y-56700000D01*
X147900000Y-29000000D02*
X149900000Y-29000000D01*
X166000000Y-52950000D02*
X165175000Y-52950000D01*
X165175000Y-52950000D02*
X165105000Y-52880000D01*
X165105000Y-52880000D02*
X164250000Y-52880000D01*
X164250000Y-51900000D02*
X164250000Y-52880000D01*
X164250000Y-52880000D02*
X163629490Y-53500510D01*
X163629490Y-53500510D02*
X162350000Y-53500510D01*
X162350000Y-51900000D02*
X162350000Y-53500510D01*
X162350000Y-53500510D02*
X158800000Y-57050510D01*
D35*
X152300000Y-51750000D02*
X152500000Y-51750000D01*
X155800000Y-55000000D02*
X156250000Y-55450000D01*
X152500000Y-51750000D02*
X153250000Y-52500000D01*
X153250000Y-52500000D02*
X155500000Y-52500000D01*
X155500000Y-52500000D02*
X155800000Y-52800000D01*
X155800000Y-52800000D02*
X155800000Y-55000000D01*
X156250000Y-55450000D02*
X156250000Y-55500000D01*
D34*
X158800000Y-58500000D02*
X158800000Y-57050510D01*
X158800000Y-57050510D02*
X157249490Y-55500000D01*
X157249490Y-55500000D02*
X156950000Y-55500000D01*
X156950000Y-55500000D02*
X156250000Y-55500000D01*
X156250000Y-55500000D02*
X156250000Y-56200000D01*
X156250000Y-56200000D02*
X155000000Y-57450000D01*
X163262000Y-46700000D02*
X163262000Y-49662000D01*
X163262000Y-49662000D02*
X163300000Y-49700000D01*
X145430000Y-41550000D02*
X145430000Y-42470000D01*
X145430000Y-42470000D02*
X144700000Y-43200000D01*
D35*
X145430000Y-41550000D02*
X145430000Y-42370000D01*
D34*
X162350000Y-49700000D02*
X163300000Y-49700000D01*
X160150000Y-50300000D02*
X161000000Y-50300000D01*
X161000000Y-50300000D02*
X161200000Y-50500000D01*
X162350000Y-49700000D02*
X160750000Y-49700000D01*
X160750000Y-49700000D02*
X160150000Y-50300000D01*
D36*
X153800000Y-32400000D02*
X162500000Y-32400000D01*
X153400000Y-32800000D02*
X153800000Y-32400000D01*
X153400000Y-34100000D02*
X153400000Y-32800000D01*
X153200000Y-34300000D02*
X153400000Y-34100000D01*
X150973106Y-34300000D02*
X153200000Y-34300000D01*
X147900000Y-33500000D02*
X150173106Y-33500000D01*
X150173106Y-33500000D02*
X150973106Y-34300000D01*
D35*
X165600000Y-20600000D02*
X165400000Y-20400000D01*
X165400000Y-20400000D02*
X162500000Y-20400000D01*
X165600000Y-21300000D02*
X165600000Y-20600000D01*
X165600000Y-32600000D02*
X165600000Y-21300000D01*
X165600000Y-32600000D02*
X165400000Y-32400000D01*
X165400000Y-32400000D02*
X162500000Y-32400000D01*
X165600000Y-40200000D02*
X165600000Y-32600000D01*
X165800000Y-40400000D02*
X165600000Y-40200000D01*
X165800000Y-41600000D02*
X165800000Y-40400000D01*
D36*
X150368000Y-43688000D02*
X145738000Y-43688000D01*
X145738000Y-43688000D02*
X145450000Y-43400000D01*
X158762000Y-46700000D02*
X158762000Y-47950000D01*
X158762000Y-47950000D02*
X158183399Y-48528601D01*
X158183399Y-48528601D02*
X156729119Y-48528601D01*
X156464000Y-48263482D02*
X156464000Y-44908420D01*
X156729119Y-48528601D02*
X156464000Y-48263482D01*
X158762000Y-46700000D02*
X158762000Y-45450000D01*
X158762000Y-45450000D02*
X159340601Y-44871399D01*
X159340601Y-44871399D02*
X163794881Y-44871399D01*
X163794881Y-44871399D02*
X164033398Y-45109916D01*
X164033398Y-45109916D02*
X164033398Y-45466000D01*
X153162000Y-42672000D02*
X153972000Y-42672000D01*
X153972000Y-42672000D02*
X154300000Y-43000000D01*
X150807670Y-40317670D02*
X153162000Y-42672000D01*
X150800000Y-40317670D02*
X150807670Y-40317670D01*
X150800000Y-34800000D02*
X150800000Y-40317670D01*
X150800000Y-40317670D02*
X150828601Y-40346271D01*
X150828601Y-31328601D02*
X150828601Y-32771399D01*
X150828601Y-32771399D02*
X150800000Y-32800000D01*
X150828601Y-31328601D02*
X150000000Y-30500000D01*
X150000000Y-30500000D02*
X147900000Y-30500000D01*
X155702000Y-48768000D02*
X155702000Y-46760000D01*
X155702000Y-46760000D02*
X155762000Y-46700000D01*
D35*
X154300000Y-25300000D02*
X154300000Y-22950000D01*
X154300000Y-22950000D02*
X154250000Y-22900000D01*
X155800000Y-25300000D02*
X155800000Y-22950000D01*
X155800000Y-22950000D02*
X155750000Y-22900000D01*
X157300000Y-25300000D02*
X157300000Y-22950000D01*
X157300000Y-22950000D02*
X157250000Y-22900000D01*
X158750000Y-22900000D02*
X158750000Y-25250000D01*
X158750000Y-25250000D02*
X158800000Y-25300000D01*
X160200000Y-25400000D02*
X160200000Y-22950000D01*
X160200000Y-22950000D02*
X160250000Y-22900000D01*
X161100000Y-25400000D02*
X161750000Y-24750000D01*
X161750000Y-24750000D02*
X161750000Y-22900000D01*
X162400000Y-25800000D02*
X163250000Y-24950000D01*
X163250000Y-24950000D02*
X163250000Y-22900000D01*
X164700000Y-25200000D02*
X164700000Y-22950000D01*
X164700000Y-22950000D02*
X164750000Y-22900000D01*
X154300000Y-26500000D02*
X154300000Y-28850000D01*
X154300000Y-28850000D02*
X154250000Y-28900000D01*
X156000000Y-26100000D02*
X156000000Y-28650000D01*
X156000000Y-28650000D02*
X155750000Y-28900000D01*
X157300000Y-26500000D02*
X157300000Y-28850000D01*
X157300000Y-28850000D02*
X157250000Y-28900000D01*
X158700000Y-26500000D02*
X158700000Y-28850000D01*
X158700000Y-28850000D02*
X158750000Y-28900000D01*
X160200000Y-26500000D02*
X160200000Y-28850000D01*
X160200000Y-28850000D02*
X160250000Y-28900000D01*
X161700000Y-26300000D02*
X161700000Y-28850000D01*
X161700000Y-28850000D02*
X161750000Y-28900000D01*
X163200000Y-26500000D02*
X163200000Y-28850000D01*
X163200000Y-28850000D02*
X163250000Y-28900000D01*
X164700000Y-26500000D02*
X164700000Y-28850000D01*
X164700000Y-28850000D02*
X164750000Y-28900000D01*
X154300000Y-37200000D02*
X154300000Y-34850000D01*
X154300000Y-34850000D02*
X154250000Y-34800000D01*
X155800000Y-37200000D02*
X155800000Y-34850000D01*
X155800000Y-34850000D02*
X155750000Y-34800000D01*
X157300000Y-37200000D02*
X157300000Y-34850000D01*
X157300000Y-34850000D02*
X157250000Y-34800000D01*
X158500000Y-37200000D02*
X158500000Y-35050000D01*
X158500000Y-35050000D02*
X158750000Y-34800000D01*
X158700000Y-34850000D02*
X158750000Y-34800000D01*
X160200000Y-37200000D02*
X160200000Y-34850000D01*
X160200000Y-34850000D02*
X160250000Y-34800000D01*
X161400000Y-37200000D02*
X161750000Y-36850000D01*
X161750000Y-36850000D02*
X161750000Y-34800000D01*
X163200000Y-37577410D02*
X163200000Y-34850000D01*
X163200000Y-34850000D02*
X163250000Y-34800000D01*
X164700000Y-37000000D02*
X164700000Y-34850000D01*
X164700000Y-34850000D02*
X164750000Y-34800000D01*
X154300000Y-38400000D02*
X154300000Y-40650000D01*
X154300000Y-40650000D02*
X154250000Y-40700000D01*
X155800000Y-38400000D02*
X155800000Y-40650000D01*
X155800000Y-40650000D02*
X155750000Y-40700000D01*
X157300000Y-38400000D02*
X157300000Y-40650000D01*
X157300000Y-40650000D02*
X157250000Y-40700000D01*
X158700000Y-38400000D02*
X158700000Y-40650000D01*
X158700000Y-40650000D02*
X158750000Y-40700000D01*
X160200000Y-38400000D02*
X160200000Y-40650000D01*
X160200000Y-40650000D02*
X160250000Y-40700000D01*
X161700000Y-38400000D02*
X161700000Y-40650000D01*
X161700000Y-40650000D02*
X161750000Y-40700000D01*
X163200000Y-38400000D02*
X163200000Y-40650000D01*
X163200000Y-40650000D02*
X163250000Y-40700000D01*
X164700000Y-38400000D02*
X164700000Y-40650000D01*
X164700000Y-40650000D02*
X164750000Y-40700000D01*
D34*
X164250000Y-49700000D02*
X165500000Y-49700000D01*
X165500000Y-49700000D02*
X165600000Y-49800000D01*
D35*
X146700000Y-53100000D02*
X147750000Y-53100000D01*
X147750000Y-53100000D02*
X147800000Y-53150000D01*
X152300000Y-53250000D02*
X151250000Y-53250000D01*
X151250000Y-53250000D02*
X151200000Y-53300000D01*
X154600000Y-53250000D02*
X152300000Y-53250000D01*
X145500000Y-47900000D02*
X145500000Y-45520000D01*
X145500000Y-45520000D02*
X145430000Y-45450000D01*
X148000000Y-47322590D02*
X148000000Y-45480000D01*
X148000000Y-45480000D02*
X147970000Y-45450000D01*
D36*
X162300000Y-48700000D02*
X161345190Y-48700000D01*
D35*
X148900000Y-55940000D02*
X148900000Y-57100000D01*
X148250000Y-55940000D02*
X148250000Y-57050000D01*
X148250000Y-57050000D02*
X148200000Y-57100000D01*
D36*
X150571190Y-42976810D02*
X150368000Y-43180000D01*
X150368000Y-43180000D02*
X146300000Y-43180000D01*
X154588894Y-43962000D02*
X157206000Y-43962000D01*
X157206000Y-43962000D02*
X157262000Y-43906000D01*
X157480000Y-43688000D02*
X157262000Y-43906000D01*
X157262000Y-43906000D02*
X157262000Y-46700000D01*
X159024000Y-43688000D02*
X157480000Y-43688000D01*
X159786000Y-42926000D02*
X159024000Y-43688000D01*
X153603704Y-42976810D02*
X150571190Y-42976810D01*
X154588894Y-43962000D02*
X153603704Y-42976810D01*
X157262000Y-46700000D02*
X157262000Y-45450000D01*
X159786000Y-42926000D02*
X164592000Y-42926000D01*
X161033398Y-46736000D02*
X160298000Y-46736000D01*
X160298000Y-46736000D02*
X160262000Y-46700000D01*
X162533398Y-46736000D02*
X161798000Y-46736000D01*
X161798000Y-46736000D02*
X161762000Y-46700000D01*
X150200009Y-31395199D02*
X148002401Y-31395199D01*
X148002401Y-31395199D02*
X147900000Y-31497600D01*
X147900000Y-31497600D02*
X147900000Y-32000000D01*
X162000000Y-31700000D02*
X161200000Y-30900000D01*
X161200000Y-30900000D02*
X157404920Y-30900000D01*
X157404920Y-30900000D02*
X156853729Y-31451191D01*
X156853729Y-31451191D02*
X153651191Y-31451191D01*
X153651191Y-31451191D02*
X153100000Y-30900000D01*
M02*
