G04 #@! TF.FileFunction,Copper,L4,Bot,Signal*
%FSLAX46Y46*%
G04 Gerber Fmt 4.6, Leading zero omitted, Abs format (unit mm)*
G04 Created by KiCad (PCBNEW 4.0.2-stable) date 12/11/2016 19:10:46*
%MOMM*%
G01*
G04 APERTURE LIST*
%ADD10C,0.100000*%
%ADD11C,0.300000*%
%ADD12R,0.550000X0.850000*%
%ADD13R,0.600000X0.500000*%
%ADD14R,0.400000X1.200000*%
%ADD15R,1.600000X0.550000*%
%ADD16R,0.550000X1.600000*%
%ADD17R,0.300000X1.400000*%
%ADD18R,0.900000X0.500000*%
%ADD19R,0.500000X0.900000*%
%ADD20R,2.235200X2.235200*%
%ADD21R,0.800000X0.750000*%
%ADD22R,2.032000X1.524000*%
%ADD23R,0.750000X0.800000*%
%ADD24C,5.000000*%
%ADD25R,1.400000X1.000000*%
%ADD26C,0.452400*%
%ADD27C,0.600000*%
%ADD28C,0.250000*%
%ADD29C,0.450000*%
%ADD30C,0.152400*%
G04 APERTURE END LIST*
D10*
X166752381Y-20138094D02*
X166714286Y-20061904D01*
X166714286Y-19909523D01*
X166752381Y-19833332D01*
X166828571Y-19757142D01*
X166904762Y-19719047D01*
X167057143Y-19719047D01*
X167133333Y-19757142D01*
X167209524Y-19833332D01*
X167247619Y-19909523D01*
X167247619Y-20061904D01*
X167209524Y-20138094D01*
X166447619Y-19985713D02*
X166485714Y-19795237D01*
X166600000Y-19604761D01*
X166790476Y-19490475D01*
X166980952Y-19452380D01*
X167171429Y-19490475D01*
X167361905Y-19604761D01*
X167476190Y-19795237D01*
X167514286Y-19985713D01*
X167476190Y-20176189D01*
X167361905Y-20366666D01*
X167171429Y-20480951D01*
X166980952Y-20519047D01*
X166790476Y-20480951D01*
X166600000Y-20366666D01*
X166485714Y-20176189D01*
X166447619Y-19985713D01*
X166638095Y-20823809D02*
X166600000Y-20861904D01*
X166561905Y-20938095D01*
X166561905Y-21128571D01*
X166600000Y-21204761D01*
X166638095Y-21242857D01*
X166714286Y-21280952D01*
X166790476Y-21280952D01*
X166904762Y-21242857D01*
X167361905Y-20785714D01*
X167361905Y-21280952D01*
X166561905Y-21776190D02*
X166561905Y-21852381D01*
X166600000Y-21928571D01*
X166638095Y-21966666D01*
X166714286Y-22004762D01*
X166866667Y-22042857D01*
X167057143Y-22042857D01*
X167209524Y-22004762D01*
X167285714Y-21966666D01*
X167323810Y-21928571D01*
X167361905Y-21852381D01*
X167361905Y-21776190D01*
X167323810Y-21700000D01*
X167285714Y-21661904D01*
X167209524Y-21623809D01*
X167057143Y-21585714D01*
X166866667Y-21585714D01*
X166714286Y-21623809D01*
X166638095Y-21661904D01*
X166600000Y-21700000D01*
X166561905Y-21776190D01*
X167361905Y-22804762D02*
X167361905Y-22347619D01*
X167361905Y-22576190D02*
X166561905Y-22576190D01*
X166676190Y-22500000D01*
X166752381Y-22423809D01*
X166790476Y-22347619D01*
X166561905Y-23490476D02*
X166561905Y-23338095D01*
X166600000Y-23261905D01*
X166638095Y-23223810D01*
X166752381Y-23147619D01*
X166904762Y-23109524D01*
X167209524Y-23109524D01*
X167285714Y-23147619D01*
X167323810Y-23185714D01*
X167361905Y-23261905D01*
X167361905Y-23414286D01*
X167323810Y-23490476D01*
X167285714Y-23528572D01*
X167209524Y-23566667D01*
X167019048Y-23566667D01*
X166942857Y-23528572D01*
X166904762Y-23490476D01*
X166866667Y-23414286D01*
X166866667Y-23261905D01*
X166904762Y-23185714D01*
X166942857Y-23147619D01*
X167019048Y-23109524D01*
X167361905Y-24519048D02*
X166561905Y-24519048D01*
X166561905Y-24823810D01*
X166600000Y-24900001D01*
X166638095Y-24938096D01*
X166714286Y-24976191D01*
X166828571Y-24976191D01*
X166904762Y-24938096D01*
X166942857Y-24900001D01*
X166980952Y-24823810D01*
X166980952Y-24519048D01*
X167361905Y-25661905D02*
X166942857Y-25661905D01*
X166866667Y-25623810D01*
X166828571Y-25547620D01*
X166828571Y-25395239D01*
X166866667Y-25319048D01*
X167323810Y-25661905D02*
X167361905Y-25585715D01*
X167361905Y-25395239D01*
X167323810Y-25319048D01*
X167247619Y-25280953D01*
X167171429Y-25280953D01*
X167095238Y-25319048D01*
X167057143Y-25395239D01*
X167057143Y-25585715D01*
X167019048Y-25661905D01*
X166828571Y-26385715D02*
X167361905Y-26385715D01*
X166828571Y-26042858D02*
X167247619Y-26042858D01*
X167323810Y-26080953D01*
X167361905Y-26157144D01*
X167361905Y-26271430D01*
X167323810Y-26347620D01*
X167285714Y-26385715D01*
X167361905Y-26880954D02*
X167323810Y-26804763D01*
X167247619Y-26766668D01*
X166561905Y-26766668D01*
X167438095Y-28328574D02*
X167400000Y-28252383D01*
X167323810Y-28176193D01*
X167209524Y-28061907D01*
X167171429Y-27985716D01*
X167171429Y-27909526D01*
X167361905Y-27947621D02*
X167323810Y-27871431D01*
X167247619Y-27795240D01*
X167095238Y-27757145D01*
X166828571Y-27757145D01*
X166676190Y-27795240D01*
X166600000Y-27871431D01*
X166561905Y-27947621D01*
X166561905Y-28100002D01*
X166600000Y-28176193D01*
X166676190Y-28252383D01*
X166828571Y-28290478D01*
X167095238Y-28290478D01*
X167247619Y-28252383D01*
X167323810Y-28176193D01*
X167361905Y-28100002D01*
X167361905Y-27947621D01*
X166828571Y-28976192D02*
X167361905Y-28976192D01*
X166828571Y-28633335D02*
X167247619Y-28633335D01*
X167323810Y-28671430D01*
X167361905Y-28747621D01*
X167361905Y-28861907D01*
X167323810Y-28938097D01*
X167285714Y-28976192D01*
X167361905Y-29357145D02*
X166828571Y-29357145D01*
X166980952Y-29357145D02*
X166904762Y-29395240D01*
X166866667Y-29433336D01*
X166828571Y-29509526D01*
X166828571Y-29585717D01*
X167323810Y-30157145D02*
X167361905Y-30080955D01*
X167361905Y-29928574D01*
X167323810Y-29852383D01*
X167247619Y-29814288D01*
X166942857Y-29814288D01*
X166866667Y-29852383D01*
X166828571Y-29928574D01*
X166828571Y-30080955D01*
X166866667Y-30157145D01*
X166942857Y-30195240D01*
X167019048Y-30195240D01*
X167095238Y-29814288D01*
X167323810Y-30500002D02*
X167361905Y-30576192D01*
X167361905Y-30728573D01*
X167323810Y-30804764D01*
X167247619Y-30842859D01*
X167209524Y-30842859D01*
X167133333Y-30804764D01*
X167095238Y-30728573D01*
X167095238Y-30614288D01*
X167057143Y-30538097D01*
X166980952Y-30500002D01*
X166942857Y-30500002D01*
X166866667Y-30538097D01*
X166828571Y-30614288D01*
X166828571Y-30728573D01*
X166866667Y-30804764D01*
X167361905Y-31185716D02*
X166561905Y-31185716D01*
X167361905Y-31528573D02*
X166942857Y-31528573D01*
X166866667Y-31490478D01*
X166828571Y-31414288D01*
X166828571Y-31300002D01*
X166866667Y-31223811D01*
X166904762Y-31185716D01*
X167361905Y-31909526D02*
X166828571Y-31909526D01*
X166561905Y-31909526D02*
X166600000Y-31871431D01*
X166638095Y-31909526D01*
X166600000Y-31947621D01*
X166561905Y-31909526D01*
X166638095Y-31909526D01*
D11*
X157428572Y-19842857D02*
X157428572Y-20642857D01*
X157142858Y-19385714D02*
X156857143Y-20242857D01*
X157600001Y-20242857D01*
D12*
X152525000Y-54975000D03*
X155475000Y-54975000D03*
X155475000Y-53025000D03*
X152525000Y-53025000D03*
D13*
X153500000Y-55150000D03*
X154500000Y-55150000D03*
X154500000Y-52850000D03*
X153500000Y-52850000D03*
D14*
X156007500Y-35100000D03*
X156642500Y-35100000D03*
X157277500Y-35100000D03*
X157912500Y-35100000D03*
X158547500Y-35100000D03*
X159182500Y-35100000D03*
X159817500Y-35100000D03*
X160452500Y-35100000D03*
X161087500Y-35100000D03*
X161722500Y-35100000D03*
X162357500Y-35100000D03*
X162992500Y-35100000D03*
X162992500Y-40300000D03*
X162357500Y-40300000D03*
X161722500Y-40300000D03*
X161087500Y-40300000D03*
X160452500Y-40300000D03*
X159817500Y-40300000D03*
X159182500Y-40300000D03*
X158547500Y-40300000D03*
X157912500Y-40300000D03*
X157277500Y-40300000D03*
X156642500Y-40300000D03*
X156007500Y-40300000D03*
X156007500Y-23300000D03*
X156642500Y-23300000D03*
X157277500Y-23300000D03*
X157912500Y-23300000D03*
X158547500Y-23300000D03*
X159182500Y-23300000D03*
X159817500Y-23300000D03*
X160452500Y-23300000D03*
X161087500Y-23300000D03*
X161722500Y-23300000D03*
X162357500Y-23300000D03*
X162992500Y-23300000D03*
X162992500Y-28500000D03*
X162357500Y-28500000D03*
X161722500Y-28500000D03*
X161087500Y-28500000D03*
X160452500Y-28500000D03*
X159817500Y-28500000D03*
X159182500Y-28500000D03*
X158547500Y-28500000D03*
X157912500Y-28500000D03*
X157277500Y-28500000D03*
X156642500Y-28500000D03*
X156007500Y-28500000D03*
D15*
X157550000Y-51150000D03*
X157550000Y-50350000D03*
X157550000Y-49550000D03*
X157550000Y-48750000D03*
X157550000Y-47950000D03*
X157550000Y-47150000D03*
X157550000Y-46350000D03*
X157550000Y-45550000D03*
D16*
X159000000Y-44100000D03*
X159800000Y-44100000D03*
X160600000Y-44100000D03*
X161400000Y-44100000D03*
X162200000Y-44100000D03*
X163000000Y-44100000D03*
X163800000Y-44100000D03*
X164600000Y-44100000D03*
D15*
X166050000Y-45550000D03*
X166050000Y-46350000D03*
X166050000Y-47150000D03*
X166050000Y-47950000D03*
X166050000Y-48750000D03*
X166050000Y-49550000D03*
X166050000Y-50350000D03*
X166050000Y-51150000D03*
D16*
X164600000Y-52600000D03*
X163800000Y-52600000D03*
X163000000Y-52600000D03*
X162200000Y-52600000D03*
X161400000Y-52600000D03*
X160600000Y-52600000D03*
X159800000Y-52600000D03*
X159000000Y-52600000D03*
D17*
X148300000Y-38500000D03*
X147800000Y-38500000D03*
X147300000Y-38500000D03*
X146800000Y-38500000D03*
X146300000Y-38500000D03*
X146300000Y-34100000D03*
X146800000Y-34100000D03*
X147300000Y-34100000D03*
X147800000Y-34100000D03*
X148300000Y-34100000D03*
D18*
X166300000Y-37850000D03*
X166300000Y-39350000D03*
D19*
X162050000Y-30400000D03*
X163550000Y-30400000D03*
X146950000Y-44300000D03*
X145450000Y-44300000D03*
X146950000Y-46300000D03*
X145450000Y-46300000D03*
X147750000Y-42400000D03*
X149250000Y-42400000D03*
D20*
X150622000Y-47244000D03*
D21*
X153850000Y-56700000D03*
X155350000Y-56700000D03*
X157350000Y-42300000D03*
X155850000Y-42300000D03*
X159150000Y-30400000D03*
X157650000Y-30400000D03*
D22*
X152300000Y-29551000D03*
X152300000Y-26249000D03*
X152200000Y-41551000D03*
X152200000Y-38249000D03*
D21*
X159350000Y-54700000D03*
X157850000Y-54700000D03*
D23*
X167000000Y-43450000D03*
X167000000Y-41950000D03*
D21*
X146850000Y-32000000D03*
X148350000Y-32000000D03*
X147750000Y-40600000D03*
X149250000Y-40600000D03*
D24*
X147000000Y-22000000D03*
X165000000Y-57000000D03*
D25*
X151808000Y-50000000D03*
X154008000Y-50000000D03*
X154008000Y-51600000D03*
X151808000Y-51600000D03*
D26*
X155296390Y-53848000D03*
D27*
X164084000Y-46621390D03*
X157800000Y-53952412D03*
D26*
X167000000Y-52500000D03*
D27*
X155489216Y-55852402D03*
X159100000Y-49327410D03*
X163300000Y-50800000D03*
X148214948Y-35985052D03*
X155200000Y-43100000D03*
D26*
X155300000Y-49700000D03*
D27*
X159300000Y-37700000D03*
X161000000Y-31800000D03*
X160200000Y-31800000D03*
X159800000Y-20400000D03*
X158400000Y-20400000D03*
X159100000Y-20400000D03*
X156600000Y-30922590D03*
D26*
X167100000Y-52000000D03*
D27*
X152200000Y-36600000D03*
X152300000Y-24700000D03*
D26*
X150200000Y-32000000D03*
D27*
X153700000Y-58500000D03*
D26*
X155597449Y-51402551D03*
D27*
X146600000Y-51100000D03*
X146600000Y-52100000D03*
X150100000Y-57197598D03*
X152700000Y-56300000D03*
X145000000Y-57000000D03*
X145100000Y-56300000D03*
X147300000Y-35802402D03*
X149200000Y-38500000D03*
X147352402Y-37100000D03*
X150200000Y-42400000D03*
X150300000Y-40600000D03*
X167000000Y-40700000D03*
X154940000Y-45974000D03*
X157100000Y-56300000D03*
X156800000Y-56900000D03*
X157500000Y-56900000D03*
X149900000Y-29000000D03*
X166300000Y-36800000D03*
X159100000Y-31600000D03*
X157700000Y-43100000D03*
X152200000Y-40200000D03*
X150600000Y-30000000D03*
X146812000Y-47498000D03*
D26*
X144700000Y-43200000D03*
X145700000Y-32100000D03*
D27*
X165700000Y-42600000D03*
X163300000Y-49700000D03*
X161200000Y-50500000D03*
D26*
X160400000Y-54300000D03*
X152700000Y-57100000D03*
D27*
X162500000Y-20400000D03*
X162500000Y-32400000D03*
X165800000Y-41600000D03*
D26*
X145450000Y-43400000D03*
X150368000Y-43688000D03*
X156464000Y-44908420D03*
X164033398Y-45466000D03*
X150800000Y-34800000D03*
X150800000Y-32800000D03*
X154300000Y-43000000D03*
X155702000Y-48768000D03*
D27*
X154300000Y-25300000D03*
X155800000Y-25300000D03*
X157300000Y-25300000D03*
X158800000Y-25300000D03*
X160200000Y-25400000D03*
X161100000Y-25400000D03*
X162400000Y-25800000D03*
X164700000Y-25200000D03*
X154300000Y-26500000D03*
X156000000Y-26100000D03*
X157300000Y-26500000D03*
X158700000Y-26500000D03*
X160200000Y-26500000D03*
X161700000Y-26300000D03*
X163200000Y-26500000D03*
X164700000Y-26500000D03*
X154300000Y-37200000D03*
X155800000Y-37200000D03*
X157300000Y-37200000D03*
X158500000Y-37200000D03*
X160200000Y-37200000D03*
X161400000Y-37200000D03*
X163200000Y-37577410D03*
X164700000Y-37000000D03*
X154300000Y-38400000D03*
X155800000Y-38400000D03*
X157300000Y-38400000D03*
X158700000Y-38400000D03*
X160200000Y-38400000D03*
X161700000Y-38400000D03*
X163200000Y-38400000D03*
X164700000Y-38400000D03*
X146700000Y-53100000D03*
X151200000Y-53300000D03*
X145500000Y-47900000D03*
X148000000Y-47322590D03*
D26*
X161345190Y-48700000D03*
X162300000Y-48700000D03*
X148900000Y-57100000D03*
X148200000Y-57100000D03*
X146300000Y-43180000D03*
X164592000Y-42926000D03*
X161033398Y-46736000D03*
X162533398Y-46736000D03*
X150200009Y-31395199D03*
X153100000Y-30900000D03*
X162000000Y-31700000D03*
D28*
X154008000Y-50000000D02*
X155000000Y-50000000D01*
X155000000Y-50000000D02*
X155300000Y-49700000D01*
X155475000Y-53025000D02*
X155475000Y-53669390D01*
X155475000Y-53669390D02*
X155296390Y-53848000D01*
D29*
X164429190Y-46350000D02*
X164355390Y-46350000D01*
X164355390Y-46350000D02*
X164084000Y-46621390D01*
X166050000Y-46350000D02*
X164429190Y-46350000D01*
X157850000Y-54700000D02*
X157850000Y-54002412D01*
X157850000Y-54002412D02*
X157800000Y-53952412D01*
D28*
X155200000Y-43100000D02*
X155624264Y-43100000D01*
X155624264Y-43100000D02*
X155850000Y-42874264D01*
X155850000Y-42874264D02*
X155850000Y-42850000D01*
X155850000Y-42300000D02*
X155850000Y-42850000D01*
D29*
X155350000Y-56700000D02*
X155350000Y-55991618D01*
X155350000Y-55991618D02*
X155489216Y-55852402D01*
X159800000Y-20400000D02*
X159100000Y-20400000D01*
X159100000Y-20400000D02*
X158400000Y-20400000D01*
D28*
X147300000Y-34100000D02*
X147300000Y-33025000D01*
X147300000Y-33025000D02*
X148325000Y-32000000D01*
X148325000Y-32000000D02*
X148350000Y-32000000D01*
D29*
X155850000Y-42300000D02*
X155850000Y-42450000D01*
X159182500Y-35100000D02*
X159182500Y-37582500D01*
X159182500Y-37582500D02*
X159300000Y-37700000D01*
X160200000Y-31800000D02*
X161000000Y-31800000D01*
X159182500Y-35100000D02*
X159182500Y-32817500D01*
X159182500Y-32817500D02*
X160200000Y-31800000D01*
X159182500Y-23300000D02*
X159182500Y-20482500D01*
X159182500Y-20482500D02*
X159100000Y-20400000D01*
X157650000Y-30400000D02*
X157122590Y-30400000D01*
X157122590Y-30400000D02*
X156600000Y-30922590D01*
X152200000Y-38249000D02*
X152200000Y-36600000D01*
X152300000Y-26249000D02*
X152300000Y-24700000D01*
D30*
X148350000Y-32000000D02*
X150200000Y-32000000D01*
D28*
X157550000Y-51150000D02*
X155850000Y-51150000D01*
X155850000Y-51150000D02*
X155597449Y-51402551D01*
X147300000Y-34100000D02*
X147300000Y-35802402D01*
X148300000Y-38500000D02*
X149200000Y-38500000D01*
X147300000Y-38500000D02*
X147300000Y-37152402D01*
X147300000Y-37152402D02*
X147352402Y-37100000D01*
D29*
X149250000Y-42400000D02*
X150200000Y-42400000D01*
X149250000Y-40600000D02*
X150300000Y-40600000D01*
X167000000Y-41950000D02*
X167000000Y-40700000D01*
D30*
X157350000Y-42300000D02*
X157350000Y-42750000D01*
X157350000Y-42750000D02*
X157700000Y-43100000D01*
D29*
X166300000Y-37850000D02*
X166300000Y-36800000D01*
X159182500Y-41982500D02*
X158865000Y-42300000D01*
X158865000Y-42300000D02*
X157350000Y-42300000D01*
X159182500Y-40300000D02*
X159182500Y-41982500D01*
X159150000Y-30400000D02*
X159150000Y-31550000D01*
X159150000Y-31550000D02*
X159100000Y-31600000D01*
X162050000Y-30400000D02*
X159150000Y-30400000D01*
X159150000Y-30400000D02*
X159150000Y-28532500D01*
X159150000Y-28532500D02*
X159182500Y-28500000D01*
X152200000Y-41551000D02*
X152200000Y-40200000D01*
X152300000Y-29551000D02*
X151049000Y-29551000D01*
X151049000Y-29551000D02*
X150600000Y-30000000D01*
D28*
X150622000Y-47244000D02*
X150622000Y-44958000D01*
X150622000Y-44958000D02*
X148064000Y-42400000D01*
X148064000Y-42400000D02*
X147750000Y-42400000D01*
X147750000Y-42400000D02*
X147750000Y-42404670D01*
X147800000Y-38500000D02*
X147800000Y-40550000D01*
X147800000Y-40550000D02*
X147750000Y-40600000D01*
X147750000Y-42400000D02*
X147750000Y-40600000D01*
X152525000Y-53025000D02*
X152525000Y-52317000D01*
X152525000Y-52317000D02*
X151808000Y-51600000D01*
X146950000Y-44300000D02*
X146950000Y-46300000D01*
X146950000Y-46300000D02*
X146950000Y-47360000D01*
X146950000Y-47360000D02*
X146812000Y-47498000D01*
X144700000Y-33500000D02*
X144700000Y-43200000D01*
X145200000Y-33000000D02*
X144700000Y-33500000D01*
D30*
X146800000Y-33000000D02*
X146800000Y-32050000D01*
X146800000Y-34100000D02*
X146800000Y-33000000D01*
D28*
X146800000Y-33000000D02*
X145200000Y-33000000D01*
X159000000Y-52600000D02*
X159000000Y-51825678D01*
X159000000Y-51825678D02*
X160325678Y-50500000D01*
X160325678Y-50500000D02*
X160775736Y-50500000D01*
X160775736Y-50500000D02*
X161200000Y-50500000D01*
D30*
X146850000Y-32000000D02*
X145800000Y-32000000D01*
X145800000Y-32000000D02*
X145700000Y-32100000D01*
X146800000Y-32050000D02*
X146850000Y-32000000D01*
D28*
X166050000Y-45550000D02*
X166050000Y-42950000D01*
X166050000Y-42950000D02*
X165700000Y-42600000D01*
X166050000Y-45550000D02*
X166050000Y-43775000D01*
X166050000Y-43775000D02*
X166375000Y-43450000D01*
X166375000Y-43450000D02*
X167000000Y-43450000D01*
X159350000Y-54700000D02*
X160000000Y-54700000D01*
X160000000Y-54700000D02*
X160400000Y-54300000D01*
X159000000Y-52600000D02*
X159000000Y-54350000D01*
X159000000Y-54350000D02*
X159350000Y-54700000D01*
X152525000Y-53025000D02*
X152525000Y-54975000D01*
X153850000Y-56700000D02*
X153450000Y-57100000D01*
X153450000Y-57100000D02*
X152700000Y-57100000D01*
X152525000Y-54975000D02*
X152525000Y-55224322D01*
X152525000Y-55224322D02*
X153850000Y-56549322D01*
X153850000Y-56549322D02*
X153850000Y-56700000D01*
X162357500Y-23300000D02*
X162357500Y-20542500D01*
X162357500Y-20542500D02*
X162500000Y-20400000D01*
X162500000Y-32400000D02*
X162500000Y-34957500D01*
X162500000Y-34957500D02*
X162357500Y-35100000D01*
X165800000Y-41600000D02*
X162850000Y-41600000D01*
X162850000Y-41600000D02*
X161400000Y-43050000D01*
X161400000Y-43050000D02*
X161400000Y-44100000D01*
D30*
X156464000Y-44908420D02*
X151588420Y-44908420D01*
X151588420Y-44908420D02*
X150368000Y-43688000D01*
X164033398Y-45466000D02*
X164033398Y-44333398D01*
X164033398Y-44333398D02*
X163800000Y-44100000D01*
X145450000Y-43400000D02*
X145450000Y-43697600D01*
X145450000Y-38088518D02*
X145450000Y-43400000D01*
X146800000Y-38500000D02*
X146800000Y-37647600D01*
X146800000Y-37647600D02*
X146723799Y-37571399D01*
X146723799Y-37571399D02*
X145967119Y-37571399D01*
X145967119Y-37571399D02*
X145450000Y-38088518D01*
X145450000Y-43697600D02*
X145450000Y-44300000D01*
X154300000Y-43000000D02*
X155028601Y-43728601D01*
X155028601Y-43728601D02*
X158071399Y-43728601D01*
X158071399Y-43728601D02*
X158300000Y-43500000D01*
X158300000Y-43500000D02*
X158300000Y-43000000D01*
X158300000Y-43000000D02*
X158546390Y-42753610D01*
X158546390Y-42753610D02*
X159653610Y-42753610D01*
X159653610Y-42753610D02*
X159800000Y-42900000D01*
X159800000Y-42900000D02*
X159800000Y-44100000D01*
X150800000Y-32800000D02*
X150800000Y-34800000D01*
X156007500Y-40300000D02*
X156007500Y-40700000D01*
X156007500Y-40700000D02*
X154300000Y-42407500D01*
X154300000Y-42407500D02*
X154300000Y-43000000D01*
X157550000Y-48750000D02*
X155720000Y-48750000D01*
X155720000Y-48750000D02*
X155702000Y-48768000D01*
D28*
X156642500Y-23300000D02*
X156642500Y-24150000D01*
X156642500Y-24150000D02*
X156615099Y-24177401D01*
X156615099Y-24177401D02*
X155422599Y-24177401D01*
X155422599Y-24177401D02*
X154300000Y-25300000D01*
X157277500Y-23300000D02*
X157277500Y-24150000D01*
X157277500Y-24150000D02*
X156127500Y-25300000D01*
X156127500Y-25300000D02*
X155800000Y-25300000D01*
X157912500Y-23300000D02*
X157912500Y-24687500D01*
X157912500Y-24687500D02*
X157300000Y-25300000D01*
X158800000Y-25300000D02*
X158547500Y-25047500D01*
X158547500Y-25047500D02*
X158547500Y-23300000D01*
X159817500Y-23300000D02*
X159817500Y-25017500D01*
X159817500Y-25017500D02*
X160200000Y-25400000D01*
X160452500Y-23300000D02*
X160452500Y-24752500D01*
X160452500Y-24752500D02*
X161100000Y-25400000D01*
X161087500Y-23300000D02*
X161087500Y-24487500D01*
X161087500Y-24487500D02*
X162400000Y-25800000D01*
X161722500Y-23300000D02*
X161722500Y-24150000D01*
X161722500Y-24150000D02*
X162772500Y-25200000D01*
X162772500Y-25200000D02*
X164700000Y-25200000D01*
X156642500Y-28500000D02*
X156642500Y-27650000D01*
X156642500Y-27650000D02*
X155492500Y-26500000D01*
X155492500Y-26500000D02*
X154300000Y-26500000D01*
X157277500Y-28500000D02*
X157277500Y-27377500D01*
X157277500Y-27377500D02*
X156000000Y-26100000D01*
X157912500Y-28500000D02*
X157912500Y-27112500D01*
X157912500Y-27112500D02*
X157300000Y-26500000D01*
X158547500Y-28500000D02*
X158547500Y-26652500D01*
X158547500Y-26652500D02*
X158700000Y-26500000D01*
X159817500Y-28500000D02*
X159817500Y-26882500D01*
X159817500Y-26882500D02*
X160200000Y-26500000D01*
X160452500Y-28500000D02*
X160452500Y-27247500D01*
X160452500Y-27247500D02*
X161400000Y-26300000D01*
X161400000Y-26300000D02*
X161700000Y-26300000D01*
X162002408Y-26897592D02*
X162400000Y-26500000D01*
X162400000Y-26500000D02*
X163200000Y-26500000D01*
X161087500Y-27650000D02*
X161839908Y-26897592D01*
X161839908Y-26897592D02*
X162002408Y-26897592D01*
X161087500Y-28500000D02*
X161087500Y-27650000D01*
X161087500Y-27650000D02*
X161114901Y-27622599D01*
X162072500Y-27300000D02*
X163900000Y-27300000D01*
X163900000Y-27300000D02*
X164700000Y-26500000D01*
X161722500Y-28500000D02*
X161722500Y-27650000D01*
X161722500Y-27650000D02*
X162072500Y-27300000D01*
X156642500Y-35100000D02*
X156642500Y-35950000D01*
X156642500Y-35950000D02*
X156615099Y-35977401D01*
X156615099Y-35977401D02*
X155522599Y-35977401D01*
X155522599Y-35977401D02*
X154300000Y-37200000D01*
X157277500Y-35100000D02*
X157277500Y-35950000D01*
X157277500Y-35950000D02*
X156027500Y-37200000D01*
X156027500Y-37200000D02*
X155800000Y-37200000D01*
X157912500Y-35100000D02*
X157912500Y-36587500D01*
X157912500Y-36587500D02*
X157300000Y-37200000D01*
X158547500Y-37047500D02*
X158547500Y-37152500D01*
X158547500Y-37152500D02*
X158500000Y-37200000D01*
X158547500Y-35100000D02*
X158547500Y-37047500D01*
X159817500Y-35100000D02*
X159817500Y-36817500D01*
X159817500Y-36817500D02*
X160200000Y-37200000D01*
X160452500Y-35100000D02*
X160452500Y-36252500D01*
X160452500Y-36252500D02*
X161400000Y-37200000D01*
X161087500Y-35100000D02*
X161087500Y-35950000D01*
X161087500Y-35950000D02*
X162714910Y-37577410D01*
X162714910Y-37577410D02*
X163200000Y-37577410D01*
X161722500Y-35100000D02*
X161722500Y-35950000D01*
X161722500Y-35950000D02*
X162772500Y-37000000D01*
X162772500Y-37000000D02*
X164700000Y-37000000D01*
X156642500Y-40300000D02*
X156642500Y-39450000D01*
X156642500Y-39450000D02*
X156169901Y-38977401D01*
X156169901Y-38977401D02*
X154877401Y-38977401D01*
X154877401Y-38977401D02*
X154300000Y-38400000D01*
X157277500Y-40300000D02*
X157277500Y-39450000D01*
X157277500Y-39450000D02*
X156227500Y-38400000D01*
X156227500Y-38400000D02*
X155800000Y-38400000D01*
X157912500Y-40300000D02*
X157912500Y-39012500D01*
X157912500Y-39012500D02*
X157300000Y-38400000D01*
X158547500Y-40300000D02*
X158547500Y-38552500D01*
X158547500Y-38552500D02*
X158700000Y-38400000D01*
X159817500Y-40300000D02*
X159817500Y-38782500D01*
X159817500Y-38782500D02*
X160200000Y-38400000D01*
X160452500Y-40300000D02*
X160452500Y-39450000D01*
X160452500Y-39450000D02*
X161502500Y-38400000D01*
X161502500Y-38400000D02*
X161700000Y-38400000D01*
X161087500Y-40300000D02*
X161087500Y-39450000D01*
X161087500Y-39450000D02*
X161560099Y-38977401D01*
X161560099Y-38977401D02*
X162622599Y-38977401D01*
X162622599Y-38977401D02*
X163200000Y-38400000D01*
X161722500Y-40300000D02*
X161722500Y-39450000D01*
X161722500Y-39450000D02*
X161749901Y-39422599D01*
X161749901Y-39422599D02*
X163677401Y-39422599D01*
X163677401Y-39422599D02*
X164700000Y-38400000D01*
X151200000Y-53300000D02*
X146900000Y-53300000D01*
X146900000Y-53300000D02*
X146700000Y-53100000D01*
X162992500Y-28500000D02*
X162992500Y-29842500D01*
X162992500Y-29842500D02*
X163550000Y-30400000D01*
X162992500Y-40300000D02*
X165850000Y-40300000D01*
X165850000Y-40300000D02*
X166300000Y-39850000D01*
X166300000Y-39850000D02*
X166300000Y-39350000D01*
X153722599Y-23677401D02*
X154100000Y-23300000D01*
X154100000Y-23300000D02*
X156007500Y-23300000D01*
X154200000Y-44100000D02*
X153722599Y-43622599D01*
X153722599Y-43622599D02*
X153722599Y-23677401D01*
X159000000Y-44100000D02*
X154200000Y-44100000D01*
D30*
X157988000Y-52162000D02*
X155902400Y-54247600D01*
X160750000Y-49400000D02*
X157988000Y-52162000D01*
X157988000Y-52162000D02*
X154570000Y-52162000D01*
X154570000Y-52162000D02*
X154028601Y-51620601D01*
X154028601Y-51620601D02*
X154028601Y-51600000D01*
X166050000Y-47150000D02*
X163000000Y-47150000D01*
X163000000Y-47150000D02*
X161800000Y-48350000D01*
X161800000Y-48350000D02*
X161800000Y-49300000D01*
X161800000Y-49300000D02*
X161700000Y-49400000D01*
X161700000Y-49400000D02*
X160750000Y-49400000D01*
X155902400Y-54247600D02*
X155902400Y-54397600D01*
X155902400Y-54397600D02*
X155475000Y-54825000D01*
X155475000Y-54825000D02*
X155475000Y-54975000D01*
D28*
X156007500Y-28500000D02*
X156007500Y-35100000D01*
X145500000Y-47900000D02*
X145799999Y-48199999D01*
X147259999Y-48199999D02*
X148230410Y-49170410D01*
X145799999Y-48199999D02*
X147259999Y-48199999D01*
X153429590Y-49170410D02*
X156250000Y-46350000D01*
X148230410Y-49170410D02*
X153429590Y-49170410D01*
X156250000Y-46350000D02*
X157550000Y-46350000D01*
X148000000Y-47322590D02*
X148000000Y-47746854D01*
X148000000Y-47746854D02*
X149021146Y-48768000D01*
X149021146Y-48768000D02*
X153129590Y-48768000D01*
X153129590Y-48768000D02*
X156347590Y-45550000D01*
X156347590Y-45550000D02*
X157550000Y-45550000D01*
X148077410Y-47400000D02*
X148000000Y-47322590D01*
D30*
X160000000Y-47900000D02*
X159500000Y-47900000D01*
X151388283Y-42541601D02*
X150741601Y-42541601D01*
X161345190Y-48700000D02*
X160800000Y-48700000D01*
X160800000Y-48700000D02*
X160000000Y-47900000D01*
X146300000Y-35584732D02*
X146300000Y-34100000D01*
X159500000Y-47900000D02*
X159300000Y-47700000D01*
X159300000Y-47700000D02*
X159300000Y-45800000D01*
X150728601Y-40953729D02*
X150828601Y-40853729D01*
X159300000Y-45800000D02*
X158628601Y-45128601D01*
X150828601Y-39346271D02*
X147813333Y-36331003D01*
X158628601Y-45128601D02*
X158615083Y-45128601D01*
X147813333Y-36331003D02*
X147046271Y-36331003D01*
X157940092Y-44453610D02*
X153300292Y-44453610D01*
X158615083Y-45128601D02*
X157940092Y-44453610D01*
X150728601Y-42528601D02*
X150728601Y-40953729D01*
X153300292Y-44453610D02*
X151388283Y-42541601D01*
X150741601Y-42541601D02*
X150728601Y-42528601D01*
X150828601Y-40853729D02*
X150828601Y-39346271D01*
X147046271Y-36331003D02*
X146300000Y-35584732D01*
X166050000Y-47950000D02*
X163050000Y-47950000D01*
X163050000Y-47950000D02*
X162300000Y-48700000D01*
D28*
X164600000Y-52600000D02*
X164600000Y-53289446D01*
X158300000Y-59600000D02*
X151400000Y-59600000D01*
X164600000Y-53289446D02*
X158712045Y-59177401D01*
X158712045Y-59177401D02*
X158712045Y-59187955D01*
X158712045Y-59187955D02*
X158300000Y-59600000D01*
X151400000Y-59600000D02*
X149126199Y-57326199D01*
X149126199Y-57326199D02*
X148900000Y-57100000D01*
X163800000Y-52600000D02*
X163800000Y-53520354D01*
X163800000Y-53520354D02*
X158309637Y-59010717D01*
X158309637Y-59021271D02*
X158133318Y-59197590D01*
X148200000Y-56780105D02*
X148200000Y-57100000D01*
X158309637Y-59010717D02*
X158309637Y-59021271D01*
X158133318Y-59197590D02*
X152397590Y-59197590D01*
X152397590Y-59197590D02*
X150800000Y-57600000D01*
X150800000Y-57600000D02*
X150800000Y-57043044D01*
X150800000Y-57043044D02*
X150353355Y-56596399D01*
X150353355Y-56596399D02*
X148383706Y-56596399D01*
X148383706Y-56596399D02*
X148200000Y-56780105D01*
D30*
X146300000Y-38500000D02*
X146300000Y-43180000D01*
X146300000Y-43180000D02*
X146300000Y-45852400D01*
X164592000Y-42926000D02*
X164592000Y-44092000D01*
X164592000Y-44092000D02*
X164600000Y-44100000D01*
X146300000Y-45852400D02*
X145852400Y-46300000D01*
X145852400Y-46300000D02*
X145450000Y-46300000D01*
X162200000Y-44100000D02*
X162200000Y-45569398D01*
X162200000Y-45569398D02*
X161033398Y-46736000D01*
X163000000Y-44100000D02*
X163000000Y-46269398D01*
X163000000Y-46269398D02*
X162533398Y-46736000D01*
X162357500Y-40300000D02*
X162357500Y-41052400D01*
X162357500Y-41052400D02*
X162551490Y-41246390D01*
X163432583Y-41071399D02*
X165690083Y-41071399D01*
X165690083Y-41071399D02*
X167300000Y-39461482D01*
X162551490Y-41246390D02*
X163257592Y-41246390D01*
X163257592Y-41246390D02*
X163432583Y-41071399D01*
X167300000Y-39461482D02*
X167300000Y-35942798D01*
X167300000Y-35942798D02*
X166978601Y-35621399D01*
X166978601Y-35621399D02*
X162528601Y-31171399D01*
X153100000Y-30900000D02*
X152604801Y-31395199D01*
X152604801Y-31395199D02*
X150200009Y-31395199D01*
X162357500Y-28500000D02*
X162357500Y-29252400D01*
X162357500Y-29252400D02*
X162528601Y-29423501D01*
X162528601Y-29423501D02*
X162528601Y-31171399D01*
X162528601Y-31171399D02*
X162000000Y-31700000D01*
D28*
X160600000Y-44100000D02*
X160600000Y-43050000D01*
X160600000Y-43050000D02*
X162357500Y-41292500D01*
X162357500Y-41292500D02*
X162357500Y-41150000D01*
X162357500Y-41150000D02*
X162357500Y-40300000D01*
M02*
