G04 #@! TF.FileFunction,Soldermask,Bot*
%FSLAX46Y46*%
G04 Gerber Fmt 4.6, Leading zero omitted, Abs format (unit mm)*
G04 Created by KiCad (PCBNEW 4.0.2-stable) date 12/11/2016 19:10:46*
%MOMM*%
G01*
G04 APERTURE LIST*
%ADD10C,0.100000*%
%ADD11R,0.950000X1.250000*%
%ADD12R,1.000000X0.900000*%
%ADD13R,0.800000X1.600000*%
%ADD14R,2.000000X0.950000*%
%ADD15R,0.950000X2.000000*%
%ADD16R,0.700000X1.800000*%
%ADD17R,1.300000X0.900000*%
%ADD18R,0.900000X1.300000*%
%ADD19R,2.635200X2.635200*%
%ADD20R,1.200000X1.150000*%
%ADD21R,2.432000X1.924000*%
%ADD22R,1.150000X1.200000*%
%ADD23C,5.400000*%
%ADD24R,1.800000X1.400000*%
G04 APERTURE END LIST*
D10*
D11*
X152525000Y-54975000D03*
X155475000Y-54975000D03*
X155475000Y-53025000D03*
X152525000Y-53025000D03*
D12*
X153500000Y-55150000D03*
X154500000Y-55150000D03*
X154500000Y-52850000D03*
X153500000Y-52850000D03*
D13*
X156007500Y-35100000D03*
X156642500Y-35100000D03*
X157277500Y-35100000D03*
X157912500Y-35100000D03*
X158547500Y-35100000D03*
X159182500Y-35100000D03*
X159817500Y-35100000D03*
X160452500Y-35100000D03*
X161087500Y-35100000D03*
X161722500Y-35100000D03*
X162357500Y-35100000D03*
X162992500Y-35100000D03*
X162992500Y-40300000D03*
X162357500Y-40300000D03*
X161722500Y-40300000D03*
X161087500Y-40300000D03*
X160452500Y-40300000D03*
X159817500Y-40300000D03*
X159182500Y-40300000D03*
X158547500Y-40300000D03*
X157912500Y-40300000D03*
X157277500Y-40300000D03*
X156642500Y-40300000D03*
X156007500Y-40300000D03*
X156007500Y-23300000D03*
X156642500Y-23300000D03*
X157277500Y-23300000D03*
X157912500Y-23300000D03*
X158547500Y-23300000D03*
X159182500Y-23300000D03*
X159817500Y-23300000D03*
X160452500Y-23300000D03*
X161087500Y-23300000D03*
X161722500Y-23300000D03*
X162357500Y-23300000D03*
X162992500Y-23300000D03*
X162992500Y-28500000D03*
X162357500Y-28500000D03*
X161722500Y-28500000D03*
X161087500Y-28500000D03*
X160452500Y-28500000D03*
X159817500Y-28500000D03*
X159182500Y-28500000D03*
X158547500Y-28500000D03*
X157912500Y-28500000D03*
X157277500Y-28500000D03*
X156642500Y-28500000D03*
X156007500Y-28500000D03*
D14*
X157550000Y-51150000D03*
X157550000Y-50350000D03*
X157550000Y-49550000D03*
X157550000Y-48750000D03*
X157550000Y-47950000D03*
X157550000Y-47150000D03*
X157550000Y-46350000D03*
X157550000Y-45550000D03*
D15*
X159000000Y-44100000D03*
X159800000Y-44100000D03*
X160600000Y-44100000D03*
X161400000Y-44100000D03*
X162200000Y-44100000D03*
X163000000Y-44100000D03*
X163800000Y-44100000D03*
X164600000Y-44100000D03*
D14*
X166050000Y-45550000D03*
X166050000Y-46350000D03*
X166050000Y-47150000D03*
X166050000Y-47950000D03*
X166050000Y-48750000D03*
X166050000Y-49550000D03*
X166050000Y-50350000D03*
X166050000Y-51150000D03*
D15*
X164600000Y-52600000D03*
X163800000Y-52600000D03*
X163000000Y-52600000D03*
X162200000Y-52600000D03*
X161400000Y-52600000D03*
X160600000Y-52600000D03*
X159800000Y-52600000D03*
X159000000Y-52600000D03*
D16*
X148300000Y-38500000D03*
X147800000Y-38500000D03*
X147300000Y-38500000D03*
X146800000Y-38500000D03*
X146300000Y-38500000D03*
X146300000Y-34100000D03*
X146800000Y-34100000D03*
X147300000Y-34100000D03*
X147800000Y-34100000D03*
X148300000Y-34100000D03*
D17*
X166300000Y-37850000D03*
X166300000Y-39350000D03*
D18*
X162050000Y-30400000D03*
X163550000Y-30400000D03*
X146950000Y-44300000D03*
X145450000Y-44300000D03*
X146950000Y-46300000D03*
X145450000Y-46300000D03*
X147750000Y-42400000D03*
X149250000Y-42400000D03*
D19*
X150622000Y-47244000D03*
D20*
X153850000Y-56700000D03*
X155350000Y-56700000D03*
X157350000Y-42300000D03*
X155850000Y-42300000D03*
X159150000Y-30400000D03*
X157650000Y-30400000D03*
D21*
X152300000Y-29551000D03*
X152300000Y-26249000D03*
X152200000Y-41551000D03*
X152200000Y-38249000D03*
D20*
X159350000Y-54700000D03*
X157850000Y-54700000D03*
D22*
X167000000Y-43450000D03*
X167000000Y-41950000D03*
D20*
X146850000Y-32000000D03*
X148350000Y-32000000D03*
X147750000Y-40600000D03*
X149250000Y-40600000D03*
D23*
X147000000Y-22000000D03*
X165000000Y-57000000D03*
D24*
X151808000Y-50000000D03*
X154008000Y-50000000D03*
X154008000Y-51600000D03*
X151808000Y-51600000D03*
M02*
