G04 #@! TF.FileFunction,Copper,L2,Inr,Signal*
%FSLAX46Y46*%
G04 Gerber Fmt 4.6, Leading zero omitted, Abs format (unit mm)*
G04 Created by KiCad (PCBNEW 4.0.2-stable) date 12/11/2016 19:10:46*
%MOMM*%
G01*
G04 APERTURE LIST*
%ADD10C,0.100000*%
%ADD11C,0.300000*%
%ADD12R,2.235200X2.235200*%
%ADD13C,5.000000*%
%ADD14C,0.452400*%
%ADD15C,0.600000*%
%ADD16C,0.254000*%
G04 APERTURE END LIST*
D10*
D11*
X154557143Y-19557143D02*
X154614286Y-19500000D01*
X154728572Y-19442857D01*
X155014286Y-19442857D01*
X155128572Y-19500000D01*
X155185715Y-19557143D01*
X155242858Y-19671429D01*
X155242858Y-19785714D01*
X155185715Y-19957143D01*
X154500001Y-20642857D01*
X155242858Y-20642857D01*
D12*
X150622000Y-47244000D03*
D13*
X147000000Y-22000000D03*
X165000000Y-57000000D03*
D14*
X155296390Y-53848000D03*
D15*
X164084000Y-46621390D03*
X157800000Y-53952412D03*
D14*
X167000000Y-52500000D03*
D15*
X155489216Y-55852402D03*
X159100000Y-49327410D03*
X163300000Y-50800000D03*
X148214948Y-35985052D03*
X155200000Y-43100000D03*
D14*
X155300000Y-49700000D03*
D15*
X159300000Y-37700000D03*
X161000000Y-31800000D03*
X160200000Y-31800000D03*
X159800000Y-20400000D03*
X158400000Y-20400000D03*
X159100000Y-20400000D03*
X156600000Y-30922590D03*
D14*
X167100000Y-52000000D03*
D15*
X152200000Y-36600000D03*
X152300000Y-24700000D03*
D14*
X150200000Y-32000000D03*
D15*
X153700000Y-58500000D03*
D14*
X155597449Y-51402551D03*
D15*
X146600000Y-51100000D03*
X146600000Y-52100000D03*
X150100000Y-57197598D03*
X152700000Y-56300000D03*
X145000000Y-57000000D03*
X145100000Y-56300000D03*
X147300000Y-35802402D03*
X149200000Y-38500000D03*
X147352402Y-37100000D03*
X150200000Y-42400000D03*
X150300000Y-40600000D03*
X167000000Y-40700000D03*
X154940000Y-45974000D03*
X157100000Y-56300000D03*
X156800000Y-56900000D03*
X157500000Y-56900000D03*
X149900000Y-29000000D03*
X166300000Y-36800000D03*
X159100000Y-31600000D03*
X157700000Y-43100000D03*
X152200000Y-40200000D03*
X150600000Y-30000000D03*
X146812000Y-47498000D03*
D14*
X144700000Y-43200000D03*
X145700000Y-32100000D03*
D15*
X165700000Y-42600000D03*
X163300000Y-49700000D03*
X161200000Y-50500000D03*
D14*
X160400000Y-54300000D03*
X152700000Y-57100000D03*
D15*
X162500000Y-20400000D03*
X162500000Y-32400000D03*
X165800000Y-41600000D03*
D14*
X145450000Y-43400000D03*
X150368000Y-43688000D03*
X156464000Y-44908420D03*
X164033398Y-45466000D03*
X150800000Y-34800000D03*
X150800000Y-32800000D03*
X154300000Y-43000000D03*
X155702000Y-48768000D03*
D15*
X154300000Y-25300000D03*
X155800000Y-25300000D03*
X157300000Y-25300000D03*
X158800000Y-25300000D03*
X160200000Y-25400000D03*
X161100000Y-25400000D03*
X162400000Y-25800000D03*
X164700000Y-25200000D03*
X154300000Y-26500000D03*
X156000000Y-26100000D03*
X157300000Y-26500000D03*
X158700000Y-26500000D03*
X160200000Y-26500000D03*
X161700000Y-26300000D03*
X163200000Y-26500000D03*
X164700000Y-26500000D03*
X154300000Y-37200000D03*
X155800000Y-37200000D03*
X157300000Y-37200000D03*
X158500000Y-37200000D03*
X160200000Y-37200000D03*
X161400000Y-37200000D03*
X163200000Y-37577410D03*
X164700000Y-37000000D03*
X154300000Y-38400000D03*
X155800000Y-38400000D03*
X157300000Y-38400000D03*
X158700000Y-38400000D03*
X160200000Y-38400000D03*
X161700000Y-38400000D03*
X163200000Y-38400000D03*
X164700000Y-38400000D03*
X146700000Y-53100000D03*
X151200000Y-53300000D03*
X145500000Y-47900000D03*
X148000000Y-47322590D03*
D14*
X161345190Y-48700000D03*
X162300000Y-48700000D03*
X148900000Y-57100000D03*
X148200000Y-57100000D03*
X146300000Y-43180000D03*
X164592000Y-42926000D03*
X161033398Y-46736000D03*
X162533398Y-46736000D03*
X150200009Y-31395199D03*
X153100000Y-30900000D03*
X162000000Y-31700000D03*
D16*
G36*
X149473000Y-37875983D02*
X149336054Y-37819118D01*
X149065135Y-37818882D01*
X148814748Y-37922339D01*
X148623013Y-38113741D01*
X148519118Y-38363946D01*
X148518882Y-38634865D01*
X148622339Y-38885252D01*
X148813741Y-39076987D01*
X149063946Y-39180882D01*
X149334865Y-39181118D01*
X149473000Y-39124042D01*
X149473000Y-45743844D01*
X149363210Y-45764503D01*
X149233535Y-45847946D01*
X149146541Y-45975266D01*
X149115936Y-46126400D01*
X149115936Y-48361600D01*
X149142503Y-48502790D01*
X149225946Y-48632465D01*
X149353266Y-48719459D01*
X149473000Y-48743705D01*
X149473000Y-54400000D01*
X149483006Y-54449410D01*
X149510197Y-54489803D01*
X151910197Y-56889803D01*
X151952211Y-56917666D01*
X152000000Y-56927000D01*
X152434185Y-56927000D01*
X152563946Y-56980882D01*
X152834865Y-56981118D01*
X152965842Y-56927000D01*
X153873000Y-56927000D01*
X153873000Y-57800000D01*
X153880619Y-57837623D01*
X153836054Y-57819118D01*
X153565135Y-57818882D01*
X153314748Y-57922339D01*
X153123013Y-58113741D01*
X153019118Y-58363946D01*
X153018882Y-58634865D01*
X153122339Y-58885252D01*
X153313741Y-59076987D01*
X153563946Y-59180882D01*
X153834865Y-59181118D01*
X154085252Y-59077661D01*
X154276987Y-58886259D01*
X154380882Y-58636054D01*
X154381118Y-58365135D01*
X154277661Y-58114748D01*
X154090239Y-57927000D01*
X158300000Y-57927000D01*
X158349410Y-57916994D01*
X158389803Y-57889803D01*
X158889803Y-57389803D01*
X158917666Y-57347789D01*
X158927000Y-57300000D01*
X158927000Y-50934865D01*
X162618882Y-50934865D01*
X162722339Y-51185252D01*
X162913741Y-51376987D01*
X163163946Y-51480882D01*
X163434865Y-51481118D01*
X163685252Y-51377661D01*
X163876987Y-51186259D01*
X163980882Y-50936054D01*
X163981118Y-50665135D01*
X163877661Y-50414748D01*
X163686259Y-50223013D01*
X163436054Y-50119118D01*
X163165135Y-50118882D01*
X162914748Y-50222339D01*
X162723013Y-50413741D01*
X162619118Y-50663946D01*
X162618882Y-50934865D01*
X158927000Y-50934865D01*
X158927000Y-50852606D01*
X160802639Y-48976967D01*
X160830131Y-49043502D01*
X161000790Y-49214459D01*
X161223881Y-49307095D01*
X161465440Y-49307305D01*
X161688692Y-49215059D01*
X161822679Y-49081306D01*
X161955600Y-49214459D01*
X162178691Y-49307095D01*
X162420250Y-49307305D01*
X162643502Y-49215059D01*
X162814459Y-49044400D01*
X162907095Y-48821309D01*
X162907305Y-48579750D01*
X162815059Y-48356498D01*
X162644400Y-48185541D01*
X162421309Y-48092905D01*
X162179750Y-48092695D01*
X161956498Y-48184941D01*
X161822511Y-48318694D01*
X161689590Y-48185541D01*
X161622093Y-48157513D01*
X162289803Y-47489803D01*
X162317666Y-47447789D01*
X162327000Y-47400000D01*
X162327000Y-47307763D01*
X162412089Y-47343095D01*
X162653648Y-47343305D01*
X162876900Y-47251059D01*
X163047857Y-47080400D01*
X163140493Y-46857309D01*
X163140580Y-46756255D01*
X163402882Y-46756255D01*
X163506339Y-47006642D01*
X163697741Y-47198377D01*
X163947946Y-47302272D01*
X164218865Y-47302508D01*
X164469252Y-47199051D01*
X164660987Y-47007649D01*
X164764882Y-46757444D01*
X164765118Y-46486525D01*
X164661661Y-46236138D01*
X164470259Y-46044403D01*
X164347232Y-45993317D01*
X164376900Y-45981059D01*
X164547857Y-45810400D01*
X164640493Y-45587309D01*
X164640703Y-45345750D01*
X164548457Y-45122498D01*
X164377798Y-44951541D01*
X164154707Y-44858905D01*
X163913148Y-44858695D01*
X163689896Y-44950941D01*
X163518939Y-45121600D01*
X163426303Y-45344691D01*
X163426093Y-45586250D01*
X163518339Y-45809502D01*
X163688998Y-45980459D01*
X163770235Y-46014192D01*
X163698748Y-46043729D01*
X163507013Y-46235131D01*
X163403118Y-46485336D01*
X163402882Y-46756255D01*
X163140580Y-46756255D01*
X163140703Y-46615750D01*
X163048457Y-46392498D01*
X162877798Y-46221541D01*
X162654707Y-46128905D01*
X162413148Y-46128695D01*
X162327000Y-46164291D01*
X162327000Y-43552606D01*
X162833356Y-43046250D01*
X163984695Y-43046250D01*
X164076941Y-43269502D01*
X164247600Y-43440459D01*
X164470691Y-43533095D01*
X164712250Y-43533305D01*
X164935502Y-43441059D01*
X165106459Y-43270400D01*
X165199095Y-43047309D01*
X165199305Y-42805750D01*
X165107059Y-42582498D01*
X164936400Y-42411541D01*
X164713309Y-42318905D01*
X164471750Y-42318695D01*
X164248498Y-42410941D01*
X164077541Y-42581600D01*
X163984905Y-42804691D01*
X163984695Y-43046250D01*
X162833356Y-43046250D01*
X164652606Y-41227000D01*
X165217507Y-41227000D01*
X165119118Y-41463946D01*
X165118882Y-41734865D01*
X165222339Y-41985252D01*
X165413741Y-42176987D01*
X165663946Y-42280882D01*
X165934865Y-42281118D01*
X166185252Y-42177661D01*
X166376987Y-41986259D01*
X166480882Y-41736054D01*
X166481118Y-41465135D01*
X166382723Y-41227000D01*
X166563841Y-41227000D01*
X166613741Y-41276987D01*
X166863946Y-41380882D01*
X167134865Y-41381118D01*
X167385252Y-41277661D01*
X167436001Y-41227000D01*
X167544000Y-41227000D01*
X167544000Y-51585315D01*
X167444400Y-51485541D01*
X167221309Y-51392905D01*
X166979750Y-51392695D01*
X166756498Y-51484941D01*
X166585541Y-51655600D01*
X166492905Y-51878691D01*
X166492695Y-52120250D01*
X166500947Y-52140221D01*
X166485541Y-52155600D01*
X166392905Y-52378691D01*
X166392695Y-52620250D01*
X166484941Y-52843502D01*
X166655600Y-53014459D01*
X166878691Y-53107095D01*
X167120250Y-53107305D01*
X167343502Y-53015059D01*
X167514459Y-52844400D01*
X167544000Y-52773258D01*
X167544000Y-55612638D01*
X167443817Y-55370177D01*
X166634086Y-54559031D01*
X165575580Y-54119501D01*
X164429448Y-54118501D01*
X163370177Y-54556183D01*
X162559031Y-55365914D01*
X162119501Y-56424420D01*
X162118501Y-57570552D01*
X162556183Y-58629823D01*
X163365914Y-59440969D01*
X163614040Y-59544000D01*
X144456000Y-59544000D01*
X144456000Y-57418972D01*
X144613741Y-57576987D01*
X144863946Y-57680882D01*
X145134865Y-57681118D01*
X145385252Y-57577661D01*
X145576987Y-57386259D01*
X145645920Y-57220250D01*
X147592695Y-57220250D01*
X147684941Y-57443502D01*
X147855600Y-57614459D01*
X148078691Y-57707095D01*
X148320250Y-57707305D01*
X148543502Y-57615059D01*
X148549862Y-57608711D01*
X148555600Y-57614459D01*
X148778691Y-57707095D01*
X149020250Y-57707305D01*
X149243502Y-57615059D01*
X149414459Y-57444400D01*
X149439859Y-57383231D01*
X149522339Y-57582850D01*
X149713741Y-57774585D01*
X149963946Y-57878480D01*
X150234865Y-57878716D01*
X150485252Y-57775259D01*
X150676987Y-57583857D01*
X150780882Y-57333652D01*
X150781118Y-57062733D01*
X150677661Y-56812346D01*
X150486259Y-56620611D01*
X150236054Y-56516716D01*
X149965135Y-56516480D01*
X149714748Y-56619937D01*
X149523013Y-56811339D01*
X149480261Y-56914298D01*
X149415059Y-56756498D01*
X149244400Y-56585541D01*
X149021309Y-56492905D01*
X148779750Y-56492695D01*
X148556498Y-56584941D01*
X148550138Y-56591289D01*
X148544400Y-56585541D01*
X148321309Y-56492905D01*
X148079750Y-56492695D01*
X147856498Y-56584941D01*
X147685541Y-56755600D01*
X147592905Y-56978691D01*
X147592695Y-57220250D01*
X145645920Y-57220250D01*
X145680882Y-57136054D01*
X145681118Y-56865135D01*
X145627585Y-56735575D01*
X145676987Y-56686259D01*
X145780882Y-56436054D01*
X145781118Y-56165135D01*
X145677661Y-55914748D01*
X145486259Y-55723013D01*
X145236054Y-55619118D01*
X144965135Y-55618882D01*
X144714748Y-55722339D01*
X144523013Y-55913741D01*
X144456000Y-56075125D01*
X144456000Y-51234865D01*
X145918882Y-51234865D01*
X146022339Y-51485252D01*
X146136920Y-51600032D01*
X146023013Y-51713741D01*
X145919118Y-51963946D01*
X145918882Y-52234865D01*
X146022339Y-52485252D01*
X146186833Y-52650032D01*
X146123013Y-52713741D01*
X146019118Y-52963946D01*
X146018882Y-53234865D01*
X146122339Y-53485252D01*
X146313741Y-53676987D01*
X146563946Y-53780882D01*
X146834865Y-53781118D01*
X147085252Y-53677661D01*
X147276987Y-53486259D01*
X147380882Y-53236054D01*
X147381118Y-52965135D01*
X147277661Y-52714748D01*
X147113167Y-52549968D01*
X147176987Y-52486259D01*
X147280882Y-52236054D01*
X147281118Y-51965135D01*
X147177661Y-51714748D01*
X147063080Y-51599968D01*
X147176987Y-51486259D01*
X147280882Y-51236054D01*
X147281118Y-50965135D01*
X147177661Y-50714748D01*
X146986259Y-50523013D01*
X146736054Y-50419118D01*
X146465135Y-50418882D01*
X146214748Y-50522339D01*
X146023013Y-50713741D01*
X145919118Y-50963946D01*
X145918882Y-51234865D01*
X144456000Y-51234865D01*
X144456000Y-48034865D01*
X144818882Y-48034865D01*
X144922339Y-48285252D01*
X145113741Y-48476987D01*
X145363946Y-48580882D01*
X145634865Y-48581118D01*
X145885252Y-48477661D01*
X146076987Y-48286259D01*
X146180882Y-48036054D01*
X146181118Y-47765135D01*
X146077661Y-47514748D01*
X146020468Y-47457455D01*
X147318882Y-47457455D01*
X147422339Y-47707842D01*
X147613741Y-47899577D01*
X147863946Y-48003472D01*
X148134865Y-48003708D01*
X148385252Y-47900251D01*
X148576987Y-47708849D01*
X148680882Y-47458644D01*
X148681118Y-47187725D01*
X148577661Y-46937338D01*
X148386259Y-46745603D01*
X148136054Y-46641708D01*
X147865135Y-46641472D01*
X147614748Y-46744929D01*
X147423013Y-46936331D01*
X147319118Y-47186536D01*
X147318882Y-47457455D01*
X146020468Y-47457455D01*
X145886259Y-47323013D01*
X145636054Y-47219118D01*
X145365135Y-47218882D01*
X145114748Y-47322339D01*
X144923013Y-47513741D01*
X144819118Y-47763946D01*
X144818882Y-48034865D01*
X144456000Y-48034865D01*
X144456000Y-43520250D01*
X144842695Y-43520250D01*
X144934941Y-43743502D01*
X145105600Y-43914459D01*
X145328691Y-44007095D01*
X145570250Y-44007305D01*
X145793502Y-43915059D01*
X145964459Y-43744400D01*
X145980844Y-43704941D01*
X146178691Y-43787095D01*
X146420250Y-43787305D01*
X146643502Y-43695059D01*
X146814459Y-43524400D01*
X146907095Y-43301309D01*
X146907305Y-43059750D01*
X146815059Y-42836498D01*
X146644400Y-42665541D01*
X146421309Y-42572905D01*
X146179750Y-42572695D01*
X145956498Y-42664941D01*
X145785541Y-42835600D01*
X145769156Y-42875059D01*
X145571309Y-42792905D01*
X145329750Y-42792695D01*
X145106498Y-42884941D01*
X144935541Y-43055600D01*
X144842905Y-43278691D01*
X144842695Y-43520250D01*
X144456000Y-43520250D01*
X144456000Y-35937267D01*
X146618882Y-35937267D01*
X146722339Y-36187654D01*
X146913741Y-36379389D01*
X147112935Y-36462102D01*
X146967150Y-36522339D01*
X146775415Y-36713741D01*
X146671520Y-36963946D01*
X146671284Y-37234865D01*
X146774741Y-37485252D01*
X146966143Y-37676987D01*
X147216348Y-37780882D01*
X147487267Y-37781118D01*
X147737654Y-37677661D01*
X147929389Y-37486259D01*
X148033284Y-37236054D01*
X148033520Y-36965135D01*
X147930063Y-36714748D01*
X147738661Y-36523013D01*
X147539467Y-36440300D01*
X147658191Y-36391244D01*
X147828689Y-36562039D01*
X148078894Y-36665934D01*
X148349813Y-36666170D01*
X148600200Y-36562713D01*
X148791935Y-36371311D01*
X148895830Y-36121106D01*
X148896066Y-35850187D01*
X148792609Y-35599800D01*
X148601207Y-35408065D01*
X148351002Y-35304170D01*
X148080083Y-35303934D01*
X147856757Y-35396210D01*
X147686259Y-35225415D01*
X147436054Y-35121520D01*
X147165135Y-35121284D01*
X146914748Y-35224741D01*
X146723013Y-35416143D01*
X146619118Y-35666348D01*
X146618882Y-35937267D01*
X144456000Y-35937267D01*
X144456000Y-31127000D01*
X149473000Y-31127000D01*
X149473000Y-37875983D01*
X149473000Y-37875983D01*
G37*
X149473000Y-37875983D02*
X149336054Y-37819118D01*
X149065135Y-37818882D01*
X148814748Y-37922339D01*
X148623013Y-38113741D01*
X148519118Y-38363946D01*
X148518882Y-38634865D01*
X148622339Y-38885252D01*
X148813741Y-39076987D01*
X149063946Y-39180882D01*
X149334865Y-39181118D01*
X149473000Y-39124042D01*
X149473000Y-45743844D01*
X149363210Y-45764503D01*
X149233535Y-45847946D01*
X149146541Y-45975266D01*
X149115936Y-46126400D01*
X149115936Y-48361600D01*
X149142503Y-48502790D01*
X149225946Y-48632465D01*
X149353266Y-48719459D01*
X149473000Y-48743705D01*
X149473000Y-54400000D01*
X149483006Y-54449410D01*
X149510197Y-54489803D01*
X151910197Y-56889803D01*
X151952211Y-56917666D01*
X152000000Y-56927000D01*
X152434185Y-56927000D01*
X152563946Y-56980882D01*
X152834865Y-56981118D01*
X152965842Y-56927000D01*
X153873000Y-56927000D01*
X153873000Y-57800000D01*
X153880619Y-57837623D01*
X153836054Y-57819118D01*
X153565135Y-57818882D01*
X153314748Y-57922339D01*
X153123013Y-58113741D01*
X153019118Y-58363946D01*
X153018882Y-58634865D01*
X153122339Y-58885252D01*
X153313741Y-59076987D01*
X153563946Y-59180882D01*
X153834865Y-59181118D01*
X154085252Y-59077661D01*
X154276987Y-58886259D01*
X154380882Y-58636054D01*
X154381118Y-58365135D01*
X154277661Y-58114748D01*
X154090239Y-57927000D01*
X158300000Y-57927000D01*
X158349410Y-57916994D01*
X158389803Y-57889803D01*
X158889803Y-57389803D01*
X158917666Y-57347789D01*
X158927000Y-57300000D01*
X158927000Y-50934865D01*
X162618882Y-50934865D01*
X162722339Y-51185252D01*
X162913741Y-51376987D01*
X163163946Y-51480882D01*
X163434865Y-51481118D01*
X163685252Y-51377661D01*
X163876987Y-51186259D01*
X163980882Y-50936054D01*
X163981118Y-50665135D01*
X163877661Y-50414748D01*
X163686259Y-50223013D01*
X163436054Y-50119118D01*
X163165135Y-50118882D01*
X162914748Y-50222339D01*
X162723013Y-50413741D01*
X162619118Y-50663946D01*
X162618882Y-50934865D01*
X158927000Y-50934865D01*
X158927000Y-50852606D01*
X160802639Y-48976967D01*
X160830131Y-49043502D01*
X161000790Y-49214459D01*
X161223881Y-49307095D01*
X161465440Y-49307305D01*
X161688692Y-49215059D01*
X161822679Y-49081306D01*
X161955600Y-49214459D01*
X162178691Y-49307095D01*
X162420250Y-49307305D01*
X162643502Y-49215059D01*
X162814459Y-49044400D01*
X162907095Y-48821309D01*
X162907305Y-48579750D01*
X162815059Y-48356498D01*
X162644400Y-48185541D01*
X162421309Y-48092905D01*
X162179750Y-48092695D01*
X161956498Y-48184941D01*
X161822511Y-48318694D01*
X161689590Y-48185541D01*
X161622093Y-48157513D01*
X162289803Y-47489803D01*
X162317666Y-47447789D01*
X162327000Y-47400000D01*
X162327000Y-47307763D01*
X162412089Y-47343095D01*
X162653648Y-47343305D01*
X162876900Y-47251059D01*
X163047857Y-47080400D01*
X163140493Y-46857309D01*
X163140580Y-46756255D01*
X163402882Y-46756255D01*
X163506339Y-47006642D01*
X163697741Y-47198377D01*
X163947946Y-47302272D01*
X164218865Y-47302508D01*
X164469252Y-47199051D01*
X164660987Y-47007649D01*
X164764882Y-46757444D01*
X164765118Y-46486525D01*
X164661661Y-46236138D01*
X164470259Y-46044403D01*
X164347232Y-45993317D01*
X164376900Y-45981059D01*
X164547857Y-45810400D01*
X164640493Y-45587309D01*
X164640703Y-45345750D01*
X164548457Y-45122498D01*
X164377798Y-44951541D01*
X164154707Y-44858905D01*
X163913148Y-44858695D01*
X163689896Y-44950941D01*
X163518939Y-45121600D01*
X163426303Y-45344691D01*
X163426093Y-45586250D01*
X163518339Y-45809502D01*
X163688998Y-45980459D01*
X163770235Y-46014192D01*
X163698748Y-46043729D01*
X163507013Y-46235131D01*
X163403118Y-46485336D01*
X163402882Y-46756255D01*
X163140580Y-46756255D01*
X163140703Y-46615750D01*
X163048457Y-46392498D01*
X162877798Y-46221541D01*
X162654707Y-46128905D01*
X162413148Y-46128695D01*
X162327000Y-46164291D01*
X162327000Y-43552606D01*
X162833356Y-43046250D01*
X163984695Y-43046250D01*
X164076941Y-43269502D01*
X164247600Y-43440459D01*
X164470691Y-43533095D01*
X164712250Y-43533305D01*
X164935502Y-43441059D01*
X165106459Y-43270400D01*
X165199095Y-43047309D01*
X165199305Y-42805750D01*
X165107059Y-42582498D01*
X164936400Y-42411541D01*
X164713309Y-42318905D01*
X164471750Y-42318695D01*
X164248498Y-42410941D01*
X164077541Y-42581600D01*
X163984905Y-42804691D01*
X163984695Y-43046250D01*
X162833356Y-43046250D01*
X164652606Y-41227000D01*
X165217507Y-41227000D01*
X165119118Y-41463946D01*
X165118882Y-41734865D01*
X165222339Y-41985252D01*
X165413741Y-42176987D01*
X165663946Y-42280882D01*
X165934865Y-42281118D01*
X166185252Y-42177661D01*
X166376987Y-41986259D01*
X166480882Y-41736054D01*
X166481118Y-41465135D01*
X166382723Y-41227000D01*
X166563841Y-41227000D01*
X166613741Y-41276987D01*
X166863946Y-41380882D01*
X167134865Y-41381118D01*
X167385252Y-41277661D01*
X167436001Y-41227000D01*
X167544000Y-41227000D01*
X167544000Y-51585315D01*
X167444400Y-51485541D01*
X167221309Y-51392905D01*
X166979750Y-51392695D01*
X166756498Y-51484941D01*
X166585541Y-51655600D01*
X166492905Y-51878691D01*
X166492695Y-52120250D01*
X166500947Y-52140221D01*
X166485541Y-52155600D01*
X166392905Y-52378691D01*
X166392695Y-52620250D01*
X166484941Y-52843502D01*
X166655600Y-53014459D01*
X166878691Y-53107095D01*
X167120250Y-53107305D01*
X167343502Y-53015059D01*
X167514459Y-52844400D01*
X167544000Y-52773258D01*
X167544000Y-55612638D01*
X167443817Y-55370177D01*
X166634086Y-54559031D01*
X165575580Y-54119501D01*
X164429448Y-54118501D01*
X163370177Y-54556183D01*
X162559031Y-55365914D01*
X162119501Y-56424420D01*
X162118501Y-57570552D01*
X162556183Y-58629823D01*
X163365914Y-59440969D01*
X163614040Y-59544000D01*
X144456000Y-59544000D01*
X144456000Y-57418972D01*
X144613741Y-57576987D01*
X144863946Y-57680882D01*
X145134865Y-57681118D01*
X145385252Y-57577661D01*
X145576987Y-57386259D01*
X145645920Y-57220250D01*
X147592695Y-57220250D01*
X147684941Y-57443502D01*
X147855600Y-57614459D01*
X148078691Y-57707095D01*
X148320250Y-57707305D01*
X148543502Y-57615059D01*
X148549862Y-57608711D01*
X148555600Y-57614459D01*
X148778691Y-57707095D01*
X149020250Y-57707305D01*
X149243502Y-57615059D01*
X149414459Y-57444400D01*
X149439859Y-57383231D01*
X149522339Y-57582850D01*
X149713741Y-57774585D01*
X149963946Y-57878480D01*
X150234865Y-57878716D01*
X150485252Y-57775259D01*
X150676987Y-57583857D01*
X150780882Y-57333652D01*
X150781118Y-57062733D01*
X150677661Y-56812346D01*
X150486259Y-56620611D01*
X150236054Y-56516716D01*
X149965135Y-56516480D01*
X149714748Y-56619937D01*
X149523013Y-56811339D01*
X149480261Y-56914298D01*
X149415059Y-56756498D01*
X149244400Y-56585541D01*
X149021309Y-56492905D01*
X148779750Y-56492695D01*
X148556498Y-56584941D01*
X148550138Y-56591289D01*
X148544400Y-56585541D01*
X148321309Y-56492905D01*
X148079750Y-56492695D01*
X147856498Y-56584941D01*
X147685541Y-56755600D01*
X147592905Y-56978691D01*
X147592695Y-57220250D01*
X145645920Y-57220250D01*
X145680882Y-57136054D01*
X145681118Y-56865135D01*
X145627585Y-56735575D01*
X145676987Y-56686259D01*
X145780882Y-56436054D01*
X145781118Y-56165135D01*
X145677661Y-55914748D01*
X145486259Y-55723013D01*
X145236054Y-55619118D01*
X144965135Y-55618882D01*
X144714748Y-55722339D01*
X144523013Y-55913741D01*
X144456000Y-56075125D01*
X144456000Y-51234865D01*
X145918882Y-51234865D01*
X146022339Y-51485252D01*
X146136920Y-51600032D01*
X146023013Y-51713741D01*
X145919118Y-51963946D01*
X145918882Y-52234865D01*
X146022339Y-52485252D01*
X146186833Y-52650032D01*
X146123013Y-52713741D01*
X146019118Y-52963946D01*
X146018882Y-53234865D01*
X146122339Y-53485252D01*
X146313741Y-53676987D01*
X146563946Y-53780882D01*
X146834865Y-53781118D01*
X147085252Y-53677661D01*
X147276987Y-53486259D01*
X147380882Y-53236054D01*
X147381118Y-52965135D01*
X147277661Y-52714748D01*
X147113167Y-52549968D01*
X147176987Y-52486259D01*
X147280882Y-52236054D01*
X147281118Y-51965135D01*
X147177661Y-51714748D01*
X147063080Y-51599968D01*
X147176987Y-51486259D01*
X147280882Y-51236054D01*
X147281118Y-50965135D01*
X147177661Y-50714748D01*
X146986259Y-50523013D01*
X146736054Y-50419118D01*
X146465135Y-50418882D01*
X146214748Y-50522339D01*
X146023013Y-50713741D01*
X145919118Y-50963946D01*
X145918882Y-51234865D01*
X144456000Y-51234865D01*
X144456000Y-48034865D01*
X144818882Y-48034865D01*
X144922339Y-48285252D01*
X145113741Y-48476987D01*
X145363946Y-48580882D01*
X145634865Y-48581118D01*
X145885252Y-48477661D01*
X146076987Y-48286259D01*
X146180882Y-48036054D01*
X146181118Y-47765135D01*
X146077661Y-47514748D01*
X146020468Y-47457455D01*
X147318882Y-47457455D01*
X147422339Y-47707842D01*
X147613741Y-47899577D01*
X147863946Y-48003472D01*
X148134865Y-48003708D01*
X148385252Y-47900251D01*
X148576987Y-47708849D01*
X148680882Y-47458644D01*
X148681118Y-47187725D01*
X148577661Y-46937338D01*
X148386259Y-46745603D01*
X148136054Y-46641708D01*
X147865135Y-46641472D01*
X147614748Y-46744929D01*
X147423013Y-46936331D01*
X147319118Y-47186536D01*
X147318882Y-47457455D01*
X146020468Y-47457455D01*
X145886259Y-47323013D01*
X145636054Y-47219118D01*
X145365135Y-47218882D01*
X145114748Y-47322339D01*
X144923013Y-47513741D01*
X144819118Y-47763946D01*
X144818882Y-48034865D01*
X144456000Y-48034865D01*
X144456000Y-43520250D01*
X144842695Y-43520250D01*
X144934941Y-43743502D01*
X145105600Y-43914459D01*
X145328691Y-44007095D01*
X145570250Y-44007305D01*
X145793502Y-43915059D01*
X145964459Y-43744400D01*
X145980844Y-43704941D01*
X146178691Y-43787095D01*
X146420250Y-43787305D01*
X146643502Y-43695059D01*
X146814459Y-43524400D01*
X146907095Y-43301309D01*
X146907305Y-43059750D01*
X146815059Y-42836498D01*
X146644400Y-42665541D01*
X146421309Y-42572905D01*
X146179750Y-42572695D01*
X145956498Y-42664941D01*
X145785541Y-42835600D01*
X145769156Y-42875059D01*
X145571309Y-42792905D01*
X145329750Y-42792695D01*
X145106498Y-42884941D01*
X144935541Y-43055600D01*
X144842905Y-43278691D01*
X144842695Y-43520250D01*
X144456000Y-43520250D01*
X144456000Y-35937267D01*
X146618882Y-35937267D01*
X146722339Y-36187654D01*
X146913741Y-36379389D01*
X147112935Y-36462102D01*
X146967150Y-36522339D01*
X146775415Y-36713741D01*
X146671520Y-36963946D01*
X146671284Y-37234865D01*
X146774741Y-37485252D01*
X146966143Y-37676987D01*
X147216348Y-37780882D01*
X147487267Y-37781118D01*
X147737654Y-37677661D01*
X147929389Y-37486259D01*
X148033284Y-37236054D01*
X148033520Y-36965135D01*
X147930063Y-36714748D01*
X147738661Y-36523013D01*
X147539467Y-36440300D01*
X147658191Y-36391244D01*
X147828689Y-36562039D01*
X148078894Y-36665934D01*
X148349813Y-36666170D01*
X148600200Y-36562713D01*
X148791935Y-36371311D01*
X148895830Y-36121106D01*
X148896066Y-35850187D01*
X148792609Y-35599800D01*
X148601207Y-35408065D01*
X148351002Y-35304170D01*
X148080083Y-35303934D01*
X147856757Y-35396210D01*
X147686259Y-35225415D01*
X147436054Y-35121520D01*
X147165135Y-35121284D01*
X146914748Y-35224741D01*
X146723013Y-35416143D01*
X146619118Y-35666348D01*
X146618882Y-35937267D01*
X144456000Y-35937267D01*
X144456000Y-31127000D01*
X149473000Y-31127000D01*
X149473000Y-37875983D01*
G36*
X152973000Y-20900000D02*
X152983006Y-20949410D01*
X153011447Y-20991035D01*
X153053841Y-21018315D01*
X153100000Y-21027000D01*
X153797572Y-21027000D01*
X153797572Y-21471000D01*
X156002429Y-21471000D01*
X156002429Y-21027000D01*
X157900000Y-21027000D01*
X157949410Y-21016994D01*
X157991035Y-20988553D01*
X158004460Y-20967690D01*
X158013741Y-20976987D01*
X158263946Y-21080882D01*
X158534865Y-21081118D01*
X158750222Y-20992135D01*
X158963946Y-21080882D01*
X159234865Y-21081118D01*
X159450222Y-20992135D01*
X159663946Y-21080882D01*
X159934865Y-21081118D01*
X160185252Y-20977661D01*
X160376987Y-20786259D01*
X160480882Y-20536054D01*
X160480883Y-20534865D01*
X161818882Y-20534865D01*
X161922339Y-20785252D01*
X162113741Y-20976987D01*
X162363946Y-21080882D01*
X162634865Y-21081118D01*
X162885252Y-20977661D01*
X163076987Y-20786259D01*
X163180882Y-20536054D01*
X163181118Y-20265135D01*
X163077661Y-20014748D01*
X162886259Y-19823013D01*
X162636054Y-19719118D01*
X162365135Y-19718882D01*
X162114748Y-19822339D01*
X161923013Y-20013741D01*
X161819118Y-20263946D01*
X161818882Y-20534865D01*
X160480883Y-20534865D01*
X160481118Y-20265135D01*
X160377661Y-20014748D01*
X160186259Y-19823013D01*
X159936054Y-19719118D01*
X159665135Y-19718882D01*
X159449778Y-19807865D01*
X159236054Y-19719118D01*
X158965135Y-19718882D01*
X158749778Y-19807865D01*
X158536054Y-19719118D01*
X158265135Y-19718882D01*
X158027000Y-19817277D01*
X158027000Y-19456000D01*
X167544000Y-19456000D01*
X167544000Y-40273000D01*
X167535986Y-40273000D01*
X167386259Y-40123013D01*
X167136054Y-40019118D01*
X166865135Y-40018882D01*
X166614748Y-40122339D01*
X166463825Y-40273000D01*
X160400000Y-40273000D01*
X160350590Y-40283006D01*
X160314571Y-40306028D01*
X159214571Y-41306028D01*
X159184741Y-41346668D01*
X159173000Y-41400000D01*
X159173000Y-48646473D01*
X158965135Y-48646292D01*
X158714748Y-48749749D01*
X158523013Y-48941151D01*
X158419118Y-49191356D01*
X158418882Y-49462275D01*
X158488830Y-49631564D01*
X157510197Y-50610197D01*
X157482334Y-50652211D01*
X157473000Y-50700000D01*
X157473000Y-53350682D01*
X157414748Y-53374751D01*
X157223013Y-53566153D01*
X157119118Y-53816358D01*
X157118882Y-54087277D01*
X157222339Y-54337664D01*
X157413741Y-54529399D01*
X157473000Y-54554006D01*
X157473000Y-54900000D01*
X157483006Y-54949410D01*
X157510197Y-54989803D01*
X158273000Y-55752606D01*
X158273000Y-56947394D01*
X157947394Y-57273000D01*
X155452606Y-57273000D01*
X154166873Y-55987267D01*
X154808098Y-55987267D01*
X154911555Y-56237654D01*
X155102957Y-56429389D01*
X155353162Y-56533284D01*
X155624081Y-56533520D01*
X155874468Y-56430063D01*
X156066203Y-56238661D01*
X156170098Y-55988456D01*
X156170334Y-55717537D01*
X156066877Y-55467150D01*
X155875475Y-55275415D01*
X155625270Y-55171520D01*
X155354351Y-55171284D01*
X155103964Y-55274741D01*
X154912229Y-55466143D01*
X154808334Y-55716348D01*
X154808098Y-55987267D01*
X154166873Y-55987267D01*
X154127000Y-55947394D01*
X154127000Y-53968250D01*
X154689085Y-53968250D01*
X154781331Y-54191502D01*
X154951990Y-54362459D01*
X155175081Y-54455095D01*
X155416640Y-54455305D01*
X155639892Y-54363059D01*
X155810849Y-54192400D01*
X155903485Y-53969309D01*
X155903695Y-53727750D01*
X155811449Y-53504498D01*
X155640790Y-53333541D01*
X155417699Y-53240905D01*
X155176140Y-53240695D01*
X154952888Y-53332941D01*
X154781931Y-53503600D01*
X154689295Y-53726691D01*
X154689085Y-53968250D01*
X154127000Y-53968250D01*
X154127000Y-51522801D01*
X154990144Y-51522801D01*
X155082390Y-51746053D01*
X155253049Y-51917010D01*
X155476140Y-52009646D01*
X155717699Y-52009856D01*
X155940951Y-51917610D01*
X156111908Y-51746951D01*
X156204544Y-51523860D01*
X156204754Y-51282301D01*
X156112508Y-51059049D01*
X155941849Y-50888092D01*
X155718758Y-50795456D01*
X155477199Y-50795246D01*
X155253947Y-50887492D01*
X155082990Y-51058151D01*
X154990354Y-51281242D01*
X154990144Y-51522801D01*
X154127000Y-51522801D01*
X154127000Y-49820250D01*
X154692695Y-49820250D01*
X154784941Y-50043502D01*
X154955600Y-50214459D01*
X155178691Y-50307095D01*
X155420250Y-50307305D01*
X155643502Y-50215059D01*
X155814459Y-50044400D01*
X155907095Y-49821309D01*
X155907305Y-49579750D01*
X155822745Y-49375100D01*
X156045502Y-49283059D01*
X156216459Y-49112400D01*
X156309095Y-48889309D01*
X156309305Y-48647750D01*
X156217059Y-48424498D01*
X156046400Y-48253541D01*
X155823309Y-48160905D01*
X155581750Y-48160695D01*
X155358498Y-48252941D01*
X155187541Y-48423600D01*
X155094905Y-48646691D01*
X155094695Y-48888250D01*
X155179255Y-49092900D01*
X154956498Y-49184941D01*
X154785541Y-49355600D01*
X154692905Y-49578691D01*
X154692695Y-49820250D01*
X154127000Y-49820250D01*
X154127000Y-45028670D01*
X155856695Y-45028670D01*
X155948941Y-45251922D01*
X156119600Y-45422879D01*
X156342691Y-45515515D01*
X156584250Y-45515725D01*
X156807502Y-45423479D01*
X156978459Y-45252820D01*
X157071095Y-45029729D01*
X157071305Y-44788170D01*
X156979059Y-44564918D01*
X156808400Y-44393961D01*
X156585309Y-44301325D01*
X156343750Y-44301115D01*
X156120498Y-44393361D01*
X155949541Y-44564020D01*
X155856905Y-44787111D01*
X155856695Y-45028670D01*
X154127000Y-45028670D01*
X154127000Y-43585631D01*
X154178691Y-43607095D01*
X154420250Y-43607305D01*
X154643502Y-43515059D01*
X154647806Y-43510763D01*
X154813741Y-43676987D01*
X155063946Y-43780882D01*
X155334865Y-43781118D01*
X155585252Y-43677661D01*
X155776987Y-43486259D01*
X155880882Y-43236054D01*
X155881118Y-42965135D01*
X155777661Y-42714748D01*
X155586259Y-42523013D01*
X155336054Y-42419118D01*
X155065135Y-42418882D01*
X154814748Y-42522339D01*
X154747825Y-42589146D01*
X154644400Y-42485541D01*
X154421309Y-42392905D01*
X154179750Y-42392695D01*
X154127000Y-42414491D01*
X154127000Y-42100000D01*
X154116994Y-42050590D01*
X154089803Y-42010197D01*
X153889803Y-41810197D01*
X153847789Y-41782334D01*
X153800000Y-41773000D01*
X151952606Y-41773000D01*
X151127000Y-40947394D01*
X151127000Y-37334865D01*
X153618882Y-37334865D01*
X153722339Y-37585252D01*
X153913741Y-37776987D01*
X153968988Y-37799928D01*
X153914748Y-37822339D01*
X153723013Y-38013741D01*
X153619118Y-38263946D01*
X153618882Y-38534865D01*
X153722339Y-38785252D01*
X153913741Y-38976987D01*
X154163946Y-39080882D01*
X154434865Y-39081118D01*
X154685252Y-38977661D01*
X154876987Y-38786259D01*
X154980882Y-38536054D01*
X154981118Y-38265135D01*
X154877661Y-38014748D01*
X154686259Y-37823013D01*
X154631012Y-37800072D01*
X154685252Y-37777661D01*
X154876987Y-37586259D01*
X154980882Y-37336054D01*
X154980883Y-37334865D01*
X155118882Y-37334865D01*
X155222339Y-37585252D01*
X155413741Y-37776987D01*
X155468988Y-37799928D01*
X155414748Y-37822339D01*
X155223013Y-38013741D01*
X155119118Y-38263946D01*
X155118882Y-38534865D01*
X155222339Y-38785252D01*
X155413741Y-38976987D01*
X155663946Y-39080882D01*
X155934865Y-39081118D01*
X156185252Y-38977661D01*
X156376987Y-38786259D01*
X156480882Y-38536054D01*
X156481118Y-38265135D01*
X156377661Y-38014748D01*
X156186259Y-37823013D01*
X156131012Y-37800072D01*
X156185252Y-37777661D01*
X156376987Y-37586259D01*
X156480882Y-37336054D01*
X156480883Y-37334865D01*
X156618882Y-37334865D01*
X156722339Y-37585252D01*
X156913741Y-37776987D01*
X156968988Y-37799928D01*
X156914748Y-37822339D01*
X156723013Y-38013741D01*
X156619118Y-38263946D01*
X156618882Y-38534865D01*
X156722339Y-38785252D01*
X156913741Y-38976987D01*
X157163946Y-39080882D01*
X157434865Y-39081118D01*
X157685252Y-38977661D01*
X157876987Y-38786259D01*
X157980882Y-38536054D01*
X157981118Y-38265135D01*
X157877661Y-38014748D01*
X157686259Y-37823013D01*
X157631012Y-37800072D01*
X157685252Y-37777661D01*
X157876987Y-37586259D01*
X157899928Y-37531012D01*
X157922339Y-37585252D01*
X158113741Y-37776987D01*
X158287784Y-37849256D01*
X158123013Y-38013741D01*
X158019118Y-38263946D01*
X158018882Y-38534865D01*
X158122339Y-38785252D01*
X158313741Y-38976987D01*
X158563946Y-39080882D01*
X158834865Y-39081118D01*
X159085252Y-38977661D01*
X159276987Y-38786259D01*
X159380882Y-38536054D01*
X159381017Y-38381071D01*
X159434865Y-38381118D01*
X159519046Y-38346335D01*
X159518882Y-38534865D01*
X159622339Y-38785252D01*
X159813741Y-38976987D01*
X160063946Y-39080882D01*
X160334865Y-39081118D01*
X160585252Y-38977661D01*
X160776987Y-38786259D01*
X160880882Y-38536054D01*
X160881118Y-38265135D01*
X160777661Y-38014748D01*
X160586259Y-37823013D01*
X160531012Y-37800072D01*
X160585252Y-37777661D01*
X160776987Y-37586259D01*
X160799928Y-37531012D01*
X160822339Y-37585252D01*
X161013741Y-37776987D01*
X161258407Y-37878582D01*
X161123013Y-38013741D01*
X161019118Y-38263946D01*
X161018882Y-38534865D01*
X161122339Y-38785252D01*
X161313741Y-38976987D01*
X161563946Y-39080882D01*
X161834865Y-39081118D01*
X162085252Y-38977661D01*
X162276987Y-38786259D01*
X162380882Y-38536054D01*
X162381118Y-38265135D01*
X162277661Y-38014748D01*
X162086259Y-37823013D01*
X161841593Y-37721418D01*
X161850751Y-37712275D01*
X162518882Y-37712275D01*
X162622339Y-37962662D01*
X162648215Y-37988583D01*
X162623013Y-38013741D01*
X162519118Y-38263946D01*
X162518882Y-38534865D01*
X162622339Y-38785252D01*
X162813741Y-38976987D01*
X163063946Y-39080882D01*
X163334865Y-39081118D01*
X163585252Y-38977661D01*
X163776987Y-38786259D01*
X163880882Y-38536054D01*
X163880883Y-38534865D01*
X164018882Y-38534865D01*
X164122339Y-38785252D01*
X164313741Y-38976987D01*
X164563946Y-39080882D01*
X164834865Y-39081118D01*
X165085252Y-38977661D01*
X165276987Y-38786259D01*
X165380882Y-38536054D01*
X165381118Y-38265135D01*
X165277661Y-38014748D01*
X165086259Y-37823013D01*
X164836054Y-37719118D01*
X164565135Y-37718882D01*
X164314748Y-37822339D01*
X164123013Y-38013741D01*
X164019118Y-38263946D01*
X164018882Y-38534865D01*
X163880883Y-38534865D01*
X163881118Y-38265135D01*
X163777661Y-38014748D01*
X163751785Y-37988827D01*
X163776987Y-37963669D01*
X163880882Y-37713464D01*
X163881118Y-37442545D01*
X163777661Y-37192158D01*
X163720468Y-37134865D01*
X164018882Y-37134865D01*
X164122339Y-37385252D01*
X164313741Y-37576987D01*
X164563946Y-37680882D01*
X164834865Y-37681118D01*
X165085252Y-37577661D01*
X165276987Y-37386259D01*
X165380882Y-37136054D01*
X165381118Y-36865135D01*
X165277661Y-36614748D01*
X165086259Y-36423013D01*
X164836054Y-36319118D01*
X164565135Y-36318882D01*
X164314748Y-36422339D01*
X164123013Y-36613741D01*
X164019118Y-36863946D01*
X164018882Y-37134865D01*
X163720468Y-37134865D01*
X163586259Y-37000423D01*
X163336054Y-36896528D01*
X163065135Y-36896292D01*
X162814748Y-36999749D01*
X162623013Y-37191151D01*
X162519118Y-37441356D01*
X162518882Y-37712275D01*
X161850751Y-37712275D01*
X161976987Y-37586259D01*
X162080882Y-37336054D01*
X162081118Y-37065135D01*
X161977661Y-36814748D01*
X161786259Y-36623013D01*
X161536054Y-36519118D01*
X161265135Y-36518882D01*
X161014748Y-36622339D01*
X160823013Y-36813741D01*
X160800072Y-36868988D01*
X160777661Y-36814748D01*
X160586259Y-36623013D01*
X160336054Y-36519118D01*
X160065135Y-36518882D01*
X159814748Y-36622339D01*
X159623013Y-36813741D01*
X159522779Y-37055130D01*
X159436054Y-37019118D01*
X159165135Y-37018882D01*
X159162463Y-37019986D01*
X159077661Y-36814748D01*
X158886259Y-36623013D01*
X158636054Y-36519118D01*
X158365135Y-36518882D01*
X158114748Y-36622339D01*
X157923013Y-36813741D01*
X157900072Y-36868988D01*
X157877661Y-36814748D01*
X157686259Y-36623013D01*
X157436054Y-36519118D01*
X157165135Y-36518882D01*
X156914748Y-36622339D01*
X156723013Y-36813741D01*
X156619118Y-37063946D01*
X156618882Y-37334865D01*
X156480883Y-37334865D01*
X156481118Y-37065135D01*
X156377661Y-36814748D01*
X156186259Y-36623013D01*
X155936054Y-36519118D01*
X155665135Y-36518882D01*
X155414748Y-36622339D01*
X155223013Y-36813741D01*
X155119118Y-37063946D01*
X155118882Y-37334865D01*
X154980883Y-37334865D01*
X154981118Y-37065135D01*
X154877661Y-36814748D01*
X154686259Y-36623013D01*
X154436054Y-36519118D01*
X154165135Y-36518882D01*
X153914748Y-36622339D01*
X153723013Y-36813741D01*
X153619118Y-37063946D01*
X153618882Y-37334865D01*
X151127000Y-37334865D01*
X151127000Y-36734865D01*
X151518882Y-36734865D01*
X151622339Y-36985252D01*
X151813741Y-37176987D01*
X152063946Y-37280882D01*
X152334865Y-37281118D01*
X152585252Y-37177661D01*
X152776987Y-36986259D01*
X152880882Y-36736054D01*
X152881118Y-36465135D01*
X152777661Y-36214748D01*
X152586259Y-36023013D01*
X152336054Y-35919118D01*
X152065135Y-35918882D01*
X151814748Y-36022339D01*
X151623013Y-36213741D01*
X151519118Y-36463946D01*
X151518882Y-36734865D01*
X151127000Y-36734865D01*
X151127000Y-35321877D01*
X151143502Y-35315059D01*
X151314459Y-35144400D01*
X151407095Y-34921309D01*
X151407305Y-34679750D01*
X151315059Y-34456498D01*
X151144400Y-34285541D01*
X151127000Y-34278316D01*
X151127000Y-33321877D01*
X151143502Y-33315059D01*
X151314459Y-33144400D01*
X151407095Y-32921309D01*
X151407305Y-32679750D01*
X151315059Y-32456498D01*
X151144400Y-32285541D01*
X151127000Y-32278316D01*
X151127000Y-32000000D01*
X151116994Y-31950590D01*
X151106409Y-31934865D01*
X159518882Y-31934865D01*
X159622339Y-32185252D01*
X159813741Y-32376987D01*
X160063946Y-32480882D01*
X160334865Y-32481118D01*
X160585252Y-32377661D01*
X160599858Y-32363080D01*
X160613741Y-32376987D01*
X160863946Y-32480882D01*
X161134865Y-32481118D01*
X161385252Y-32377661D01*
X161576987Y-32186259D01*
X161591811Y-32150559D01*
X161655600Y-32214459D01*
X161819102Y-32282351D01*
X161818882Y-32534865D01*
X161922339Y-32785252D01*
X162113741Y-32976987D01*
X162363946Y-33080882D01*
X162634865Y-33081118D01*
X162885252Y-32977661D01*
X163076987Y-32786259D01*
X163180882Y-32536054D01*
X163181118Y-32265135D01*
X163077661Y-32014748D01*
X162886259Y-31823013D01*
X162636054Y-31719118D01*
X162607184Y-31719093D01*
X162607305Y-31579750D01*
X162515059Y-31356498D01*
X162344400Y-31185541D01*
X162121309Y-31092905D01*
X161879750Y-31092695D01*
X161656498Y-31184941D01*
X161502107Y-31339063D01*
X161386259Y-31223013D01*
X161136054Y-31119118D01*
X160865135Y-31118882D01*
X160614748Y-31222339D01*
X160600142Y-31236920D01*
X160586259Y-31223013D01*
X160336054Y-31119118D01*
X160065135Y-31118882D01*
X159814748Y-31222339D01*
X159623013Y-31413741D01*
X159519118Y-31663946D01*
X159518882Y-31934865D01*
X151106409Y-31934865D01*
X151089803Y-31910197D01*
X150774539Y-31594933D01*
X150807104Y-31516508D01*
X150807314Y-31274949D01*
X150715068Y-31051697D01*
X150683676Y-31020250D01*
X152492695Y-31020250D01*
X152584941Y-31243502D01*
X152755600Y-31414459D01*
X152978691Y-31507095D01*
X153220250Y-31507305D01*
X153443502Y-31415059D01*
X153614459Y-31244400D01*
X153692085Y-31057455D01*
X155918882Y-31057455D01*
X156022339Y-31307842D01*
X156213741Y-31499577D01*
X156463946Y-31603472D01*
X156734865Y-31603708D01*
X156985252Y-31500251D01*
X157176987Y-31308849D01*
X157280882Y-31058644D01*
X157281118Y-30787725D01*
X157177661Y-30537338D01*
X156986259Y-30345603D01*
X156736054Y-30241708D01*
X156465135Y-30241472D01*
X156214748Y-30344929D01*
X156023013Y-30536331D01*
X155919118Y-30786536D01*
X155918882Y-31057455D01*
X153692085Y-31057455D01*
X153707095Y-31021309D01*
X153707305Y-30779750D01*
X153615059Y-30556498D01*
X153444400Y-30385541D01*
X153221309Y-30292905D01*
X152979750Y-30292695D01*
X152756498Y-30384941D01*
X152585541Y-30555600D01*
X152492905Y-30778691D01*
X152492695Y-31020250D01*
X150683676Y-31020250D01*
X150544409Y-30880740D01*
X150321318Y-30788104D01*
X150079759Y-30787894D01*
X150000323Y-30820717D01*
X149089803Y-29910197D01*
X149047789Y-29882334D01*
X149000000Y-29873000D01*
X144456000Y-29873000D01*
X144456000Y-25434865D01*
X153618882Y-25434865D01*
X153722339Y-25685252D01*
X153913741Y-25876987D01*
X153968988Y-25899928D01*
X153914748Y-25922339D01*
X153723013Y-26113741D01*
X153619118Y-26363946D01*
X153618882Y-26634865D01*
X153722339Y-26885252D01*
X153913741Y-27076987D01*
X154163946Y-27180882D01*
X154434865Y-27181118D01*
X154685252Y-27077661D01*
X154876987Y-26886259D01*
X154980882Y-26636054D01*
X154981118Y-26365135D01*
X154877661Y-26114748D01*
X154686259Y-25923013D01*
X154631012Y-25900072D01*
X154685252Y-25877661D01*
X154876987Y-25686259D01*
X154980882Y-25436054D01*
X154980883Y-25434865D01*
X155118882Y-25434865D01*
X155222339Y-25685252D01*
X155372416Y-25835590D01*
X155319118Y-25963946D01*
X155318882Y-26234865D01*
X155422339Y-26485252D01*
X155613741Y-26676987D01*
X155863946Y-26780882D01*
X156134865Y-26781118D01*
X156385252Y-26677661D01*
X156576987Y-26486259D01*
X156619100Y-26384841D01*
X156618882Y-26634865D01*
X156722339Y-26885252D01*
X156913741Y-27076987D01*
X157163946Y-27180882D01*
X157434865Y-27181118D01*
X157685252Y-27077661D01*
X157876987Y-26886259D01*
X157980882Y-26636054D01*
X157980883Y-26634865D01*
X158018882Y-26634865D01*
X158122339Y-26885252D01*
X158313741Y-27076987D01*
X158563946Y-27180882D01*
X158834865Y-27181118D01*
X159085252Y-27077661D01*
X159276987Y-26886259D01*
X159380882Y-26636054D01*
X159381118Y-26365135D01*
X159277661Y-26114748D01*
X159086259Y-25923013D01*
X159080888Y-25920783D01*
X159185252Y-25877661D01*
X159376987Y-25686259D01*
X159439851Y-25534865D01*
X159518882Y-25534865D01*
X159622339Y-25785252D01*
X159786920Y-25950119D01*
X159623013Y-26113741D01*
X159519118Y-26363946D01*
X159518882Y-26634865D01*
X159622339Y-26885252D01*
X159813741Y-27076987D01*
X160063946Y-27180882D01*
X160334865Y-27181118D01*
X160585252Y-27077661D01*
X160776987Y-26886259D01*
X160880882Y-26636054D01*
X160881118Y-26365135D01*
X160777661Y-26114748D01*
X160613080Y-25949881D01*
X160649945Y-25913080D01*
X160713741Y-25976987D01*
X160963946Y-26080882D01*
X161053577Y-26080960D01*
X161019118Y-26163946D01*
X161018882Y-26434865D01*
X161122339Y-26685252D01*
X161313741Y-26876987D01*
X161563946Y-26980882D01*
X161834865Y-26981118D01*
X162085252Y-26877661D01*
X162276987Y-26686259D01*
X162362232Y-26480968D01*
X162519016Y-26481104D01*
X162518882Y-26634865D01*
X162622339Y-26885252D01*
X162813741Y-27076987D01*
X163063946Y-27180882D01*
X163334865Y-27181118D01*
X163585252Y-27077661D01*
X163776987Y-26886259D01*
X163880882Y-26636054D01*
X163881118Y-26365135D01*
X163777661Y-26114748D01*
X163586259Y-25923013D01*
X163336054Y-25819118D01*
X163080984Y-25818896D01*
X163081118Y-25665135D01*
X162977661Y-25414748D01*
X162897917Y-25334865D01*
X164018882Y-25334865D01*
X164122339Y-25585252D01*
X164313741Y-25776987D01*
X164489698Y-25850051D01*
X164314748Y-25922339D01*
X164123013Y-26113741D01*
X164019118Y-26363946D01*
X164018882Y-26634865D01*
X164122339Y-26885252D01*
X164313741Y-27076987D01*
X164563946Y-27180882D01*
X164834865Y-27181118D01*
X165085252Y-27077661D01*
X165276987Y-26886259D01*
X165380882Y-26636054D01*
X165381118Y-26365135D01*
X165277661Y-26114748D01*
X165086259Y-25923013D01*
X164910302Y-25849949D01*
X165085252Y-25777661D01*
X165276987Y-25586259D01*
X165380882Y-25336054D01*
X165381118Y-25065135D01*
X165277661Y-24814748D01*
X165086259Y-24623013D01*
X164836054Y-24519118D01*
X164565135Y-24518882D01*
X164314748Y-24622339D01*
X164123013Y-24813741D01*
X164019118Y-25063946D01*
X164018882Y-25334865D01*
X162897917Y-25334865D01*
X162786259Y-25223013D01*
X162536054Y-25119118D01*
X162265135Y-25118882D01*
X162014748Y-25222339D01*
X161823013Y-25413741D01*
X161780900Y-25515159D01*
X161781118Y-25265135D01*
X161677661Y-25014748D01*
X161486259Y-24823013D01*
X161236054Y-24719118D01*
X160965135Y-24718882D01*
X160714748Y-24822339D01*
X160650055Y-24886920D01*
X160586259Y-24823013D01*
X160336054Y-24719118D01*
X160065135Y-24718882D01*
X159814748Y-24822339D01*
X159623013Y-25013741D01*
X159519118Y-25263946D01*
X159518882Y-25534865D01*
X159439851Y-25534865D01*
X159480882Y-25436054D01*
X159481118Y-25165135D01*
X159377661Y-24914748D01*
X159186259Y-24723013D01*
X158936054Y-24619118D01*
X158665135Y-24618882D01*
X158414748Y-24722339D01*
X158223013Y-24913741D01*
X158119118Y-25163946D01*
X158118882Y-25434865D01*
X158222339Y-25685252D01*
X158413741Y-25876987D01*
X158419112Y-25879217D01*
X158314748Y-25922339D01*
X158123013Y-26113741D01*
X158019118Y-26363946D01*
X158018882Y-26634865D01*
X157980883Y-26634865D01*
X157981118Y-26365135D01*
X157877661Y-26114748D01*
X157686259Y-25923013D01*
X157631012Y-25900072D01*
X157685252Y-25877661D01*
X157876987Y-25686259D01*
X157980882Y-25436054D01*
X157981118Y-25165135D01*
X157877661Y-24914748D01*
X157686259Y-24723013D01*
X157436054Y-24619118D01*
X157165135Y-24618882D01*
X156914748Y-24722339D01*
X156723013Y-24913741D01*
X156619118Y-25163946D01*
X156618882Y-25434865D01*
X156722339Y-25685252D01*
X156913741Y-25876987D01*
X156968988Y-25899928D01*
X156914748Y-25922339D01*
X156723013Y-26113741D01*
X156680900Y-26215159D01*
X156681118Y-25965135D01*
X156577661Y-25714748D01*
X156427584Y-25564410D01*
X156480882Y-25436054D01*
X156481118Y-25165135D01*
X156377661Y-24914748D01*
X156186259Y-24723013D01*
X155936054Y-24619118D01*
X155665135Y-24618882D01*
X155414748Y-24722339D01*
X155223013Y-24913741D01*
X155119118Y-25163946D01*
X155118882Y-25434865D01*
X154980883Y-25434865D01*
X154981118Y-25165135D01*
X154877661Y-24914748D01*
X154686259Y-24723013D01*
X154436054Y-24619118D01*
X154165135Y-24618882D01*
X153914748Y-24722339D01*
X153723013Y-24913741D01*
X153619118Y-25163946D01*
X153618882Y-25434865D01*
X144456000Y-25434865D01*
X144456000Y-23387362D01*
X144556183Y-23629823D01*
X145365914Y-24440969D01*
X146424420Y-24880499D01*
X147570552Y-24881499D01*
X147683414Y-24834865D01*
X151618882Y-24834865D01*
X151722339Y-25085252D01*
X151913741Y-25276987D01*
X152163946Y-25380882D01*
X152434865Y-25381118D01*
X152685252Y-25277661D01*
X152876987Y-25086259D01*
X152980882Y-24836054D01*
X152981118Y-24565135D01*
X152877661Y-24314748D01*
X152686259Y-24123013D01*
X152436054Y-24019118D01*
X152165135Y-24018882D01*
X151914748Y-24122339D01*
X151723013Y-24313741D01*
X151619118Y-24563946D01*
X151618882Y-24834865D01*
X147683414Y-24834865D01*
X148629823Y-24443817D01*
X149440969Y-23634086D01*
X149880499Y-22575580D01*
X149881499Y-21429448D01*
X149443817Y-20370177D01*
X148634086Y-19559031D01*
X148385960Y-19456000D01*
X152973000Y-19456000D01*
X152973000Y-20900000D01*
X152973000Y-20900000D01*
G37*
X152973000Y-20900000D02*
X152983006Y-20949410D01*
X153011447Y-20991035D01*
X153053841Y-21018315D01*
X153100000Y-21027000D01*
X153797572Y-21027000D01*
X153797572Y-21471000D01*
X156002429Y-21471000D01*
X156002429Y-21027000D01*
X157900000Y-21027000D01*
X157949410Y-21016994D01*
X157991035Y-20988553D01*
X158004460Y-20967690D01*
X158013741Y-20976987D01*
X158263946Y-21080882D01*
X158534865Y-21081118D01*
X158750222Y-20992135D01*
X158963946Y-21080882D01*
X159234865Y-21081118D01*
X159450222Y-20992135D01*
X159663946Y-21080882D01*
X159934865Y-21081118D01*
X160185252Y-20977661D01*
X160376987Y-20786259D01*
X160480882Y-20536054D01*
X160480883Y-20534865D01*
X161818882Y-20534865D01*
X161922339Y-20785252D01*
X162113741Y-20976987D01*
X162363946Y-21080882D01*
X162634865Y-21081118D01*
X162885252Y-20977661D01*
X163076987Y-20786259D01*
X163180882Y-20536054D01*
X163181118Y-20265135D01*
X163077661Y-20014748D01*
X162886259Y-19823013D01*
X162636054Y-19719118D01*
X162365135Y-19718882D01*
X162114748Y-19822339D01*
X161923013Y-20013741D01*
X161819118Y-20263946D01*
X161818882Y-20534865D01*
X160480883Y-20534865D01*
X160481118Y-20265135D01*
X160377661Y-20014748D01*
X160186259Y-19823013D01*
X159936054Y-19719118D01*
X159665135Y-19718882D01*
X159449778Y-19807865D01*
X159236054Y-19719118D01*
X158965135Y-19718882D01*
X158749778Y-19807865D01*
X158536054Y-19719118D01*
X158265135Y-19718882D01*
X158027000Y-19817277D01*
X158027000Y-19456000D01*
X167544000Y-19456000D01*
X167544000Y-40273000D01*
X167535986Y-40273000D01*
X167386259Y-40123013D01*
X167136054Y-40019118D01*
X166865135Y-40018882D01*
X166614748Y-40122339D01*
X166463825Y-40273000D01*
X160400000Y-40273000D01*
X160350590Y-40283006D01*
X160314571Y-40306028D01*
X159214571Y-41306028D01*
X159184741Y-41346668D01*
X159173000Y-41400000D01*
X159173000Y-48646473D01*
X158965135Y-48646292D01*
X158714748Y-48749749D01*
X158523013Y-48941151D01*
X158419118Y-49191356D01*
X158418882Y-49462275D01*
X158488830Y-49631564D01*
X157510197Y-50610197D01*
X157482334Y-50652211D01*
X157473000Y-50700000D01*
X157473000Y-53350682D01*
X157414748Y-53374751D01*
X157223013Y-53566153D01*
X157119118Y-53816358D01*
X157118882Y-54087277D01*
X157222339Y-54337664D01*
X157413741Y-54529399D01*
X157473000Y-54554006D01*
X157473000Y-54900000D01*
X157483006Y-54949410D01*
X157510197Y-54989803D01*
X158273000Y-55752606D01*
X158273000Y-56947394D01*
X157947394Y-57273000D01*
X155452606Y-57273000D01*
X154166873Y-55987267D01*
X154808098Y-55987267D01*
X154911555Y-56237654D01*
X155102957Y-56429389D01*
X155353162Y-56533284D01*
X155624081Y-56533520D01*
X155874468Y-56430063D01*
X156066203Y-56238661D01*
X156170098Y-55988456D01*
X156170334Y-55717537D01*
X156066877Y-55467150D01*
X155875475Y-55275415D01*
X155625270Y-55171520D01*
X155354351Y-55171284D01*
X155103964Y-55274741D01*
X154912229Y-55466143D01*
X154808334Y-55716348D01*
X154808098Y-55987267D01*
X154166873Y-55987267D01*
X154127000Y-55947394D01*
X154127000Y-53968250D01*
X154689085Y-53968250D01*
X154781331Y-54191502D01*
X154951990Y-54362459D01*
X155175081Y-54455095D01*
X155416640Y-54455305D01*
X155639892Y-54363059D01*
X155810849Y-54192400D01*
X155903485Y-53969309D01*
X155903695Y-53727750D01*
X155811449Y-53504498D01*
X155640790Y-53333541D01*
X155417699Y-53240905D01*
X155176140Y-53240695D01*
X154952888Y-53332941D01*
X154781931Y-53503600D01*
X154689295Y-53726691D01*
X154689085Y-53968250D01*
X154127000Y-53968250D01*
X154127000Y-51522801D01*
X154990144Y-51522801D01*
X155082390Y-51746053D01*
X155253049Y-51917010D01*
X155476140Y-52009646D01*
X155717699Y-52009856D01*
X155940951Y-51917610D01*
X156111908Y-51746951D01*
X156204544Y-51523860D01*
X156204754Y-51282301D01*
X156112508Y-51059049D01*
X155941849Y-50888092D01*
X155718758Y-50795456D01*
X155477199Y-50795246D01*
X155253947Y-50887492D01*
X155082990Y-51058151D01*
X154990354Y-51281242D01*
X154990144Y-51522801D01*
X154127000Y-51522801D01*
X154127000Y-49820250D01*
X154692695Y-49820250D01*
X154784941Y-50043502D01*
X154955600Y-50214459D01*
X155178691Y-50307095D01*
X155420250Y-50307305D01*
X155643502Y-50215059D01*
X155814459Y-50044400D01*
X155907095Y-49821309D01*
X155907305Y-49579750D01*
X155822745Y-49375100D01*
X156045502Y-49283059D01*
X156216459Y-49112400D01*
X156309095Y-48889309D01*
X156309305Y-48647750D01*
X156217059Y-48424498D01*
X156046400Y-48253541D01*
X155823309Y-48160905D01*
X155581750Y-48160695D01*
X155358498Y-48252941D01*
X155187541Y-48423600D01*
X155094905Y-48646691D01*
X155094695Y-48888250D01*
X155179255Y-49092900D01*
X154956498Y-49184941D01*
X154785541Y-49355600D01*
X154692905Y-49578691D01*
X154692695Y-49820250D01*
X154127000Y-49820250D01*
X154127000Y-45028670D01*
X155856695Y-45028670D01*
X155948941Y-45251922D01*
X156119600Y-45422879D01*
X156342691Y-45515515D01*
X156584250Y-45515725D01*
X156807502Y-45423479D01*
X156978459Y-45252820D01*
X157071095Y-45029729D01*
X157071305Y-44788170D01*
X156979059Y-44564918D01*
X156808400Y-44393961D01*
X156585309Y-44301325D01*
X156343750Y-44301115D01*
X156120498Y-44393361D01*
X155949541Y-44564020D01*
X155856905Y-44787111D01*
X155856695Y-45028670D01*
X154127000Y-45028670D01*
X154127000Y-43585631D01*
X154178691Y-43607095D01*
X154420250Y-43607305D01*
X154643502Y-43515059D01*
X154647806Y-43510763D01*
X154813741Y-43676987D01*
X155063946Y-43780882D01*
X155334865Y-43781118D01*
X155585252Y-43677661D01*
X155776987Y-43486259D01*
X155880882Y-43236054D01*
X155881118Y-42965135D01*
X155777661Y-42714748D01*
X155586259Y-42523013D01*
X155336054Y-42419118D01*
X155065135Y-42418882D01*
X154814748Y-42522339D01*
X154747825Y-42589146D01*
X154644400Y-42485541D01*
X154421309Y-42392905D01*
X154179750Y-42392695D01*
X154127000Y-42414491D01*
X154127000Y-42100000D01*
X154116994Y-42050590D01*
X154089803Y-42010197D01*
X153889803Y-41810197D01*
X153847789Y-41782334D01*
X153800000Y-41773000D01*
X151952606Y-41773000D01*
X151127000Y-40947394D01*
X151127000Y-37334865D01*
X153618882Y-37334865D01*
X153722339Y-37585252D01*
X153913741Y-37776987D01*
X153968988Y-37799928D01*
X153914748Y-37822339D01*
X153723013Y-38013741D01*
X153619118Y-38263946D01*
X153618882Y-38534865D01*
X153722339Y-38785252D01*
X153913741Y-38976987D01*
X154163946Y-39080882D01*
X154434865Y-39081118D01*
X154685252Y-38977661D01*
X154876987Y-38786259D01*
X154980882Y-38536054D01*
X154981118Y-38265135D01*
X154877661Y-38014748D01*
X154686259Y-37823013D01*
X154631012Y-37800072D01*
X154685252Y-37777661D01*
X154876987Y-37586259D01*
X154980882Y-37336054D01*
X154980883Y-37334865D01*
X155118882Y-37334865D01*
X155222339Y-37585252D01*
X155413741Y-37776987D01*
X155468988Y-37799928D01*
X155414748Y-37822339D01*
X155223013Y-38013741D01*
X155119118Y-38263946D01*
X155118882Y-38534865D01*
X155222339Y-38785252D01*
X155413741Y-38976987D01*
X155663946Y-39080882D01*
X155934865Y-39081118D01*
X156185252Y-38977661D01*
X156376987Y-38786259D01*
X156480882Y-38536054D01*
X156481118Y-38265135D01*
X156377661Y-38014748D01*
X156186259Y-37823013D01*
X156131012Y-37800072D01*
X156185252Y-37777661D01*
X156376987Y-37586259D01*
X156480882Y-37336054D01*
X156480883Y-37334865D01*
X156618882Y-37334865D01*
X156722339Y-37585252D01*
X156913741Y-37776987D01*
X156968988Y-37799928D01*
X156914748Y-37822339D01*
X156723013Y-38013741D01*
X156619118Y-38263946D01*
X156618882Y-38534865D01*
X156722339Y-38785252D01*
X156913741Y-38976987D01*
X157163946Y-39080882D01*
X157434865Y-39081118D01*
X157685252Y-38977661D01*
X157876987Y-38786259D01*
X157980882Y-38536054D01*
X157981118Y-38265135D01*
X157877661Y-38014748D01*
X157686259Y-37823013D01*
X157631012Y-37800072D01*
X157685252Y-37777661D01*
X157876987Y-37586259D01*
X157899928Y-37531012D01*
X157922339Y-37585252D01*
X158113741Y-37776987D01*
X158287784Y-37849256D01*
X158123013Y-38013741D01*
X158019118Y-38263946D01*
X158018882Y-38534865D01*
X158122339Y-38785252D01*
X158313741Y-38976987D01*
X158563946Y-39080882D01*
X158834865Y-39081118D01*
X159085252Y-38977661D01*
X159276987Y-38786259D01*
X159380882Y-38536054D01*
X159381017Y-38381071D01*
X159434865Y-38381118D01*
X159519046Y-38346335D01*
X159518882Y-38534865D01*
X159622339Y-38785252D01*
X159813741Y-38976987D01*
X160063946Y-39080882D01*
X160334865Y-39081118D01*
X160585252Y-38977661D01*
X160776987Y-38786259D01*
X160880882Y-38536054D01*
X160881118Y-38265135D01*
X160777661Y-38014748D01*
X160586259Y-37823013D01*
X160531012Y-37800072D01*
X160585252Y-37777661D01*
X160776987Y-37586259D01*
X160799928Y-37531012D01*
X160822339Y-37585252D01*
X161013741Y-37776987D01*
X161258407Y-37878582D01*
X161123013Y-38013741D01*
X161019118Y-38263946D01*
X161018882Y-38534865D01*
X161122339Y-38785252D01*
X161313741Y-38976987D01*
X161563946Y-39080882D01*
X161834865Y-39081118D01*
X162085252Y-38977661D01*
X162276987Y-38786259D01*
X162380882Y-38536054D01*
X162381118Y-38265135D01*
X162277661Y-38014748D01*
X162086259Y-37823013D01*
X161841593Y-37721418D01*
X161850751Y-37712275D01*
X162518882Y-37712275D01*
X162622339Y-37962662D01*
X162648215Y-37988583D01*
X162623013Y-38013741D01*
X162519118Y-38263946D01*
X162518882Y-38534865D01*
X162622339Y-38785252D01*
X162813741Y-38976987D01*
X163063946Y-39080882D01*
X163334865Y-39081118D01*
X163585252Y-38977661D01*
X163776987Y-38786259D01*
X163880882Y-38536054D01*
X163880883Y-38534865D01*
X164018882Y-38534865D01*
X164122339Y-38785252D01*
X164313741Y-38976987D01*
X164563946Y-39080882D01*
X164834865Y-39081118D01*
X165085252Y-38977661D01*
X165276987Y-38786259D01*
X165380882Y-38536054D01*
X165381118Y-38265135D01*
X165277661Y-38014748D01*
X165086259Y-37823013D01*
X164836054Y-37719118D01*
X164565135Y-37718882D01*
X164314748Y-37822339D01*
X164123013Y-38013741D01*
X164019118Y-38263946D01*
X164018882Y-38534865D01*
X163880883Y-38534865D01*
X163881118Y-38265135D01*
X163777661Y-38014748D01*
X163751785Y-37988827D01*
X163776987Y-37963669D01*
X163880882Y-37713464D01*
X163881118Y-37442545D01*
X163777661Y-37192158D01*
X163720468Y-37134865D01*
X164018882Y-37134865D01*
X164122339Y-37385252D01*
X164313741Y-37576987D01*
X164563946Y-37680882D01*
X164834865Y-37681118D01*
X165085252Y-37577661D01*
X165276987Y-37386259D01*
X165380882Y-37136054D01*
X165381118Y-36865135D01*
X165277661Y-36614748D01*
X165086259Y-36423013D01*
X164836054Y-36319118D01*
X164565135Y-36318882D01*
X164314748Y-36422339D01*
X164123013Y-36613741D01*
X164019118Y-36863946D01*
X164018882Y-37134865D01*
X163720468Y-37134865D01*
X163586259Y-37000423D01*
X163336054Y-36896528D01*
X163065135Y-36896292D01*
X162814748Y-36999749D01*
X162623013Y-37191151D01*
X162519118Y-37441356D01*
X162518882Y-37712275D01*
X161850751Y-37712275D01*
X161976987Y-37586259D01*
X162080882Y-37336054D01*
X162081118Y-37065135D01*
X161977661Y-36814748D01*
X161786259Y-36623013D01*
X161536054Y-36519118D01*
X161265135Y-36518882D01*
X161014748Y-36622339D01*
X160823013Y-36813741D01*
X160800072Y-36868988D01*
X160777661Y-36814748D01*
X160586259Y-36623013D01*
X160336054Y-36519118D01*
X160065135Y-36518882D01*
X159814748Y-36622339D01*
X159623013Y-36813741D01*
X159522779Y-37055130D01*
X159436054Y-37019118D01*
X159165135Y-37018882D01*
X159162463Y-37019986D01*
X159077661Y-36814748D01*
X158886259Y-36623013D01*
X158636054Y-36519118D01*
X158365135Y-36518882D01*
X158114748Y-36622339D01*
X157923013Y-36813741D01*
X157900072Y-36868988D01*
X157877661Y-36814748D01*
X157686259Y-36623013D01*
X157436054Y-36519118D01*
X157165135Y-36518882D01*
X156914748Y-36622339D01*
X156723013Y-36813741D01*
X156619118Y-37063946D01*
X156618882Y-37334865D01*
X156480883Y-37334865D01*
X156481118Y-37065135D01*
X156377661Y-36814748D01*
X156186259Y-36623013D01*
X155936054Y-36519118D01*
X155665135Y-36518882D01*
X155414748Y-36622339D01*
X155223013Y-36813741D01*
X155119118Y-37063946D01*
X155118882Y-37334865D01*
X154980883Y-37334865D01*
X154981118Y-37065135D01*
X154877661Y-36814748D01*
X154686259Y-36623013D01*
X154436054Y-36519118D01*
X154165135Y-36518882D01*
X153914748Y-36622339D01*
X153723013Y-36813741D01*
X153619118Y-37063946D01*
X153618882Y-37334865D01*
X151127000Y-37334865D01*
X151127000Y-36734865D01*
X151518882Y-36734865D01*
X151622339Y-36985252D01*
X151813741Y-37176987D01*
X152063946Y-37280882D01*
X152334865Y-37281118D01*
X152585252Y-37177661D01*
X152776987Y-36986259D01*
X152880882Y-36736054D01*
X152881118Y-36465135D01*
X152777661Y-36214748D01*
X152586259Y-36023013D01*
X152336054Y-35919118D01*
X152065135Y-35918882D01*
X151814748Y-36022339D01*
X151623013Y-36213741D01*
X151519118Y-36463946D01*
X151518882Y-36734865D01*
X151127000Y-36734865D01*
X151127000Y-35321877D01*
X151143502Y-35315059D01*
X151314459Y-35144400D01*
X151407095Y-34921309D01*
X151407305Y-34679750D01*
X151315059Y-34456498D01*
X151144400Y-34285541D01*
X151127000Y-34278316D01*
X151127000Y-33321877D01*
X151143502Y-33315059D01*
X151314459Y-33144400D01*
X151407095Y-32921309D01*
X151407305Y-32679750D01*
X151315059Y-32456498D01*
X151144400Y-32285541D01*
X151127000Y-32278316D01*
X151127000Y-32000000D01*
X151116994Y-31950590D01*
X151106409Y-31934865D01*
X159518882Y-31934865D01*
X159622339Y-32185252D01*
X159813741Y-32376987D01*
X160063946Y-32480882D01*
X160334865Y-32481118D01*
X160585252Y-32377661D01*
X160599858Y-32363080D01*
X160613741Y-32376987D01*
X160863946Y-32480882D01*
X161134865Y-32481118D01*
X161385252Y-32377661D01*
X161576987Y-32186259D01*
X161591811Y-32150559D01*
X161655600Y-32214459D01*
X161819102Y-32282351D01*
X161818882Y-32534865D01*
X161922339Y-32785252D01*
X162113741Y-32976987D01*
X162363946Y-33080882D01*
X162634865Y-33081118D01*
X162885252Y-32977661D01*
X163076987Y-32786259D01*
X163180882Y-32536054D01*
X163181118Y-32265135D01*
X163077661Y-32014748D01*
X162886259Y-31823013D01*
X162636054Y-31719118D01*
X162607184Y-31719093D01*
X162607305Y-31579750D01*
X162515059Y-31356498D01*
X162344400Y-31185541D01*
X162121309Y-31092905D01*
X161879750Y-31092695D01*
X161656498Y-31184941D01*
X161502107Y-31339063D01*
X161386259Y-31223013D01*
X161136054Y-31119118D01*
X160865135Y-31118882D01*
X160614748Y-31222339D01*
X160600142Y-31236920D01*
X160586259Y-31223013D01*
X160336054Y-31119118D01*
X160065135Y-31118882D01*
X159814748Y-31222339D01*
X159623013Y-31413741D01*
X159519118Y-31663946D01*
X159518882Y-31934865D01*
X151106409Y-31934865D01*
X151089803Y-31910197D01*
X150774539Y-31594933D01*
X150807104Y-31516508D01*
X150807314Y-31274949D01*
X150715068Y-31051697D01*
X150683676Y-31020250D01*
X152492695Y-31020250D01*
X152584941Y-31243502D01*
X152755600Y-31414459D01*
X152978691Y-31507095D01*
X153220250Y-31507305D01*
X153443502Y-31415059D01*
X153614459Y-31244400D01*
X153692085Y-31057455D01*
X155918882Y-31057455D01*
X156022339Y-31307842D01*
X156213741Y-31499577D01*
X156463946Y-31603472D01*
X156734865Y-31603708D01*
X156985252Y-31500251D01*
X157176987Y-31308849D01*
X157280882Y-31058644D01*
X157281118Y-30787725D01*
X157177661Y-30537338D01*
X156986259Y-30345603D01*
X156736054Y-30241708D01*
X156465135Y-30241472D01*
X156214748Y-30344929D01*
X156023013Y-30536331D01*
X155919118Y-30786536D01*
X155918882Y-31057455D01*
X153692085Y-31057455D01*
X153707095Y-31021309D01*
X153707305Y-30779750D01*
X153615059Y-30556498D01*
X153444400Y-30385541D01*
X153221309Y-30292905D01*
X152979750Y-30292695D01*
X152756498Y-30384941D01*
X152585541Y-30555600D01*
X152492905Y-30778691D01*
X152492695Y-31020250D01*
X150683676Y-31020250D01*
X150544409Y-30880740D01*
X150321318Y-30788104D01*
X150079759Y-30787894D01*
X150000323Y-30820717D01*
X149089803Y-29910197D01*
X149047789Y-29882334D01*
X149000000Y-29873000D01*
X144456000Y-29873000D01*
X144456000Y-25434865D01*
X153618882Y-25434865D01*
X153722339Y-25685252D01*
X153913741Y-25876987D01*
X153968988Y-25899928D01*
X153914748Y-25922339D01*
X153723013Y-26113741D01*
X153619118Y-26363946D01*
X153618882Y-26634865D01*
X153722339Y-26885252D01*
X153913741Y-27076987D01*
X154163946Y-27180882D01*
X154434865Y-27181118D01*
X154685252Y-27077661D01*
X154876987Y-26886259D01*
X154980882Y-26636054D01*
X154981118Y-26365135D01*
X154877661Y-26114748D01*
X154686259Y-25923013D01*
X154631012Y-25900072D01*
X154685252Y-25877661D01*
X154876987Y-25686259D01*
X154980882Y-25436054D01*
X154980883Y-25434865D01*
X155118882Y-25434865D01*
X155222339Y-25685252D01*
X155372416Y-25835590D01*
X155319118Y-25963946D01*
X155318882Y-26234865D01*
X155422339Y-26485252D01*
X155613741Y-26676987D01*
X155863946Y-26780882D01*
X156134865Y-26781118D01*
X156385252Y-26677661D01*
X156576987Y-26486259D01*
X156619100Y-26384841D01*
X156618882Y-26634865D01*
X156722339Y-26885252D01*
X156913741Y-27076987D01*
X157163946Y-27180882D01*
X157434865Y-27181118D01*
X157685252Y-27077661D01*
X157876987Y-26886259D01*
X157980882Y-26636054D01*
X157980883Y-26634865D01*
X158018882Y-26634865D01*
X158122339Y-26885252D01*
X158313741Y-27076987D01*
X158563946Y-27180882D01*
X158834865Y-27181118D01*
X159085252Y-27077661D01*
X159276987Y-26886259D01*
X159380882Y-26636054D01*
X159381118Y-26365135D01*
X159277661Y-26114748D01*
X159086259Y-25923013D01*
X159080888Y-25920783D01*
X159185252Y-25877661D01*
X159376987Y-25686259D01*
X159439851Y-25534865D01*
X159518882Y-25534865D01*
X159622339Y-25785252D01*
X159786920Y-25950119D01*
X159623013Y-26113741D01*
X159519118Y-26363946D01*
X159518882Y-26634865D01*
X159622339Y-26885252D01*
X159813741Y-27076987D01*
X160063946Y-27180882D01*
X160334865Y-27181118D01*
X160585252Y-27077661D01*
X160776987Y-26886259D01*
X160880882Y-26636054D01*
X160881118Y-26365135D01*
X160777661Y-26114748D01*
X160613080Y-25949881D01*
X160649945Y-25913080D01*
X160713741Y-25976987D01*
X160963946Y-26080882D01*
X161053577Y-26080960D01*
X161019118Y-26163946D01*
X161018882Y-26434865D01*
X161122339Y-26685252D01*
X161313741Y-26876987D01*
X161563946Y-26980882D01*
X161834865Y-26981118D01*
X162085252Y-26877661D01*
X162276987Y-26686259D01*
X162362232Y-26480968D01*
X162519016Y-26481104D01*
X162518882Y-26634865D01*
X162622339Y-26885252D01*
X162813741Y-27076987D01*
X163063946Y-27180882D01*
X163334865Y-27181118D01*
X163585252Y-27077661D01*
X163776987Y-26886259D01*
X163880882Y-26636054D01*
X163881118Y-26365135D01*
X163777661Y-26114748D01*
X163586259Y-25923013D01*
X163336054Y-25819118D01*
X163080984Y-25818896D01*
X163081118Y-25665135D01*
X162977661Y-25414748D01*
X162897917Y-25334865D01*
X164018882Y-25334865D01*
X164122339Y-25585252D01*
X164313741Y-25776987D01*
X164489698Y-25850051D01*
X164314748Y-25922339D01*
X164123013Y-26113741D01*
X164019118Y-26363946D01*
X164018882Y-26634865D01*
X164122339Y-26885252D01*
X164313741Y-27076987D01*
X164563946Y-27180882D01*
X164834865Y-27181118D01*
X165085252Y-27077661D01*
X165276987Y-26886259D01*
X165380882Y-26636054D01*
X165381118Y-26365135D01*
X165277661Y-26114748D01*
X165086259Y-25923013D01*
X164910302Y-25849949D01*
X165085252Y-25777661D01*
X165276987Y-25586259D01*
X165380882Y-25336054D01*
X165381118Y-25065135D01*
X165277661Y-24814748D01*
X165086259Y-24623013D01*
X164836054Y-24519118D01*
X164565135Y-24518882D01*
X164314748Y-24622339D01*
X164123013Y-24813741D01*
X164019118Y-25063946D01*
X164018882Y-25334865D01*
X162897917Y-25334865D01*
X162786259Y-25223013D01*
X162536054Y-25119118D01*
X162265135Y-25118882D01*
X162014748Y-25222339D01*
X161823013Y-25413741D01*
X161780900Y-25515159D01*
X161781118Y-25265135D01*
X161677661Y-25014748D01*
X161486259Y-24823013D01*
X161236054Y-24719118D01*
X160965135Y-24718882D01*
X160714748Y-24822339D01*
X160650055Y-24886920D01*
X160586259Y-24823013D01*
X160336054Y-24719118D01*
X160065135Y-24718882D01*
X159814748Y-24822339D01*
X159623013Y-25013741D01*
X159519118Y-25263946D01*
X159518882Y-25534865D01*
X159439851Y-25534865D01*
X159480882Y-25436054D01*
X159481118Y-25165135D01*
X159377661Y-24914748D01*
X159186259Y-24723013D01*
X158936054Y-24619118D01*
X158665135Y-24618882D01*
X158414748Y-24722339D01*
X158223013Y-24913741D01*
X158119118Y-25163946D01*
X158118882Y-25434865D01*
X158222339Y-25685252D01*
X158413741Y-25876987D01*
X158419112Y-25879217D01*
X158314748Y-25922339D01*
X158123013Y-26113741D01*
X158019118Y-26363946D01*
X158018882Y-26634865D01*
X157980883Y-26634865D01*
X157981118Y-26365135D01*
X157877661Y-26114748D01*
X157686259Y-25923013D01*
X157631012Y-25900072D01*
X157685252Y-25877661D01*
X157876987Y-25686259D01*
X157980882Y-25436054D01*
X157981118Y-25165135D01*
X157877661Y-24914748D01*
X157686259Y-24723013D01*
X157436054Y-24619118D01*
X157165135Y-24618882D01*
X156914748Y-24722339D01*
X156723013Y-24913741D01*
X156619118Y-25163946D01*
X156618882Y-25434865D01*
X156722339Y-25685252D01*
X156913741Y-25876987D01*
X156968988Y-25899928D01*
X156914748Y-25922339D01*
X156723013Y-26113741D01*
X156680900Y-26215159D01*
X156681118Y-25965135D01*
X156577661Y-25714748D01*
X156427584Y-25564410D01*
X156480882Y-25436054D01*
X156481118Y-25165135D01*
X156377661Y-24914748D01*
X156186259Y-24723013D01*
X155936054Y-24619118D01*
X155665135Y-24618882D01*
X155414748Y-24722339D01*
X155223013Y-24913741D01*
X155119118Y-25163946D01*
X155118882Y-25434865D01*
X154980883Y-25434865D01*
X154981118Y-25165135D01*
X154877661Y-24914748D01*
X154686259Y-24723013D01*
X154436054Y-24619118D01*
X154165135Y-24618882D01*
X153914748Y-24722339D01*
X153723013Y-24913741D01*
X153619118Y-25163946D01*
X153618882Y-25434865D01*
X144456000Y-25434865D01*
X144456000Y-23387362D01*
X144556183Y-23629823D01*
X145365914Y-24440969D01*
X146424420Y-24880499D01*
X147570552Y-24881499D01*
X147683414Y-24834865D01*
X151618882Y-24834865D01*
X151722339Y-25085252D01*
X151913741Y-25276987D01*
X152163946Y-25380882D01*
X152434865Y-25381118D01*
X152685252Y-25277661D01*
X152876987Y-25086259D01*
X152980882Y-24836054D01*
X152981118Y-24565135D01*
X152877661Y-24314748D01*
X152686259Y-24123013D01*
X152436054Y-24019118D01*
X152165135Y-24018882D01*
X151914748Y-24122339D01*
X151723013Y-24313741D01*
X151619118Y-24563946D01*
X151618882Y-24834865D01*
X147683414Y-24834865D01*
X148629823Y-24443817D01*
X149440969Y-23634086D01*
X149880499Y-22575580D01*
X149881499Y-21429448D01*
X149443817Y-20370177D01*
X148634086Y-19559031D01*
X148385960Y-19456000D01*
X152973000Y-19456000D01*
X152973000Y-20900000D01*
M02*
