G04 #@! TF.FileFunction,Soldermask,Top*
%FSLAX46Y46*%
G04 Gerber Fmt 4.6, Leading zero omitted, Abs format (unit mm)*
G04 Created by KiCad (PCBNEW 4.0.2-stable) date 12/11/2016 19:10:46*
%MOMM*%
G01*
G04 APERTURE LIST*
%ADD10C,0.100000*%
%ADD11R,1.100000X3.600000*%
%ADD12R,1.900000X2.700000*%
%ADD13R,1.050000X1.460000*%
%ADD14R,3.600000X1.100000*%
%ADD15R,2.700000X1.900000*%
%ADD16R,1.460000X1.050000*%
%ADD17R,1.300000X0.900000*%
%ADD18R,0.900000X1.300000*%
%ADD19R,4.900880X2.398980*%
%ADD20R,2.635200X2.635200*%
%ADD21R,1.200000X1.150000*%
%ADD22R,1.150000X1.200000*%
%ADD23R,1.650000X1.400000*%
%ADD24C,5.400000*%
%ADD25R,1.400000X1.400000*%
%ADD26R,0.850000X1.780000*%
%ADD27R,1.875000X2.500000*%
%ADD28R,2.775000X2.300000*%
%ADD29R,1.575000X2.300000*%
%ADD30R,1.160000X2.800000*%
G04 APERTURE END LIST*
D10*
D11*
X154250000Y-40700000D03*
X155750000Y-40700000D03*
X157250000Y-40700000D03*
X158750000Y-40700000D03*
X160250000Y-40700000D03*
D12*
X166800000Y-38550000D03*
X152200000Y-38550000D03*
D11*
X161750000Y-40700000D03*
X163250000Y-40700000D03*
X164750000Y-40700000D03*
D13*
X162350000Y-51900000D03*
X163300000Y-51900000D03*
X164250000Y-51900000D03*
X164250000Y-49700000D03*
X162350000Y-49700000D03*
D11*
X154250000Y-34800000D03*
X155750000Y-34800000D03*
X157250000Y-34800000D03*
X158750000Y-34800000D03*
X160250000Y-34800000D03*
D12*
X166800000Y-32650000D03*
X152200000Y-32650000D03*
D11*
X161750000Y-34800000D03*
X163250000Y-34800000D03*
X164750000Y-34800000D03*
X154250000Y-28900000D03*
X155750000Y-28900000D03*
X157250000Y-28900000D03*
X158750000Y-28900000D03*
X160250000Y-28900000D03*
D12*
X166800000Y-26750000D03*
X152200000Y-26750000D03*
D11*
X161750000Y-28900000D03*
X163250000Y-28900000D03*
X164750000Y-28900000D03*
X154250000Y-22900000D03*
X155750000Y-22900000D03*
X157250000Y-22900000D03*
X158750000Y-22900000D03*
X160250000Y-22900000D03*
D12*
X166800000Y-20750000D03*
X152200000Y-20750000D03*
D11*
X161750000Y-22900000D03*
X163250000Y-22900000D03*
X164750000Y-22900000D03*
D14*
X147900000Y-29000000D03*
X147900000Y-30500000D03*
X147900000Y-32000000D03*
X147900000Y-33500000D03*
X147900000Y-35000000D03*
D15*
X145750000Y-26950000D03*
X145750000Y-37050000D03*
D16*
X147800000Y-51250000D03*
X147800000Y-52200000D03*
X147800000Y-53150000D03*
X150000000Y-53150000D03*
X150000000Y-51250000D03*
X150000000Y-52200000D03*
D17*
X154600000Y-53250000D03*
X154600000Y-51750000D03*
X152300000Y-51750000D03*
X152300000Y-53250000D03*
D18*
X154750000Y-55500000D03*
X156250000Y-55500000D03*
D19*
X158800000Y-52500520D03*
X158800000Y-58500000D03*
D18*
X165600000Y-49800000D03*
X167100000Y-49800000D03*
D20*
X150622000Y-47244000D03*
D21*
X160150000Y-50300000D03*
X158650000Y-50300000D03*
D22*
X155000000Y-57450000D03*
X155000000Y-58950000D03*
D21*
X148200000Y-49200000D03*
X149700000Y-49200000D03*
D23*
X145400000Y-53100000D03*
X145400000Y-51100000D03*
D24*
X147000000Y-22000000D03*
X165000000Y-57000000D03*
D25*
X151650000Y-49200000D03*
X154150000Y-49200000D03*
D26*
X147600000Y-55940000D03*
X148250000Y-55940000D03*
X148900000Y-55940000D03*
X149550000Y-55940000D03*
X150200000Y-55940000D03*
D27*
X146437500Y-56300000D03*
X151362500Y-56300000D03*
D28*
X151812500Y-58600000D03*
D29*
X149737500Y-58600000D03*
X148062500Y-58600000D03*
D28*
X145987500Y-58600000D03*
D30*
X145430000Y-45450000D03*
X145430000Y-41550000D03*
X146700000Y-45450000D03*
X146700000Y-41550000D03*
X147970000Y-45450000D03*
X147970000Y-41550000D03*
D22*
X166000000Y-52950000D03*
X166000000Y-51450000D03*
D11*
X154262000Y-46700000D03*
X155762000Y-46700000D03*
X157262000Y-46700000D03*
X158762000Y-46700000D03*
X160262000Y-46700000D03*
D12*
X166812000Y-44550000D03*
X152212000Y-44550000D03*
D11*
X161762000Y-46700000D03*
X163262000Y-46700000D03*
X164762000Y-46700000D03*
M02*
